<?xml version="1.0" encoding="UTF-8" standalone="no"?>
<svg
   xmlns:dc="http://purl.org/dc/elements/1.1/"
   xmlns:cc="http://creativecommons.org/ns#"
   xmlns:rdf="http://www.w3.org/1999/02/22-rdf-syntax-ns#"
   xmlns:svg="http://www.w3.org/2000/svg"
   xmlns="http://www.w3.org/2000/svg"
   xmlns:sodipodi="http://sodipodi.sourceforge.net/DTD/sodipodi-0.dtd"
   xmlns:inkscape="http://www.inkscape.org/namespaces/inkscape"
   width="210mm"
   height="210mm"
   viewBox="0 0 210 210"
   version="1.1"
   id="svg3237"
   inkscape:version="1.0.2 (1.0.2+r75+1)"
   sodipodi:docname="dklogo.svg">
  <defs
     id="defs3231" />
  <sodipodi:namedview
     id="base"
     pagecolor="#ffffff"
     bordercolor="#666666"
     borderopacity="1.0"
     inkscape:pageopacity="0.0"
     inkscape:pageshadow="2"
     inkscape:zoom="0.49497475"
     inkscape:cx="484.57822"
     inkscape:cy="476.51095"
     inkscape:document-units="mm"
     inkscape:current-layer="layer1"
     inkscape:document-rotation="0"
     showgrid="false"
     inkscape:pagecheckerboard="true"
     borderlayer="true"
     inkscape:window-width="1366"
     inkscape:window-height="716"
     inkscape:window-x="0"
     inkscape:window-y="24"
     inkscape:window-maximized="1" />
  <metadata
     id="metadata3234">
    <rdf:RDF>
      <cc:Work
         rdf:about="">
        <dc:format>image/svg+xml</dc:format>
        <dc:type
           rdf:resource="http://purl.org/dc/dcmitype/StillImage" />
        <dc:title />
      </cc:Work>
    </rdf:RDF>
  </metadata>
  <g
     inkscape:label="Layer 1"
     inkscape:groupmode="layer"
     id="layer1">
    <path
       id="rect838"
       style="opacity:0.926268;fill:#ffffff;stroke-width:0.402434"
       d="m 43.456354,0.98654288 74.347016,0 c 49.05092,0 79.36192,23.86042812 79.36192,73.57458312 l 0,47.590214 c 0,41.44177 -27.95171,86.59195 -71.74272,86.59195 H 43.456354 c -12.926962,0 -18.634211,-10.40691 -18.634211,-23.33387 V 24.320409 c 0,-12.926962 5.707249,-23.33386612 18.634211,-23.33386612 z"
       sodipodi:nodetypes="sssssssss" />
    <g
       id="g874"
       transform="matrix(1.2932046,0,0,1.2932046,40.683526,10.71569)">
      <path
         style="fill:#242b70;stroke-width:0.284029"
         d="m 2.0079272,142.84576 c 0,-133.1207499 0,3.12721 0.00344,-134.5328185 0.469128,-6.4258705 6.1164564,-7.31896863 8.6076398,-7.3125964 4.038375,0.010306 25.445442,0.011594 40.109489,-0.0104129 9.661851,-0.0144707 21.001116,4.92643 28.967485,9.5039478 3.91907,2.306493 7.012062,4.714838 10.652549,8.29456 2.596672,2.553323 3.351222,3.490336 4.118429,5.114269 1.754824,3.714451 1.125873,7.672102 -1.674784,10.538383 -2.726233,2.790126 -6.184289,4.35697 -9.638417,4.367179 -3.941345,0.01159 -8.94864,-1.937319 -13.452175,-5.235929 -3.240792,-2.373717 -5.349484,-3.600659 -8.238362,-4.793508 -4.974403,-2.053997 -9.963997,-2.91812 -15.336077,-2.655982 -9.087734,0.44344 -17.040879,3.959615 -23.524986,10.400642 -8.550372,8.493563 -12.237362,20.824868 -9.729255,32.5399 1.462038,6.828978 4.642983,12.71258 9.532021,17.630796 6.928351,6.969702 15.6333,10.62875 25.284384,10.628084 13.609518,-8.48e-4 24.449875,-6.590865 32.790079,-19.933329 1.006973,-1.610944 2.935865,-5.293533 4.286431,-8.183538 4.117259,-8.810352 7.936687,-15.067252 11.207547,-18.359969 2.65112,-2.668842 8.663905,-6.337551 11.590825,-7.072156 l 0.78754,-0.197663 c 0.0373,10.764718 0.11985,22.011061 -0.17439,32.285611 -0.35912,11.258065 -1.04225,12.854141 -1.67698,15.924525 -2.19693,10.627325 -6.48058,20.128475 -13.051173,28.947585 -6.320344,8.48322 -13.163309,14.5155 -20.481264,18.05486 -2.979953,1.44126 -8.752534,3.9989 -12.39885,4.00234 z"
         id="path865" />
      <path
         style="fill:#ca4e9c;stroke-width:0.284029"
         d="M 41.999886,89.222147 C 36.31619,87.973273 31.654247,85.44158 27.656844,81.433045 15.886957,69.630405 16.991779,50.095901 30.011464,39.800741 c 5.633243,-4.454423 11.674477,-6.360922 19.072623,-6.018959 12.551093,0.58015 23.049917,9.486237 25.904046,21.974251 0.682025,2.984151 0.695604,8.510053 0.02866,11.645588 -0.993082,4.668499 -3.628249,9.809993 -6.854505,13.373875 -2.578358,2.84817 -6.913247,5.740107 -10.763549,7.180687 -4.298293,1.608195 -11.242929,2.179124 -15.398812,1.265964 z"
         id="path871" />
    </g>
  </g>
</svg>
