<?xml version="1.0" encoding="UTF-8" standalone="no"?>
<svg
   xmlns:dc="http://purl.org/dc/elements/1.1/"
   xmlns:cc="http://creativecommons.org/ns#"
   xmlns:rdf="http://www.w3.org/1999/02/22-rdf-syntax-ns#"
   xmlns:svg="http://www.w3.org/2000/svg"
   xmlns="http://www.w3.org/2000/svg"
   xmlns:sodipodi="http://sodipodi.sourceforge.net/DTD/sodipodi-0.dtd"
   xmlns:inkscape="http://www.inkscape.org/namespaces/inkscape"
   version="1.1"
   id="svg2"
   xml:space="preserve"
   width="1000"
   height="585"
   viewBox="0 0 1000 585"
   sodipodi:docname="banner.svg"
   inkscape:version="1.0.2 (1.0.2+r75+1)"><metadata
     id="metadata8"><rdf:RDF><cc:Work
         rdf:about=""><dc:format>image/svg+xml</dc:format><dc:type
           rdf:resource="http://purl.org/dc/dcmitype/StillImage" /><dc:title></dc:title></cc:Work></rdf:RDF></metadata><defs
     id="defs6"><clipPath
       clipPathUnits="userSpaceOnUse"
       id="clipPath18"><path
         d="M 0,500 H 750 V 0 H 0 Z"
         id="path16" /></clipPath><clipPath
       clipPathUnits="userSpaceOnUse"
       id="clipPath26"><path
         d="M -0.523209,500.523 H 750.523 V -0.523209 H -0.523209 Z"
         id="path24" /></clipPath><clipPath
       clipPathUnits="userSpaceOnUse"
       id="clipPath40"><path
         d="M 0,500 H 750 V 0 H 0 Z"
         id="path38" /></clipPath><clipPath
       clipPathUnits="userSpaceOnUse"
       id="clipPath48"><path
         d="M 272.639,435.851 H 715.777 V 54.022 H 272.639 Z"
         id="path46" /></clipPath><clipPath
       clipPathUnits="userSpaceOnUse"
       id="clipPath196"><path
         d="m 279.377,378.621 h 6.849 v -6.849 h -6.849 z"
         id="path194" /></clipPath><clipPath
       clipPathUnits="userSpaceOnUse"
       id="clipPath272"><path
         d="m 163.556,302.807 h 85.919 v -41.523 h -85.919 z"
         id="path270" /></clipPath><clipPath
       clipPathUnits="userSpaceOnUse"
       id="clipPath296"><path
         d="M 89.6226,267.276 H 224.491 V 218.075 H 89.6226 Z"
         id="path294" /></clipPath><clipPath
       clipPathUnits="userSpaceOnUse"
       id="clipPath332"><path
         d="m 222.457,360.257 h 41.357 v -73.815 h -41.357 z"
         id="path330" /></clipPath><clipPath
       clipPathUnits="userSpaceOnUse"
       id="clipPath384"><path
         d="M 478.725,366.087 H 498.66 V 338.492 H 478.725 Z"
         id="path382" /></clipPath><clipPath
       clipPathUnits="userSpaceOnUse"
       id="clipPath440"><path
         d="M 350.819,306.428 H 517.48 V 147.176 H 350.819 Z"
         id="path438" /></clipPath><clipPath
       clipPathUnits="userSpaceOnUse"
       id="clipPath456"><path
         d="m 447.521,307.825 h 110.78 V 124.056 h -110.78 z"
         id="path454" /></clipPath><clipPath
       clipPathUnits="userSpaceOnUse"
       id="clipPath472"><path
         d="M 371.399,360.917 H 624.478 V 143.938 H 371.399 Z"
         id="path470" /></clipPath><clipPath
       clipPathUnits="userSpaceOnUse"
       id="clipPath580"><path
         d="m 589.877,322.959 h 74.574 v -76.632 h -74.574 z"
         id="path578" /></clipPath><clipPath
       clipPathUnits="userSpaceOnUse"
       id="clipPath636"><path
         d="M 0,500 H 750 V 0 H 0 Z"
         id="path634" /></clipPath></defs><sodipodi:namedview
     pagecolor="#ffffff"
     bordercolor="#666666"
     borderopacity="1"
     objecttolerance="10"
     gridtolerance="10"
     guidetolerance="10"
     inkscape:pageopacity="0"
     inkscape:pageshadow="2"
     inkscape:window-width="1366"
     inkscape:window-height="716"
     id="namedview4"
     showgrid="false"
     inkscape:zoom="0.60033364"
     inkscape:cx="552.4613"
     inkscape:cy="361.05522"
     inkscape:window-x="0"
     inkscape:window-y="24"
     inkscape:window-maximized="1"
     inkscape:current-layer="g10" /><g
     id="g10"
     inkscape:groupmode="layer"
     inkscape:label="4094667"
     transform="matrix(1.3333333,0,0,-1.3333333,0,666.66667)"><g
       id="g36"
       clip-path="url(#clipPath40)"
       transform="matrix(1.1081975,0,0,1.1081975,-49.996351,3.4850861)"><g
         id="g42"><g
           id="g44" /><g
           id="g108"><g
             clip-path="url(#clipPath48)"
             opacity="0.399994"
             id="g106"><g
               transform="translate(493.6627,218.3492)"
               id="g52"><path
                 d="m 0,0 c 22.667,57.987 68.266,107.023 125.131,132.718 16.323,7.376 34.732,12.729 52.733,9.413 14.921,-2.748 29.153,-11.337 35.49,-25.567 C 226.227,87.66 217.206,52.691 194.246,31.834 171.329,11.017 138.165,2.253 107.749,5.838 c -2.003,0.236 -1.985,-2.905 0,-3.139 28.624,-3.374 59.26,4.11 82.331,21.626 25.389,19.276 37.137,50.487 29.952,81.807 -3.283,14.314 -11.116,26.054 -24.238,33.087 -14.611,7.831 -31.604,8.45 -47.519,4.845 -17.481,-3.96 -34.061,-12.396 -49.294,-21.653 C 84.82,113.804 71.545,103.717 59.395,92.451 32.011,67.062 10.566,35.608 -3.026,0.834 -3.763,-1.049 -0.729,-1.864 0,0"
                 style="fill:#659feb;fill-opacity:1;fill-rule:nonzero;stroke:none"
                 id="path50" /></g><g
               transform="translate(504.6432,217.8394)"
               id="g56"><path
                 d="m 0,0 c 29.187,48.281 69.735,92.724 123.059,111.153 10.212,3.53 21.016,6.077 31.766,4.988 10.749,-1.09 21.493,-6.287 27.222,-15.448 5.611,-8.972 5.734,-20.468 3.116,-30.722 C 180.545,51.883 168.15,36.486 153.231,25.266 138.312,14.044 120.921,6.602 103.406,0.142"
                 style="fill:#659feb;fill-opacity:1;fill-rule:nonzero;stroke:none"
                 id="path54" /></g><g
               transform="translate(505.9987,217.0465)"
               id="g60"><path
                 d="m 0,0 c 23.586,38.846 54.067,75.304 94.177,97.816 20.048,11.253 48.521,24.485 71.346,14.372 C 191.771,100.56 185.28,68.45 172.147,49.164 155.686,24.989 128.191,12.295 101.633,2.448 c -1.878,-0.696 -1.066,-3.731 0.835,-3.027 24.879,9.224 50.219,20.68 67.471,41.621 13.575,16.477 25.373,44.734 10.179,63.954 -16.882,21.356 -47.85,13.436 -69.04,4.559 C 88.307,100.015 67.857,85.644 50.014,68.674 29.323,48.998 12.076,25.939 -2.711,1.585 -3.762,-0.146 -1.049,-1.726 0,0"
                 style="fill:#659feb;fill-opacity:1;fill-rule:nonzero;stroke:none"
                 id="path58" /></g><g
               transform="translate(455.9694,131.6891)"
               id="g64"><path
                 d="m 0,0 c 3.88,-20.629 13.055,-40.112 29.305,-53.834 13.533,-11.427 30.402,-18.048 47.706,-21.15 19.525,-3.502 42.442,-4.852 60.685,4.051 22.608,11.033 27.66,36.209 36.463,57.414 10.707,25.795 27.777,53.244 56.126,61.429 1.938,0.56 1.113,3.59 -0.835,3.028 -21.814,-6.299 -36.91,-23.318 -47.849,-42.466 -5.66,-9.906 -10.304,-20.227 -14.218,-30.93 -4.24,-11.594 -8.149,-23.871 -16.019,-33.616 -15.183,-18.801 -40.996,-19.594 -63.169,-17.331 -17.526,1.789 -35.083,6.74 -49.819,16.634 C 18.52,-43.438 7.375,-22.282 3.027,0.835 2.654,2.817 -0.371,1.978 0,0"
                 style="fill:#659feb;fill-opacity:1;fill-rule:nonzero;stroke:none"
                 id="path62" /></g><g
               transform="translate(471.7604,216.8873)"
               id="g68"><path
                 d="m 0,0 c 0.094,-1.219 -1.348,-2.268 -2.479,-1.804 -10.845,32.608 -9.216,67.808 -10.854,102.133 -1.639,34.325 -7.586,70.594 -30.12,96.537 -9.57,11.019 -22.661,19.959 -37.237,20.683 -14.578,0.722 -30.117,-8.885 -32.569,-23.272 -0.94,-5.511 0.012,-11.141 0.421,-16.717 0.737,-10.066 -0.324,-20.259 -3.117,-29.957 -0.915,-3.178 -2.102,-6.441 -4.536,-8.681 -6.491,-5.977 -17.154,-1.526 -25.586,-4.125 -5.753,-1.774 -9.992,-6.773 -12.671,-12.164 -5.114,-10.292 -5.557,-22.507 -2.731,-33.647 2.828,-11.139 8.729,-21.3 15.747,-30.402 C -125.347,32.147 -94.736,13.81 -61.81,8.31"
                 style="fill:#659feb;fill-opacity:1;fill-rule:nonzero;stroke:none"
                 id="path66" /></g><g
               transform="translate(470.2467,217.3043)"
               id="g72"><path
                 d="m 0,0 c -0.322,-0.217 -0.644,-0.435 -0.965,-0.651 0.504,-0.384 1.009,-0.769 1.514,-1.153 -13.403,41.195 -7.474,84.894 -12.975,127.234 -4.338,33.387 -17.403,74.605 -51.003,89.418 -14.13,6.228 -31.173,4.927 -42.358,-6.482 -5.377,-5.483 -7.941,-12.418 -7.927,-20.051 0.009,-5.628 1.004,-11.209 1.046,-16.843 0.045,-6.164 -0.585,-12.343 -1.899,-18.366 -1.064,-4.88 -2.131,-11.07 -6.452,-14.149 -4.289,-3.058 -10.132,-2.138 -15.09,-2.103 -7.844,0.054 -14.22,-2.178 -19.161,-8.531 -11.414,-14.677 -9.275,-35.942 -2.036,-51.88 16.973,-37.368 57.05,-63.211 96.593,-70.064 1.976,-0.343 2.824,2.683 0.834,3.027 -34.747,6.023 -67.075,25.871 -87.045,55.141 -11.077,16.234 -18.34,38.108 -8.955,56.877 2.093,4.185 5.116,8.263 9.358,10.459 4.337,2.245 9.322,1.84 14.04,1.75 6.058,-0.116 12.379,0.378 16.246,5.662 4.803,6.563 5.771,16.762 6.421,24.615 0.39,4.716 0.356,9.447 -0.017,14.162 -0.437,5.525 -1.394,11.217 -0.133,16.705 4.082,17.776 25.426,23.897 40.991,18.854 17.354,-5.622 30.191,-21.105 38.416,-36.742 8.372,-15.917 12.665,-33.722 14.992,-51.459 5.588,-42.621 -0.41,-86.587 13.086,-128.069 0.217,-0.665 0.8,-1.146 1.514,-1.152 2.259,-0.018 3.33,0.851 3.992,2.957 C 3.634,1.098 0.604,1.924 0,0"
                 style="fill:#659feb;fill-opacity:1;fill-rule:nonzero;stroke:none"
                 id="path70" /></g><g
               transform="translate(345.7291,369.9547)"
               id="g76"><path
                 d="m 0,0 c -30.962,2.053 -52.654,-27.737 -49.9,-56.695 3.129,-32.895 29.488,-55.815 58.651,-67.193 1.883,-0.734 2.699,2.3 0.835,3.028 -27.118,10.58 -51.998,31.615 -56.081,61.956 -1.936,14.385 1.47,29.347 11.182,40.389 C -26.397,-8.38 -13.596,-2.238 0,-3.14 2.017,-3.273 2.009,-0.134 0,0"
                 style="fill:#659feb;fill-opacity:1;fill-rule:nonzero;stroke:none"
                 id="path74" /></g><g
               transform="translate(403.443,239.7037)"
               id="g80"><path
                 d="m 0,0 c -18.687,4.807 -49.806,-5.544 -69.091,-6.15 -19.285,-0.607 -39.127,-6.943 -52.35,-20.994 -5.921,-6.291 -10.425,-15.867 -6.13,-23.363 1.578,-2.756 4.159,-4.807 6.904,-6.406 14.791,-8.617 33.464,-5.098 50.188,-8.755 6.981,-1.526 14.492,-5.219 16.372,-12.114 2.369,-8.687 -5.407,-17.939 -2.551,-26.479 1.628,-4.866 6.507,-8.114 11.554,-9.044 5.046,-0.929 10.247,0.102 15.172,1.542 11.458,3.35 22.413,9.072 30.658,17.705 8.244,8.633 13.573,20.357 13.18,32.288 -0.298,9.06 30.901,56.468 27.012,64.664"
                 style="fill:#659feb;fill-opacity:1;fill-rule:nonzero;stroke:none"
                 id="path78" /></g><g
               transform="translate(403.86,241.2174)"
               id="g84"><path
                 d="m 0,0 c -14.852,3.535 -30.92,-0.253 -45.628,-2.869 -7.917,-1.408 -15.836,-2.835 -23.88,-3.226 -8.291,-0.402 -16.47,-1.509 -24.418,-3.984 -14.343,-4.466 -31.448,-14.145 -36.328,-29.392 -5.573,-17.409 14.166,-24.516 27.754,-26.197 13.928,-1.723 51.028,1.78 46.326,-21.569 -1.353,-6.72 -4.995,-13.641 -1.813,-20.428 2.947,-6.286 10.118,-9.095 16.697,-9.063 16.207,0.08 34.636,10.256 44.883,22.476 5.39,6.428 9.353,14.187 10.824,22.482 0.855,4.824 0.321,9.291 2.12,13.891 4.628,11.83 11.448,22.862 17.121,34.204 2.515,5.029 5.015,10.12 6.931,15.414 1.049,2.899 2.671,6.967 1.426,10.058 -0.745,1.85 -3.784,1.042 -3.028,-0.835 0.975,-2.418 -0.486,-5.746 -1.293,-8.023 -1.597,-4.511 -3.697,-8.851 -5.809,-13.14 -4.679,-9.505 -9.844,-18.763 -14.505,-28.277 -1.609,-3.284 -3.247,-6.618 -4.437,-10.084 -1.477,-4.301 -0.869,-8.715 -1.71,-13.167 -3.43,-18.167 -18.504,-31.206 -35.051,-37.672 -8.05,-3.146 -18.797,-6.821 -26.801,-1.792 -8.986,5.645 -4.249,15.064 -2.528,23.122 2.994,14.018 -8.229,20.968 -20.592,23.026 -15.689,2.612 -37.423,-1.235 -50.125,10.497 -8.463,7.819 -2.44,19.212 4.202,25.903 5.706,5.748 12.68,10.117 20.138,13.212 15.632,6.488 32.47,5.708 48.883,8.51 15.963,2.724 33.655,7.74 49.807,3.896 C 1.13,-3.495 1.968,-0.469 0,0"
                 style="fill:#659feb;fill-opacity:1;fill-rule:nonzero;stroke:none"
                 id="path82" /></g><g
               transform="translate(344.088,173.773)"
               id="g88"><path
                 d="m 0,0 c 0.519,-5.688 -1.828,-11.413 -3.78,-16.646 -2.236,-5.998 -4.844,-11.932 -6.332,-18.176 -0.977,-4.098 -1.556,-8.537 0.162,-12.516 2.572,-5.952 7.995,-10.314 13.784,-12.918 27.76,-12.485 59.747,6.838 74.515,30.224 9.974,15.794 14.473,34.324 15.921,52.779 0.158,2.014 -2.982,2.004 -3.14,0 C 88.819,-6.713 77.417,-37.448 50.501,-52.771 38.408,-59.656 23.299,-63.102 9.674,-59.09 c -6.714,1.977 -13.846,6.179 -16.682,12.91 -1.947,4.621 -0.396,9.899 1.033,14.465 C -2.854,-21.738 4.122,-10.775 3.139,0 2.958,1.996 -0.184,2.015 0,0"
                 style="fill:#659feb;fill-opacity:1;fill-rule:nonzero;stroke:none"
                 id="path86" /></g><g
               transform="translate(438.7457,231.6168)"
               id="g92"><path
                 d="m 0,0 c 5.484,-13.764 32.845,-104.453 40.354,-117.226 4.821,-8.195 10.126,-16.256 17.202,-22.607 7.795,-6.998 17.4,-11.622 27.04,-15.721 13.654,-5.805 29.829,-10.628 42.779,-3.386 11.173,6.247 16.33,20.072 15.849,32.863 -0.483,12.791 -17.841,117.775 -22.871,129.546"
                 style="fill:#659feb;fill-opacity:1;fill-rule:nonzero;stroke:none"
                 id="path90" /></g><g
               transform="translate(437.2321,231.1998)"
               id="g96"><path
                 d="m 0,0 c 8.611,-21.847 14.757,-44.839 22.084,-67.137 7.791,-23.713 14.102,-49.584 31.158,-68.642 7.293,-8.15 16.609,-13.73 26.47,-18.246 9.174,-4.204 18.772,-8.181 28.87,-9.374 19.577,-2.315 34.448,10.226 37.252,29.449 1.262,8.647 -0.437,17.402 -1.664,25.962 -1.822,12.703 -3.863,25.377 -5.979,38.035 -2.611,15.628 -5.342,31.24 -8.381,46.791 -1.754,8.978 -2.909,18.948 -6.43,27.465 -0.761,1.841 -3.8,1.034 -3.027,-0.835 2.69,-6.506 3.709,-13.973 5.106,-20.827 2.507,-12.286 4.738,-24.627 6.895,-36.979 3.917,-22.43 8.13,-45.005 10.508,-67.663 1.619,-15.434 -4.552,-33.438 -21.11,-37.665 -10.744,-2.742 -22.183,0.789 -32.151,4.773 -10.646,4.255 -21.538,9.299 -30.038,17.156 -18.733,17.318 -25.141,43.269 -32.86,66.603 C 18.801,-47.245 12.258,-22.585 3.027,0.835 2.295,2.692 -0.742,1.884 0,0"
                 style="fill:#659feb;fill-opacity:1;fill-rule:nonzero;stroke:none"
                 id="path94" /></g><g
               transform="translate(543.3678,266.6246)"
               id="g100"><path
                 d="m 0,0 c 6.732,12.458 13.533,25.091 16.866,38.854 3.333,13.763 2.859,29.017 -4.374,41.192 -1.445,2.433 -3.22,4.787 -5.693,6.163 -2.474,1.375 -5.778,1.56 -8.011,-0.18 -1.82,-1.419 -2.599,-3.763 -3.283,-5.968 -1.71,-5.507 -3.419,-11.013 -5.128,-16.52 -0.349,-1.123 -0.726,-2.294 -1.559,-3.125 -1.922,-1.917 -5.307,-1.083 -7.366,0.688 -2.058,1.77 -3.404,4.256 -5.469,6.02 -5.389,4.601 -14.304,2.595 -18.959,-2.748 -4.654,-5.343 7.604,-95.52 7.865,-102.601"
                 style="fill:#659feb;fill-opacity:1;fill-rule:nonzero;stroke:none"
                 id="path98" /></g><g
               transform="translate(544.7233,265.8326)"
               id="g104"><path
                 d="m 0,0 c 12.38,22.919 26.224,50.347 15.046,76.555 -2.027,4.752 -4.994,10.391 -10.108,12.386 -3.763,1.468 -7.904,0.536 -10.22,-2.844 -3.681,-5.368 -4.662,-13.384 -6.641,-19.511 -0.245,-0.76 -0.41,-2.118 -0.921,-2.745 -0.85,-1.045 -3.48,-1.89 -5.14,-1.389 -1.568,0.472 -3.016,3.003 -4.054,4.203 -1.642,1.899 -3.311,3.508 -5.679,4.442 -5.804,2.287 -16.318,0.039 -18.607,-6.558 -1.376,-3.965 -0.665,-9.238 -0.505,-13.321 0.64,-16.292 2.519,-32.558 4.319,-48.754 1.469,-13.22 3.871,-26.599 4.474,-39.897 0.091,-2.011 3.23,-2.022 3.139,0 -0.422,9.311 -2.049,18.672 -3.116,27.923 -1.747,15.154 -3.453,30.32 -4.695,45.525 -0.51,6.244 -0.98,12.507 -1.087,18.774 -0.047,2.735 -0.643,6.934 0.721,9.456 3.263,6.04 13.676,5.62 17.756,1.428 2.973,-3.056 5.498,-7.598 10.474,-7.102 10.624,1.059 6.477,33.73 19.495,27.075 6.06,-3.098 8.873,-12.628 10.176,-18.786 1.58,-7.466 1.393,-15.308 0.02,-22.788 C 12.052,28.848 4.566,15.058 -2.711,1.584 -3.671,-0.193 -0.962,-1.78 0,0"
                 style="fill:#659feb;fill-opacity:1;fill-rule:nonzero;stroke:none"
                 id="path102" /></g></g></g></g><g
         id="g110"
         transform="translate(263.4098,335.4537)"><path
           d="m 0,0 c 35.67,-28.347 96.867,16.345 96.867,16.345 l 12.566,10.84 c 15.233,6.762 20.259,12.063 20.259,12.063 l -9.897,-4.553 11.81,9.332 c 0.314,0.256 -1.069,0.067 -1.427,-0.119 l -11.051,-5.749 11.37,10.106 c 0.256,0.227 -0.029,0.631 -0.329,0.464 l -13.56,-7.486 c 0,0 10.689,9.888 8.992,9.62 -1.699,-0.266 -15.761,-10.076 -15.761,-10.076 0,0 5.807,9.442 4.051,8.934 -1.141,-0.33 -5.598,-6.035 -8.583,-9.994 -1.923,-2.55 -1.385,-3.418 -4.17,-5.046 L 80.897,22.692 C 63.912,12.274 33.772,4.339 11.118,23.062 c 0,0 -8.647,4.546 -16.084,-4.602 C -12.402,9.311 0,0 0,0"
           style="fill:#ffa47a;fill-opacity:1;fill-rule:nonzero;stroke:none"
           id="path112" /></g><g
         id="g114"
         transform="translate(263.4098,335.4537)"><path
           d="m 0,0 c 35.67,-28.347 96.867,16.345 96.867,16.345 l 12.566,10.84 c 15.233,6.762 20.259,12.063 20.259,12.063 l -9.897,-4.553 11.81,9.332 c 0.314,0.256 -1.069,0.067 -1.427,-0.119 l -11.051,-5.749 11.37,10.106 c 0.256,0.227 -0.029,0.631 -0.329,0.464 l -13.56,-7.486 c 0,0 10.689,9.888 8.992,9.62 -1.699,-0.266 -15.761,-10.076 -15.761,-10.076 0,0 5.807,9.442 4.051,8.934 -1.141,-0.33 -5.598,-6.035 -8.583,-9.994 -1.923,-2.55 -1.385,-3.418 -4.17,-5.046 L 80.897,22.692 C 63.912,12.274 33.772,4.339 11.118,23.062 c 0,0 -8.647,4.546 -16.084,-4.602 C -12.402,9.311 0,0 0,0 Z"
           style="fill:none;stroke:#ffa47a;stroke-width:1.476;stroke-linecap:round;stroke-linejoin:round;stroke-miterlimit:10;stroke-dasharray:none;stroke-opacity:1"
           id="path116" /></g><g
         id="g118"
         transform="translate(315.6696,348.5006)"><path
           d="m 0,0 c -13.586,-1.837 -24.357,2.28 -41.142,10.015 0,0 -8.647,4.547 -16.084,-4.602 -7.436,-9.149 4.966,-18.46 4.966,-18.46 12,-9.536 19.942,-14.114 34.418,-11.6 z"
           style="fill:#ff7f4d;fill-opacity:1;fill-rule:nonzero;stroke:none"
           id="path120" /></g><g
         id="g122"
         transform="translate(315.6696,348.5006)"><path
           d="m 0,0 c -13.586,-1.837 -24.357,2.28 -41.142,10.015 0,0 -8.647,4.547 -16.084,-4.602 -7.436,-9.149 4.966,-18.46 4.966,-18.46 12,-9.536 19.942,-14.114 34.418,-11.6 z"
           style="fill:none;stroke:#ff7f4d;stroke-width:0.595;stroke-linecap:butt;stroke-linejoin:miter;stroke-miterlimit:10;stroke-dasharray:none;stroke-opacity:1"
           id="path124" /></g><g
         id="g126"
         transform="translate(316.4532,348.5719)"><path
           d="m 0,0 -7.189,-21.373 c 0,0 -5.527,-1.237 -8.999,-1.277 z"
           style="fill:#cf5540;fill-opacity:1;fill-rule:nonzero;stroke:none"
           id="path128" /></g><g
         id="g130"
         transform="translate(365.6422,371.8102)"><path
           d="m 0,0 c 0.599,-0.958 1.064,-2.529 0.416,-2.935 -0.648,-0.405 -2.164,0.508 -2.764,1.467"
           style="fill:#cf5540;fill-opacity:1;fill-rule:nonzero;stroke:none"
           id="path132" /></g><g
         id="g134"
         transform="translate(375.5299,378.7096)"><path
           d="M 0,0 C 0,0 -1.601,-4.56 -1.586,-4.426 L 4.772,3.143 Z"
           style="fill:#cf5540;fill-opacity:1;fill-rule:nonzero;stroke:none"
           id="path136" /></g><g
         id="g138"
         transform="translate(253.7335,443.2516)"><path
           d="m 0,0 c 10.605,-3.307 37.086,-39.072 37.086,-39.072 3.708,-3.156 7.987,-9.64 9.186,-15.826 0.438,-2.26 -1.089,-8.914 -2.887,-10.308 L 8.112,-93.855 c 0,0 -28.39,10.062 -21.543,31.972 6.847,21.909 12.644,17.231 9.271,29.777 C -7.533,-19.562 0,0 0,0"
           style="fill:#00043b;fill-opacity:1;fill-rule:nonzero;stroke:none"
           id="path140" /></g><g
         id="g142"
         transform="translate(298.4518,390.817)"><path
           d="m 0,0 c -2.359,6.242 -4.677,12.523 -8.161,18.246 -3.314,5.444 -7.395,10.517 -11.379,15.487 -6.238,7.784 -14.049,13.708 -21.708,20.019 -0.63,0.519 -1.541,-0.38 -0.904,-0.904 7.086,-5.839 14.523,-11.339 20.422,-18.438 4.096,-4.929 8.172,-10.1 11.64,-15.493 C -6.235,12.922 -3.741,6.296 -1.233,-0.34 -0.945,-1.103 0.292,-0.772 0,0"
           style="fill:#00043b;fill-opacity:1;fill-rule:nonzero;stroke:none"
           id="path144" /></g><g
         id="g146"
         transform="translate(275.254,386.8062)"><path
           d="m 0,0 c -0.21,-0.22 -0.539,-0.221 -0.729,0.001 -0.791,0.929 -2.93,2.895 -5.549,0.863 -2.649,-2.054 0.211,-5.663 0.984,-7.353 1.129,-2.47 1.964,-9.985 -0.649,-16.148 -1.888,-4.454 -9.535,-12.352 -9.535,-12.352 0,0 10.463,-11.702 18.128,-6.586 0,0 0.76,16.487 3.285,19.746 0.054,0.07 6.564,-3.837 13.94,7.223 6.952,10.421 0.07,16.934 -1.597,18.271 C 16.872,4.793 10.431,10.917 0,0"
           style="fill:#ffa47a;fill-opacity:1;fill-rule:nonzero;stroke:none"
           id="path148" /></g><g
         id="g150"
         transform="translate(278.4572,351.9059)"><path
           d="m 0,0 c -0.253,-0.019 -10.741,-5.144 -10.741,-5.144 0,0 4.838,-4.921 10.188,-1.531 z"
           style="fill:#cf5540;fill-opacity:1;fill-rule:nonzero;stroke:none"
           id="path152" /></g><g
         id="g154"
         transform="translate(292.7418,369.6002)"><path
           d="m 0,0 -5.866,3.276 c 0,0 -0.108,-3.636 1.756,-4.288 C -2.246,-1.663 0,0 0,0"
           style="fill:#ffffff;fill-opacity:1;fill-rule:nonzero;stroke:none"
           id="path156" /></g><g
         id="g158"
         transform="translate(273.5612,385.3082)"><path
           d="m 0,0 c -0.778,0.793 -2.271,1.17 -3.063,0.392 -0.793,-0.779 -0.586,-2.416 0.191,-3.209"
           style="fill:#cf5540;fill-opacity:1;fill-rule:nonzero;stroke:none"
           id="path160" /></g><g
         id="g162"
         transform="translate(292.4752,374.6666)"><path
           d="m 0,0 -1.967,-2.783 1.619,-0.718 c 0.299,-0.133 0.63,0.104 0.603,0.429 z"
           style="fill:#cf5540;fill-opacity:1;fill-rule:nonzero;stroke:none"
           id="path164" /></g><g
         id="g166"
         transform="translate(298.2477,385.4068)"><path
           d="M 0,0 C 0,0 -16.967,-3.593 -23.722,1.4 -30.477,6.394 -13.063,19.479 -6.57,11.721 -0.077,3.962 0,0 0,0"
           style="fill:#00043b;fill-opacity:1;fill-rule:nonzero;stroke:none"
           id="path168" /></g><g
         id="g170"
         transform="translate(281.2355,364.9557)"><path
           d="m 0,0 c 0,0 -3.804,1.771 -5.924,6.048 -1.186,2.393 -1.182,-9.222 4.044,-11.957 0,0 0.933,3.148 1.88,5.909"
           style="fill:#cf5540;fill-opacity:1;fill-rule:nonzero;stroke:none"
           id="path172" /></g><g
         id="g174"
         transform="translate(290.2281,381.2213)"><path
           d="m 0,0 c -0.741,-0.086 0.995,1.151 1.834,0.95 0.84,-0.2 1.38,-0.951 1.208,-1.676 0,0 -1.263,0.935 -3.042,0.726"
           style="fill:#00043b;fill-opacity:1;fill-rule:nonzero;stroke:none"
           id="path176" /></g><g
         id="g178"
         transform="translate(298.0016,378.7994)"><path
           d="m 0,0 c -0.652,0.566 -1.626,0.588 -2.116,0.024 0,0 0.978,-0.315 1.81,-1.266"
           style="fill:#00043b;fill-opacity:1;fill-rule:nonzero;stroke:none"
           id="path180" /></g><g
         id="g182"
         transform="translate(290.1495,376.4752)"><path
           d="M 0,0 C -0.261,-0.541 -0.26,-1.082 0.002,-1.209 0.265,-1.336 0.689,-1 0.951,-0.458 1.211,0.083 1.21,0.625 0.948,0.751 0.686,0.878 0.261,0.542 0,0"
           style="fill:#00043b;fill-opacity:1;fill-rule:nonzero;stroke:none"
           id="path184" /></g><g
         id="g186"
         transform="translate(293.8766,374.6685)"><path
           d="m 0,0 c -0.25,-0.518 -0.249,-1.034 0.002,-1.155 0.251,-0.121 0.656,0.2 0.906,0.717 C 1.157,0.079 1.156,0.596 0.905,0.717 0.655,0.838 0.25,0.517 0,0"
           style="fill:#00043b;fill-opacity:1;fill-rule:nonzero;stroke:none"
           id="path188" /></g><g
         id="g190"><g
           id="g192" /><g
           id="g208"><g
             clip-path="url(#clipPath196)"
             opacity="0.369995"
             id="g206"><g
               transform="translate(279.6852,376.1685)"
               id="g200"><path
                 d="M 0,0 C -0.537,-1.722 0.423,-3.552 2.145,-4.089 3.866,-4.625 5.697,-3.665 6.233,-1.943 6.77,-0.223 5.81,1.608 4.088,2.145 2.367,2.682 0.537,1.722 0,0"
                 style="fill:#e8632e;fill-opacity:1;fill-rule:nonzero;stroke:none"
                 id="path198" /></g><g
               transform="translate(279.6852,376.1685)"
               id="g204"><path
                 d="M 0,0 C -0.537,-1.722 0.423,-3.552 2.145,-4.089 3.866,-4.625 5.697,-3.665 6.233,-1.943 6.77,-0.223 5.81,1.608 4.088,2.145 2.367,2.682 0.537,1.722 0,0 Z"
                 style="fill:none;stroke:#e8632e;stroke-width:0.318;stroke-linecap:butt;stroke-linejoin:miter;stroke-miterlimit:10;stroke-dasharray:none;stroke-opacity:1"
                 id="path202" /></g></g></g></g><g
         id="g210"
         transform="translate(271.9659,390.4781)"><path
           d="m 0,0 c 3.61,-4.108 6.71,-8.694 12.726,-8.638 5.331,0.05 11.002,2 15.038,5.451 0.513,0.438 -0.23,1.175 -0.739,0.74 C 23.265,-5.662 17.723,-7.542 12.726,-7.592 7.1,-7.647 4.083,-3.066 0.739,0.74 0.294,1.246 -0.443,0.505 0,0"
           style="fill:#00043b;fill-opacity:1;fill-rule:nonzero;stroke:none"
           id="path212" /></g><g
         id="g214"
         transform="translate(123.8224,338.526)"><path
           d="m 0,0 c -1.197,7.901 -1.901,27.424 -1.901,27.424 l -33.825,-1.83 c 4.305,-2.082 19.421,-11.48 19.421,-11.48 l 2.671,-15.054 c 0,0 13.646,1.08 13.634,0.94"
           style="fill:#ffa47a;fill-opacity:1;fill-rule:nonzero;stroke:none"
           id="path216" /></g><g
         id="g218"
         transform="translate(107.4259,352.6578)"><path
           d="m 0,0 -19.782,11.063 c -0.894,0.488 -0.674,1.844 0.328,1.999 8.201,1.265 30.32,4.529 36.139,5.367 0.706,0.102 1.303,-0.515 1.19,-1.229 C 17.253,13.261 16.411,2.326 15.864,-0.875 15.777,-1.383 9.292,6.695 7.024,5.385 5.073,4.258 0.172,0.051 0,0"
           style="fill:#659feb;fill-opacity:1;fill-rule:nonzero;stroke:none"
           id="path220" /></g><g
         id="g222"
         transform="translate(107.4259,352.6578)"><path
           d="m 0,0 -19.782,11.063 c -0.894,0.488 -0.674,1.844 0.328,1.999 8.201,1.265 30.32,4.529 36.139,5.367 0.706,0.102 1.303,-0.515 1.19,-1.229 C 17.253,13.261 16.411,2.326 15.864,-0.875 15.777,-1.383 9.292,6.695 7.024,5.385 5.073,4.258 0.172,0.051 0,0 Z"
           style="fill:none;stroke:#659feb;stroke-width:0.318;stroke-linecap:butt;stroke-linejoin:miter;stroke-miterlimit:10;stroke-dasharray:none;stroke-opacity:1"
           id="path224" /></g><g
         id="g226"
         transform="translate(106.2594,353.2232)"><path
           d="m 0,0 3.116,4.187 c 0.74,0.994 0.534,2.4 -0.461,3.14 L 2.651,7.33 C 1.657,8.07 0.251,7.864 -0.489,6.87 L -3.987,2.171"
           style="fill:none;stroke:#f8f1ee;stroke-width:0.724;stroke-linecap:butt;stroke-linejoin:miter;stroke-miterlimit:10;stroke-dasharray:none;stroke-opacity:1"
           id="path228" /></g><g
         id="g230"
         transform="translate(117.6305,347.6978)"><path
           d="M 0,0 C 0.211,-4.729 0.52,-9.449 0.52,-9.449 L 6.419,-9.17 5.659,4.085 c 0,0 -4.833,5.467 -5.602,5.408 C -0.327,9.464 -0.212,4.729 0,0"
           style="fill:#cf5540;fill-opacity:1;fill-rule:nonzero;stroke:none"
           id="path232" /></g><g
         id="g234"
         transform="translate(99.5744,275.0494)"><path
           d="m 0,0 c -5.25,5.221 -10.436,21.123 -10.436,21.123 0,0 -35.889,-10.65 -35.566,-10.756 0.322,-0.106 21.774,-8.138 21.774,-8.138 l 13.135,-9.846 c 0,0 9.943,7.037 11.093,7.617"
           style="fill:#ffa47a;fill-opacity:1;fill-rule:nonzero;stroke:none"
           id="path236" /></g><g
         id="g238"
         transform="translate(99.5744,275.0494)"><path
           d="m 0,0 c -5.25,5.221 -10.436,21.123 -10.436,21.123 0,0 -35.889,-10.65 -35.566,-10.756 0.322,-0.106 21.774,-8.138 21.774,-8.138 l 13.135,-9.846 c 0,0 9.943,7.037 11.093,7.617 z"
           style="fill:none;stroke:#ffa47a;stroke-width:1.303;stroke-linecap:butt;stroke-linejoin:miter;stroke-miterlimit:10;stroke-dasharray:none;stroke-opacity:1"
           id="path240" /></g><g
         id="g242"
         transform="translate(74.7199,276.7135)"><path
           d="m 0,0 -21.314,7.946 c -0.955,0.357 -0.929,1.73 0.04,2.026 7.938,2.418 29.368,8.793 35.009,10.45 0.684,0.201 1.927,-0.901 2.136,-1.592 C 17.17,14.529 19.673,7.696 20.859,5.457 21.101,5.002 8.085,7.756 6.027,6.137 4.255,4.743 0.602,-0.343 0,0"
           style="fill:#659feb;fill-opacity:1;fill-rule:nonzero;stroke:none"
           id="path244" /></g><g
         id="g246"
         transform="translate(74.7199,276.7135)"><path
           d="m 0,0 -21.314,7.946 c -0.955,0.357 -0.929,1.73 0.04,2.026 7.938,2.418 29.368,8.793 35.009,10.45 0.684,0.201 1.927,-0.901 2.136,-1.592 C 17.17,14.529 19.673,7.696 20.859,5.457 21.101,5.002 8.085,7.756 6.027,6.137 4.255,4.743 0.602,-0.343 0,0 Z"
           style="fill:none;stroke:#659feb;stroke-width:0.318;stroke-linecap:butt;stroke-linejoin:miter;stroke-miterlimit:10;stroke-dasharray:none;stroke-opacity:1"
           id="path248" /></g><g
         id="g250"
         transform="translate(73.0172,277.6646)"><path
           d="M 0,0 2.132,5.329 C 2.596,6.479 2.04,7.786 0.89,8.25 L 0.885,8.252 C -0.265,8.715 -1.573,8.159 -2.036,7.009 L -4.227,1.576"
           style="fill:none;stroke:#f8f1ee;stroke-width:0.724;stroke-linecap:butt;stroke-linejoin:miter;stroke-miterlimit:10;stroke-dasharray:none;stroke-opacity:1"
           id="path252" /></g><g
         id="g254"
         transform="translate(91.5514,268.7867)"><path
           d="M 0,0 -13.703,11.064 -16.832,7.927 -2.865,-2.191 Z"
           style="fill:#cf5540;fill-opacity:1;fill-rule:nonzero;stroke:none"
           id="path256" /></g><g
         id="g258"
         transform="translate(232.1071,301.1744)"><path
           d="m 0,0 c 4.336,-1.661 7.454,-5.29 9.015,-12.737 1.562,-7.449 8.965,4.638 8.786,-2.84 -2.91,-1.616 -18.754,-22.039 -24.228,-24.313 -24.271,-10.083 -42.745,-14.417 -66.362,-9.646 -23.096,4.666 -36.277,31.018 -42.997,48.446 -5.294,13.73 -5.208,24.94 -7.623,38.946 0.701,1.625 14.367,2.003 15.111,1.372 9.311,-28.886 22.21,-44.968 39.747,-48.296 16.388,-3.11 28.03,-0.553 39.968,3.288 0,0 13.404,11.596 28.583,5.78"
           style="fill:#365185;fill-opacity:1;fill-rule:nonzero;stroke:none"
           id="path260" /></g><g
         id="g262"
         transform="translate(232.1071,301.1744)"><path
           d="m 0,0 c 4.336,-1.661 7.454,-5.29 9.015,-12.737 1.562,-7.449 8.965,4.638 8.786,-2.84 -2.91,-1.616 -18.754,-22.039 -24.228,-24.313 -24.271,-10.083 -42.745,-14.417 -66.362,-9.646 -23.096,4.666 -36.277,31.018 -42.997,48.446 -5.294,13.73 -5.208,24.94 -7.623,38.946 0.701,1.625 14.367,2.003 15.111,1.372 9.311,-28.886 22.21,-44.968 39.747,-48.296 16.388,-3.11 28.03,-0.553 39.968,3.288 0,0 13.404,11.596 28.583,5.78 z"
           style="fill:none;stroke:#365185;stroke-width:0.302;stroke-linecap:butt;stroke-linejoin:miter;stroke-miterlimit:10;stroke-dasharray:none;stroke-opacity:1"
           id="path264" /></g><g
         id="g266"><g
           id="g268" /><g
           id="g280"><g
             clip-path="url(#clipPath272)"
             opacity="0.429993"
             id="g278"><g
               transform="translate(163.5563,292.106)"
               id="g276"><path
                 d="m 0,0 c 16.388,-3.109 28.029,-0.553 39.968,3.288 0,0 13.404,11.597 28.583,5.78 4.336,-1.661 7.453,-5.29 9.015,-12.737 1.561,-7.448 8.529,3.855 8.35,-3.623 -2.911,-1.616 -18.318,-21.256 -23.792,-23.529"
                 style="fill:#365185;fill-opacity:1;fill-rule:nonzero;stroke:none"
                 id="path274" /></g></g></g></g><g
         id="g282"
         transform="translate(248.4918,288.3844)"><path
           d="M 0,0 C -7.594,7.026 -22.041,18.178 -23.263,17.404 -36.312,15.837 -49.005,5.643 -54.862,-5.539 c -1.126,-2.15 -2.498,-4.156 -4.119,-5.962 -7.371,-8.215 -15.659,-15.351 -29.474,-20.663 -16.661,-6.406 -36.969,-0.609 -60.096,19.044 -2.552,-2.703 -11.514,-6.918 -11.255,-8.669 9.43,-10.636 15.264,-19.582 26.994,-28.466 14.891,-11.277 39.973,-26.738 62.064,-18.543 19.894,7.381 36.24,19.441 49.475,36.612 z"
           style="fill:#4465a6;fill-opacity:1;fill-rule:nonzero;stroke:none"
           id="path284" /></g><g
         id="g286"
         transform="translate(248.4918,288.3844)"><path
           d="M 0,0 C -7.594,7.026 -22.041,18.178 -23.263,17.404 -36.312,15.837 -49.005,5.643 -54.862,-5.539 c -1.126,-2.15 -2.498,-4.156 -4.119,-5.962 -7.371,-8.215 -15.659,-15.351 -29.474,-20.663 -16.661,-6.406 -36.969,-0.609 -60.096,19.044 -2.552,-2.703 -11.514,-6.918 -11.255,-8.669 9.43,-10.636 15.264,-19.582 26.994,-28.466 14.891,-11.277 39.973,-26.738 62.064,-18.543 19.894,7.381 36.24,19.441 49.475,36.612 z"
           style="fill:none;stroke:#4465a6;stroke-width:0.302;stroke-linecap:butt;stroke-linejoin:miter;stroke-miterlimit:10;stroke-dasharray:none;stroke-opacity:1"
           id="path288" /></g><g
         id="g290"><g
           id="g292" /><g
           id="g304"><g
             clip-path="url(#clipPath296)"
             opacity="0.5"
             id="g302"><g
               transform="translate(224.4909,252.9312)"
               id="g300"><path
                 d="m 0,0 c 0,0 -66.481,-64.896 -134.868,14.345 0,0 15.855,-27.439 48.417,-42.578 C -84.84,-27.118 -51.017,-56.417 0,0"
                 style="fill:#4465a6;fill-opacity:1;fill-rule:nonzero;stroke:none"
                 id="path298" /></g></g></g></g><g
         id="g306"
         transform="translate(278.3815,350.4947)"><path
           d="m 0,0 c 0.477,-0.908 3.729,-24.477 -0.849,-32.412 -3.069,-5.321 -20.368,-21.179 -28.108,-30.903 0,0 -15.695,9.745 -24.486,18.181 2.449,9.185 10.722,44.794 27.618,54.158 0,0 7.598,-1.71 10.52,-2.939 0,0 9.192,-15.568 15.305,-6.085"
           style="fill:#ffa47a;fill-opacity:1;fill-rule:nonzero;stroke:none"
           id="path308" /></g><g
         id="g310"
         transform="translate(278.3815,350.4947)"><path
           d="m 0,0 c 0.477,-0.908 3.729,-24.477 -0.849,-32.412 -3.069,-5.321 -20.368,-21.179 -28.108,-30.903 0,0 -15.695,9.745 -24.486,18.181 2.449,9.185 10.722,44.794 27.618,54.158 0,0 7.598,-1.71 10.52,-2.939 0,0 9.192,-15.568 15.305,-6.085 z"
           style="fill:none;stroke:#ffa47a;stroke-width:1.476;stroke-linecap:round;stroke-linejoin:round;stroke-miterlimit:10;stroke-dasharray:none;stroke-opacity:1"
           id="path312" /></g><g
         id="g314"
         transform="translate(225.6559,310.6432)"><path
           d="M 0,0 -0.709,-2.801 18.39,-19.562 Z"
           style="fill:#cf5540;fill-opacity:1;fill-rule:nonzero;stroke:none"
           id="path316" /></g><g
         id="g318"
         transform="translate(278.3815,350.4947)"><path
           d="m 0,0 c 0.477,-0.908 3.729,-24.477 -0.849,-32.412 -3.069,-5.321 -20.368,-21.179 -28.108,-30.903 0,0 -4.817,3.208 -26.23,27.177 2.449,9.185 12.466,35.798 29.362,45.162 0,0 7.598,-1.71 10.52,-2.939 0,0 9.192,-15.568 15.305,-6.085"
           style="fill:#f8f1ee;fill-opacity:1;fill-rule:nonzero;stroke:none"
           id="path320" /></g><g
         id="g322"
         transform="translate(278.3815,350.4947)"><path
           d="m 0,0 c 0.477,-0.908 3.729,-24.477 -0.849,-32.412 -3.069,-5.321 -20.368,-21.179 -28.108,-30.903 0,0 -4.817,3.208 -26.23,27.177 2.449,9.185 12.466,35.798 29.362,45.162 0,0 7.598,-1.71 10.52,-2.939 0,0 9.192,-15.568 15.305,-6.085 z"
           style="fill:none;stroke:#f8f1ee;stroke-width:1.476;stroke-linecap:butt;stroke-linejoin:miter;stroke-miterlimit:10;stroke-dasharray:none;stroke-opacity:1"
           id="path324" /></g><g
         id="g326"><g
           id="g328" /><g
           id="g340"><g
             clip-path="url(#clipPath332)"
             id="g338"><g
               transform="translate(249.4245,287.1793)"
               id="g336"><path
                 d="m 0,0 c 0,0 -4.817,3.208 -26.23,27.178 2.449,9.184 12.466,35.798 29.362,45.162 0,0 7.598,-1.71 10.52,-2.94"
                 style="fill:#f8f1ee;fill-opacity:1;fill-rule:nonzero;stroke:#f8f1ee;stroke-width:1.476;stroke-linecap:round;stroke-linejoin:round;stroke-miterlimit:10;stroke-dasharray:none;stroke-opacity:1"
                 id="path334" /></g></g></g></g><g
         id="g342"
         transform="translate(428.6666,134.5396)"><path
           d="m 0,0 139.408,-60.07 c 5.682,-2.406 12.262,-0.106 15.208,5.315 l 89.293,166.781 c 3.539,6.51 3.378,13.937 -3.626,16.357 0,0 -30.324,27.498 -83.715,42.97 -15.47,4.483 -65.637,8.869 -65.637,8.869 z"
           style="fill:none;stroke:#f8f1ee;stroke-width:1.061;stroke-linecap:round;stroke-linejoin:round;stroke-miterlimit:10;stroke-dasharray:none;stroke-opacity:1"
           id="path344" /></g><g
         id="g346"
         transform="translate(434.9108,131.9771)"><path
           d="m 0,0 -131.676,76.931 c -5.292,3.178 -7.309,9.855 -4.66,15.432 l 78.629,168.088 c 3.181,6.697 10.737,7.249 17.698,4.696 21.943,-8.046 41.445,-3.921 85.414,-37.993 12.741,-9.872 45.845,-47.867 45.845,-47.867 z"
           style="fill:none;stroke:#f8f1ee;stroke-width:1.061;stroke-linecap:round;stroke-linejoin:round;stroke-miterlimit:10;stroke-dasharray:none;stroke-opacity:1"
           id="path348" /></g><g
         id="g350"
         transform="translate(664.569,260.4732)"><path
           d="m 0,0 c 0,0 -29.168,26.45 -80.522,41.332 -14.243,4.127 -59.051,8.168 -62.87,8.508 -4.096,4.679 -32.206,36.628 -43.546,45.416 -42.265,32.749 -61.011,28.784 -82.102,36.518 -6.69,2.455 -13.954,1.924 -17.011,-4.514 L -361.63,-34.308 c -2.546,-5.36 -0.608,-11.778 4.479,-14.834 l 126.308,-73.794 0.167,-0.015 133.648,-58.316 c 5.465,-2.313 11.793,-0.101 14.628,5.113 L 3.488,-15.732 C 6.892,-9.472 6.736,-2.327 0,0"
           style="fill:#2e4470;fill-opacity:1;fill-rule:nonzero;stroke:none"
           id="path352" /></g><g
         id="g354"
         transform="translate(664.569,260.4732)"><path
           d="m 0,0 c 0,0 -29.168,26.45 -80.522,41.332 -14.243,4.127 -59.051,8.168 -62.87,8.508 -4.096,4.679 -32.206,36.628 -43.546,45.416 -42.265,32.749 -61.011,28.784 -82.102,36.518 -6.69,2.455 -13.954,1.924 -17.011,-4.514 L -361.63,-34.308 c -2.546,-5.36 -0.608,-11.778 4.479,-14.834 l 126.308,-73.794 0.167,-0.015 133.648,-58.316 c 5.465,-2.313 11.793,-0.101 14.628,5.113 L 3.488,-15.732 C 6.892,-9.472 6.736,-2.327 0,0 Z"
           style="fill:none;stroke:#2e4470;stroke-width:0.302;stroke-linecap:butt;stroke-linejoin:miter;stroke-miterlimit:10;stroke-dasharray:none;stroke-opacity:1"
           id="path356" /></g><g
         id="g358"
         transform="translate(426.1061,141.2672)"><path
           d="m 0,0 14.375,-7.502 89.151,175.53 c 0,0 -7.654,0.011 -14.548,6.577 z"
           style="fill:#1d2b47;fill-opacity:1;fill-rule:nonzero;stroke:none"
           id="path360" /></g><g
         id="g362"
         transform="translate(426.1061,141.2672)"><path
           d="m 0,0 14.375,-7.502 89.151,175.53 c 0,0 -7.654,0.011 -14.548,6.577 z"
           style="fill:none;stroke:#1d2b47;stroke-width:0.302;stroke-linecap:butt;stroke-linejoin:miter;stroke-miterlimit:10;stroke-dasharray:none;stroke-opacity:1"
           id="path364" /></g><g
         id="g366"
         transform="translate(654.8717,254.2584)"><path
           d="m 0,0 c 0,0 -60.169,43.445 -135.784,51.986 -51.39,55.795 -121.588,78.741 -121.588,78.741 L -341.308,-32.39 c 16.786,-4.528 108.496,-66.71 122.187,-77.748 l -0.15,-0.295 c 0.165,-0.013 0.375,-0.043 0.609,-0.079 0.544,-0.452 0.93,-0.8 1.12,-1.018 l 0.378,0.734 c 13.256,-2.814 74.122,-21.395 134.731,-53.085 z"
           style="fill:#cfb2a3;fill-opacity:1;fill-rule:nonzero;stroke:none"
           id="path368" /></g><g
         id="g370"
         transform="translate(477.0807,339.3355)"><path
           d="m 0,0 c 0,0 8.058,23.732 24.782,30.675 0.951,0.394 2.018,-0.238 2.113,-1.264 l 0.489,-5.335 6.312,-0.852 c 1.267,-0.171 1.774,-1.729 0.84,-2.602 C 28.319,14.798 11.779,-2.266 12.248,-8.592 Z"
           style="fill:#ff7f4d;fill-opacity:1;fill-rule:nonzero;stroke:none"
           id="path372" /></g><g
         id="g374"
         transform="translate(477.0807,339.3355)"><path
           d="m 0,0 c 0,0 8.058,23.732 24.782,30.675 0.951,0.394 2.018,-0.238 2.113,-1.264 l 0.489,-5.335 6.312,-0.852 c 1.267,-0.171 1.774,-1.729 0.84,-2.602 C 28.319,14.798 11.779,-2.266 12.248,-8.592 Z"
           style="fill:none;stroke:#ff7f4d;stroke-width:0.595;stroke-linecap:butt;stroke-linejoin:miter;stroke-miterlimit:10;stroke-dasharray:none;stroke-opacity:1"
           id="path376" /></g><g
         id="g378"><g
           id="g380" /><g
           id="g396"><g
             clip-path="url(#clipPath384)"
             opacity="0.759995"
             id="g394"><g
               transform="translate(481.028,339.274)"
               id="g388"><path
                 d="m 0,0 c 1.255,3.354 2.34,6.603 4.276,9.66 2.019,3.186 4.482,6.053 6.954,8.888 0.972,1.114 -0.653,2.753 -1.63,1.632 C 7,17.198 4.408,14.172 2.285,10.824 0.225,7.575 -0.89,4.18 -2.225,0.613 -2.745,-0.779 -0.517,-1.38 0,0"
                 style="fill:#f2fcf9;fill-opacity:1;fill-rule:nonzero;stroke:none"
                 id="path386" /></g><g
               transform="translate(495.6442,361.857)"
               id="g392"><path
                 d="m 0,0 c 0.894,0.757 1.788,1.514 2.682,2.271 0.476,0.402 0.415,1.215 0,1.63 -0.471,0.471 -1.154,0.404 -1.631,0 C 0.157,3.145 -0.737,2.388 -1.631,1.631 -2.107,1.229 -2.046,0.415 -1.631,0 -1.16,-0.471 -0.478,-0.403 0,0"
                 style="fill:#f2fcf9;fill-opacity:1;fill-rule:nonzero;stroke:none"
                 id="path390" /></g></g></g></g><g
         id="g398"
         transform="translate(400.4225,378.9293)"><path
           d="m 0,0 c 11.517,2.913 11.837,0.628 23.342,-2.332 11.481,-2.955 19.679,-6.087 29.932,-12.04 9.452,-5.488 20.91,-13.312 28.736,-20.941 12.649,-12.333 24.029,-23.7 35.838,-36.839 L 34.936,-231.754 c 0,0 -78.512,94.221 -114.419,76.7 z"
           style="fill:#f8f1ee;fill-opacity:1;fill-rule:nonzero;stroke:none"
           id="path400" /></g><g
         id="g402"
         transform="translate(400.6608,378.0641)"><path
           d="m 0,0 c 4.304,1.036 8.342,1.763 12.694,0.684 3.989,-0.99 7.9,-2.384 11.869,-3.461 9.569,-2.595 18.639,-6.14 27.258,-11.069 18.295,-10.461 32.903,-24.399 47.55,-39.353 3.391,-3.46 6.746,-6.955 10.055,-10.493 1.674,-1.788 3.246,-3.761 5.024,-5.44 -0.56,0.529 2.36,-2.212 2.33,-1.806 0.046,-0.636 -1.093,-2.107 -1.372,-2.643 l -7.643,-14.713 -57.27,-110.241 c -5.524,-10.634 -11.049,-21.267 -16.572,-31.901 0.469,0.061 0.938,0.122 1.408,0.182 -9.438,11.314 -19.675,22.041 -30.218,32.321 -16.72,16.305 -35.385,33.462 -57.175,42.652 -8.819,3.719 -19.045,6.111 -28.112,1.867 0.408,-0.409 0.818,-0.818 1.227,-1.227 8.92,17.401 17.84,34.802 26.76,52.203 14.307,27.908 28.613,55.815 42.918,83.723 3.269,6.376 6.538,12.751 9.805,19.127 0.526,1.025 -1.021,1.935 -1.549,0.905 -8.92,-17.4 -17.841,-34.801 -26.76,-52.203 -14.306,-27.907 -28.612,-55.814 -42.918,-83.722 -3.268,-6.376 -6.537,-12.751 -9.806,-19.127 -0.425,-0.831 0.418,-1.607 1.228,-1.228 8.304,3.887 17.85,1.608 25.94,-1.719 10.842,-4.458 20.707,-11.298 29.915,-18.464 17.344,-13.497 33.06,-29.139 47.819,-45.387 3.278,-3.609 6.534,-7.246 9.658,-10.989 0.362,-0.435 1.159,-0.3 1.409,0.181 9.361,18.02 18.722,36.04 28.084,54.06 14.84,28.568 29.681,57.135 44.523,85.704 3.435,6.612 6.87,13.224 10.305,19.837 0.193,0.372 0.138,0.778 -0.141,1.087 -17.674,19.598 -36.031,39.876 -58.456,54.092 -9.895,6.274 -20.212,11.339 -31.482,14.609 -5.17,1.499 -10.403,3.265 -15.64,4.5 C 8.202,3.6 3.912,2.787 -0.477,1.73 -1.599,1.46 -1.123,-0.271 0,0"
           style="fill:#f8f1ee;fill-opacity:1;fill-rule:nonzero;stroke:none"
           id="path404" /></g><g
         id="g406"
         transform="translate(560.9596,105.7047)"><path
           d="m 0,0 c -35.167,22.638 -75.313,36.586 -116.931,40.696 -1.148,0.115 -1.14,-1.68 0,-1.794 C -75.634,34.824 -35.796,20.91 -0.905,-1.549 0.068,-2.176 0.969,-0.623 0,0"
           style="fill:#f8f1ee;fill-opacity:1;fill-rule:nonzero;stroke:none"
           id="path408" /></g><g
         id="g410"
         transform="translate(436.8278,143.9537)"><path
           d="m 0,0 c 45.042,-9.129 89.863,-24.847 129.779,-47.763 1.003,-0.576 1.908,0.974 0.906,1.549 C 90.64,-23.224 45.659,-7.428 0.477,1.73 -0.65,1.959 -1.133,0.229 0,0"
           style="fill:#f8f1ee;fill-opacity:1;fill-rule:nonzero;stroke:none"
           id="path412" /></g><g
         id="g414"
         transform="translate(325.7252,222.9596)"><path
           d="m 0,0 c 10.613,-1.808 20.187,-6.987 29.493,-12.18 8.584,-4.79 16.919,-10.027 24.963,-15.677 16.516,-11.602 31.704,-24.971 45.439,-39.752 0.788,-0.848 2.054,0.422 1.268,1.268 -13.839,14.894 -29.162,28.344 -45.802,40.033 -8.28,5.817 -16.87,11.194 -25.721,16.098 C 20.427,-5.106 10.965,-0.057 0.477,1.73 -0.652,1.923 -1.138,0.194 0,0"
           style="fill:#f8f1ee;fill-opacity:1;fill-rule:nonzero;stroke:none"
           id="path416" /></g><g
         id="g418"
         transform="translate(321.1378,222.108)"><path
           d="m 0,0 c 42.757,-18.836 82.268,-46.854 116.203,-78.813 0.839,-0.791 2.111,0.475 1.268,1.269 C 83.428,-45.484 43.793,-17.345 0.906,1.549 -0.141,2.01 -1.056,0.465 0,0"
           style="fill:#f8f1ee;fill-opacity:1;fill-rule:nonzero;stroke:none"
           id="path420" /></g><g
         id="g422"
         transform="translate(649.3961,252.1031)"><path
           d="m 0,0 c -20.862,-39.358 -41.724,-78.717 -62.586,-118.074 -0.541,-1.021 1.008,-1.928 1.549,-0.906 20.862,39.358 41.725,78.716 62.587,118.074 C 2.09,0.113 0.542,1.021 0,0"
           style="fill:#f8f1ee;fill-opacity:1;fill-rule:nonzero;stroke:none"
           id="path424" /></g><g
         id="g426"
         transform="translate(646.8854,254.3443)"><path
           d="m 0,0 c -4.425,11.024 -6.462,9.938 -15.628,17.494 -9.147,7.542 -16.506,12.325 -27.354,17.107 -10,4.409 -23.071,9.064 -33.845,10.898 -17.416,2.965 -33.175,4.928 -50.749,6.736 l -83.779,-160.393 c 0,0 126.987,-11.452 133.965,-50.793 z"
           style="fill:#f8f1ee;fill-opacity:1;fill-rule:nonzero;stroke:none"
           id="path428" /></g><g
         id="g430"
         transform="translate(647.7506,254.5826)"><path
           d="m 0,0 c -1.453,3.524 -2.984,7.1 -5.679,9.872 -2.97,3.057 -6.868,5.369 -10.179,8.019 -9.503,7.602 -19.326,13.828 -30.58,18.555 -26.025,10.931 -54.166,13.563 -82.003,16.449 -0.294,0.03 -0.641,-0.19 -0.775,-0.445 -9.418,-18.03 -18.836,-36.06 -28.254,-54.092 -15.031,-28.777 -30.062,-57.554 -45.094,-86.332 -3.477,-6.656 -6.955,-13.313 -10.431,-19.97 -0.334,-0.638 0.09,-1.287 0.774,-1.35 14.117,-1.28 28.2,-3.434 42.134,-5.998 23.878,-4.396 49.131,-9.813 70.524,-21.753 8.782,-4.901 18.411,-11.868 20.443,-22.383 0.142,-0.738 1.309,-0.891 1.64,-0.214 8.677,17.823 17.354,35.645 26.032,53.468 13.925,28.6 27.849,57.199 41.774,85.8 3.195,6.561 6.389,13.122 9.583,19.684 0.503,1.033 -1.043,1.944 -1.549,0.905 -8.677,-17.822 -17.355,-35.646 -26.032,-53.468 -13.925,-28.6 -27.849,-57.2 -41.774,-85.8 -3.195,-6.561 -6.389,-13.122 -9.583,-19.683 0.547,-0.072 1.092,-0.143 1.639,-0.214 -3.825,19.788 -30.556,28.892 -47.016,34.295 -23.104,7.583 -47.28,12.008 -71.342,15.229 -5.478,0.733 -10.969,1.427 -16.473,1.926 0.258,-0.449 0.517,-0.899 0.775,-1.35 14.425,27.618 28.85,55.234 43.275,82.851 9.647,18.467 19.292,36.933 28.938,55.399 2.97,5.688 5.942,11.376 8.913,17.064 0.589,1.127 1.248,3.402 2.216,4.243 0.189,0.164 0.196,0.648 0.408,0.779 -0.337,-0.208 4.066,-0.945 3.132,-0.791 3.124,-0.516 6.338,-0.684 9.486,-1.048 24.104,-2.78 47.647,-5.976 70.054,-15.744 C -34.803,29.447 -25.79,23.609 -17.127,16.622 -14.2,14.261 -10.979,12.2 -8.153,9.726 -5.001,6.964 -3.305,3.343 -1.73,-0.477 -1.297,-1.529 0.44,-1.068 0,0"
           style="fill:#f8f1ee;fill-opacity:1;fill-rule:nonzero;stroke:none"
           id="path432" /></g><g
         id="g434"><g
           id="g436" /><g
           id="g448"><g
             clip-path="url(#clipPath440)"
             opacity="0.419998"
             id="g446"><g
               transform="translate(517.4801,306.4273)"
               id="g444"><path
                 d="m 0,0 c 0,0 -49.727,-81.84 -77.894,-93.175 -38.843,-15.631 -88.767,8.875 -88.767,8.875 0,0 76.147,-49.081 84.539,-74.952 z"
                 style="fill:#e0cfc8;fill-opacity:1;fill-rule:nonzero;stroke:none"
                 id="path442" /></g></g></g></g><g
         id="g450"><g
           id="g452" /><g
           id="g464"><g
             clip-path="url(#clipPath456)"
             opacity="0.419998"
             id="g462"><g
               transform="translate(524.9635,307.8248)"
               id="g460"><path
                 d="m 0,0 c 0,0 -35.258,-89.036 -27.302,-118.337 10.974,-40.407 60.64,-65.432 60.64,-65.432 0,0 -85.086,31.108 -110.78,22.19 z"
                 style="fill:#e0cfc8;fill-opacity:1;fill-rule:nonzero;stroke:none"
                 id="path458" /></g></g></g></g><g
         id="g466"><g
           id="g468" /><g
           id="g548"><g
             clip-path="url(#clipPath472)"
             opacity="0.460007"
             id="g546"><g
               transform="translate(405.0299,360.8619)"
               id="g476"><path
                 d="m 0,0 c 1.769,0.153 3.414,-0.03 5.017,-0.333 0.813,-0.118 1.58,-0.364 2.37,-0.546 0.773,-0.227 1.533,-0.49 2.299,-0.738 0.744,-0.309 1.498,-0.59 2.233,-0.921 0.722,-0.368 1.465,-0.679 2.164,-1.11 1.42,-0.801 2.798,-1.719 4.054,-2.971 l -0.074,-0.199 c -3.053,1.017 -6.068,2.142 -9.104,3.21 -3.01,1.138 -6.04,2.219 -9.032,3.409 z"
                 style="fill:#659feb;fill-opacity:1;fill-rule:nonzero;stroke:none"
                 id="path474" /></g><g
               transform="translate(432.8873,348.3258)"
               id="g480"><path
                 d="m 0,0 2.475,-0.965 2.451,-1.026 4.846,-2.189 4.742,-2.413 c 1.559,-0.845 3.094,-1.734 4.644,-2.601 1.527,-0.906 3.047,-1.824 4.551,-2.768 l 4.454,-2.926 4.336,-3.1 4.246,-3.224 4.109,-3.396 c 1.335,-1.172 2.69,-2.323 4.008,-3.513 l 3.868,-3.666 c 1.264,-1.247 2.502,-2.521 3.736,-3.797 1.198,-1.311 2.417,-2.6 3.596,-3.925 l 3.434,-4.063 3.241,-4.215 c 1.056,-1.423 2.076,-2.873 3.068,-4.338 L 65.642,-52.26 C 56.633,-41.441 46.48,-31.582 35.429,-22.873 24.42,-14.109 12.5,-6.483 -0.095,-0.19 Z"
                 style="fill:#659feb;fill-opacity:1;fill-rule:nonzero;stroke:none"
                 id="path478" /></g><g
               transform="translate(393.6842,340.9664)"
               id="g484"><path
                 d="m 0,0 2.162,-0.018 2.164,-0.086 4.323,-0.373 4.294,-0.675 c 1.42,-0.289 2.83,-0.626 4.251,-0.939 1.402,-0.372 2.804,-0.759 4.197,-1.176 l 4.131,-1.402 c 1.355,-0.53 2.695,-1.101 4.042,-1.649 l 3.963,-1.836 3.841,-2.078 c 1.246,-0.753 2.507,-1.482 3.738,-2.255 l 3.596,-2.472 c 1.168,-0.865 2.314,-1.762 3.453,-2.66 1.1,-0.951 2.215,-1.878 3.294,-2.845 l 3.111,-3.036 2.887,-3.239 c 0.924,-1.111 1.813,-2.249 2.673,-3.403 l -0.154,-0.145 c -7.835,8.308 -17.18,15.159 -27.389,20.237 -10.178,5.142 -21.258,8.531 -32.601,9.84 z"
                 style="fill:#659feb;fill-opacity:1;fill-rule:nonzero;stroke:none"
                 id="path482" /></g><g
               transform="translate(464.4274,299.0387)"
               id="g488"><path
                 d="m 0,0 c 2.34,-0.937 4.454,-2.15 6.488,-3.464 1.039,-0.63 1.992,-1.364 2.99,-2.045 0.965,-0.72 1.908,-1.469 2.86,-2.205 0.911,-0.786 1.841,-1.55 2.737,-2.355 0.871,-0.835 1.781,-1.623 2.611,-2.511 1.699,-1.725 3.319,-3.546 4.715,-5.644 L 22.268,-18.388 11,-9.358 -0.134,-0.164 Z"
                 style="fill:#659feb;fill-opacity:1;fill-rule:nonzero;stroke:none"
                 id="path486" /></g><g
               transform="translate(378.0338,297.9264)"
               id="g492"><path
                 d="m 0,0 c 2.366,-0.633 4.757,-1.221 7.085,-1.992 l 3.516,-1.107 c 1.17,-0.377 2.325,-0.794 3.49,-1.189 4.624,-1.672 9.16,-3.585 13.663,-5.581 8.967,-4.083 17.59,-8.943 25.78,-14.441 8.146,-5.56 15.969,-11.625 23.076,-18.458 3.589,-3.377 7.006,-6.918 10.347,-10.508 1.638,-1.829 3.253,-3.674 4.86,-5.524 1.619,-1.839 3.194,-3.716 4.748,-5.613 l -0.153,-0.148 c -6.789,7.036 -13.565,14.1 -20.897,20.567 -7.28,6.52 -15.062,12.469 -23.163,17.926 -8.081,5.492 -16.581,10.358 -25.326,14.715 -8.763,4.327 -17.832,8.029 -27.093,11.152 z"
                 style="fill:#659feb;fill-opacity:1;fill-rule:nonzero;stroke:none"
                 id="path490" /></g><g
               transform="translate(371.4747,280.0631)"
               id="g496"><path
                 d="m 0,0 c 2.934,-0.314 5.747,-1.047 8.484,-1.97 1.383,-0.431 2.706,-1.003 4.053,-1.527 1.323,-0.574 2.624,-1.197 3.924,-1.82 1.27,-0.687 2.545,-1.361 3.787,-2.096 1.219,-0.774 2.46,-1.508 3.627,-2.366 2.361,-1.664 4.615,-3.498 6.605,-5.676 l -0.115,-0.179 c -4.803,3.069 -9.767,5.882 -14.862,8.426 -5.064,2.605 -10.265,4.948 -15.579,7.01 z"
                 style="fill:#659feb;fill-opacity:1;fill-rule:nonzero;stroke:none"
                 id="path494" /></g><g
               transform="translate(415.0123,253.6178)"
               id="g500"><path
                 d="m 0,0 1.535,-0.873 1.493,-0.925 2.984,-1.854 c 1.952,-1.284 3.891,-2.582 5.787,-3.935 1.925,-1.316 3.765,-2.739 5.648,-4.109 l 5.522,-4.27 c 1.799,-1.475 3.615,-2.928 5.399,-4.422 1.76,-1.524 3.558,-3.002 5.275,-4.58 1.745,-1.542 3.447,-3.139 5.135,-4.753 1.636,-1.68 3.348,-3.265 4.915,-5.032 l -0.131,-0.166 -21.914,17.294 -21.78,17.459 z"
                 style="fill:#659feb;fill-opacity:1;fill-rule:nonzero;stroke:none"
                 id="path498" /></g><g
               transform="translate(384.2496,228.0816)"
               id="g504"><path
                 d="m 0,0 c 2.048,0.248 4.079,-0.123 5.973,-0.744 0.964,-0.283 1.857,-0.721 2.768,-1.122 0.884,-0.448 1.734,-0.954 2.578,-1.463 0.805,-0.569 1.612,-1.13 2.373,-1.749 0.735,-0.655 1.494,-1.272 2.156,-2.003 1.363,-1.41 2.587,-2.967 3.494,-4.804 l -0.144,-0.156 c -2.873,2.491 -5.831,4.893 -9.034,6.935 -1.585,1.042 -3.224,2.004 -4.926,2.84 -1.704,0.827 -3.465,1.546 -5.29,2.06 z"
                 style="fill:#659feb;fill-opacity:1;fill-rule:nonzero;stroke:none"
                 id="path502" /></g><g
               transform="translate(410.069,209.5289)"
               id="g508"><path
                 d="m 0,0 c 2.631,-1.5 5.014,-3.258 7.307,-5.108 1.172,-0.899 2.249,-1.896 3.373,-2.844 1.091,-0.983 2.155,-1.992 3.23,-2.991 1.031,-1.045 2.082,-2.07 3.096,-3.132 0.987,-1.09 2.015,-2.137 2.955,-3.276 1.926,-2.23 3.765,-4.55 5.355,-7.127 l -0.147,-0.153 -12.731,12.163 -12.585,12.316 z"
                 style="fill:#659feb;fill-opacity:1;fill-rule:nonzero;stroke:none"
                 id="path506" /></g><g
               transform="translate(529.5192,284.6607)"
               id="g512"><path
                 d="M 0,0 C 1.945,0.486 3.865,0.568 5.762,0.479 6.717,0.468 7.646,0.313 8.59,0.217 c 0.931,-0.149 1.855,-0.343 2.78,-0.531 0.908,-0.255 1.822,-0.491 2.719,-0.787 0.886,-0.336 1.784,-0.624 2.641,-1.044 1.732,-0.777 3.409,-1.716 4.925,-3.024 L 21.587,-5.37 c -3.538,1.115 -7.095,2.17 -10.709,2.993 -3.598,0.898 -7.247,1.564 -10.907,2.166 z"
                 style="fill:#659feb;fill-opacity:1;fill-rule:nonzero;stroke:none"
                 id="path510" /></g><g
               transform="translate(564.3356,275.2984)"
               id="g516"><path
                 d="m 0,0 c 2.838,-0.292 5.617,-0.878 8.423,-1.412 l 4.15,-1.024 c 1.373,-0.379 2.733,-0.806 4.103,-1.209 1.356,-0.439 2.71,-0.891 4.053,-1.373 l 4.001,-1.527 c 1.318,-0.549 2.62,-1.137 3.93,-1.703 l 3.877,-1.825 3.787,-2.003 c 1.24,-0.708 2.494,-1.391 3.722,-2.12 l 3.626,-2.28 c 1.192,-0.783 2.365,-1.597 3.532,-2.416 1.145,-0.853 2.305,-1.68 3.432,-2.552 l 3.312,-2.702 c 2.115,-1.919 4.253,-3.789 6.194,-5.879 l -0.134,-0.164 C 51.246,-23.086 41.69,-16.973 31.59,-11.97 21.521,-6.904 10.893,-2.94 -0.051,-0.206 Z"
                 style="fill:#659feb;fill-opacity:1;fill-rule:nonzero;stroke:none"
                 id="path514" /></g><g
               transform="translate(520.0114,263.026)"
               id="g520"><path
                 d="m 0,0 c 3.819,0.479 7.676,0.363 11.482,-0.111 1.912,-0.211 3.79,-0.604 5.677,-0.978 0.936,-0.216 1.862,-0.473 2.793,-0.709 l 2.769,-0.806 2.716,-0.966 c 0.893,-0.356 1.795,-0.684 2.679,-1.061 1.75,-0.798 3.502,-1.583 5.176,-2.527 3.365,-1.842 6.562,-4.001 9.382,-6.619 l -0.111,-0.181 c -6.425,3.926 -13.327,7.06 -20.494,9.337 -7.146,2.343 -14.577,3.837 -22.084,4.409 z"
                 style="fill:#659feb;fill-opacity:1;fill-rule:nonzero;stroke:none"
                 id="path518" /></g><g
               transform="translate(577.7662,243.3639)"
               id="g524"><path
                 d="m 0,0 c 3.848,-0.905 7.541,-2.213 11.151,-3.701 1.821,-0.716 3.577,-1.567 5.356,-2.37 1.755,-0.853 3.486,-1.752 5.218,-2.652 1.699,-0.96 3.404,-1.908 5.075,-2.915 1.649,-1.046 3.32,-2.051 4.917,-3.18 3.223,-2.205 6.343,-4.577 9.211,-7.294 l -0.115,-0.179 c -6.553,4.145 -13.258,8.05 -20.095,11.704 -6.805,3.715 -13.745,7.184 -20.805,10.394 z"
                 style="fill:#659feb;fill-opacity:1;fill-rule:nonzero;stroke:none"
                 id="path522" /></g><g
               transform="translate(506.7155,237.6451)"
               id="g528"><path
                 d="m 0,0 c 2.014,0.09 3.908,-0.159 5.761,-0.529 0.937,-0.151 1.83,-0.43 2.746,-0.645 0.899,-0.261 1.786,-0.557 2.679,-0.839 0.871,-0.342 1.751,-0.657 2.614,-1.022 0.85,-0.402 1.721,-0.746 2.548,-1.212 1.676,-0.869 3.312,-1.857 4.831,-3.18 l -0.071,-0.2 C 17.549,-6.475 14.026,-5.215 10.484,-4.014 6.967,-2.74 3.43,-1.524 -0.07,-0.2 Z"
                 style="fill:#659feb;fill-opacity:1;fill-rule:nonzero;stroke:none"
                 id="path526" /></g><g
               transform="translate(535.7877,226.4019)"
               id="g532"><path
                 d="M 0,0 C 1.094,0.182 1.95,0.109 2.767,-0.007 3.571,-0.141 4.305,-0.357 5.003,-0.66 5.701,-0.962 6.364,-1.345 7.016,-1.836 7.661,-2.35 8.306,-2.918 8.929,-3.832 L 8.881,-4.039 C 7.26,-3.76 5.692,-3.223 4.167,-2.608 2.67,-1.926 1.202,-1.16 -0.117,-0.177 Z"
                 style="fill:#659feb;fill-opacity:1;fill-rule:nonzero;stroke:none"
                 id="path530" /></g><g
               transform="translate(486.9899,202.0025)"
               id="g536"><path
                 d="m 0,0 3.292,-0.402 3.285,-0.469 6.543,-1.142 6.477,-1.483 6.435,-1.685 c 2.13,-0.616 4.257,-1.25 6.37,-1.928 l 6.293,-2.178 6.202,-2.43 6.123,-2.626 c 8.07,-3.709 15.93,-7.898 23.352,-12.766 l 5.508,-3.73 5.383,-3.895 5.171,-4.168 c 1.691,-1.428 3.352,-2.89 4.99,-4.371 l -0.13,-0.168 C 81.39,-32.634 66.188,-23.51 50.145,-16.273 34.129,-8.973 17.251,-3.548 -0.04,-0.208 Z"
                 style="fill:#659feb;fill-opacity:1;fill-rule:nonzero;stroke:none"
                 id="path534" /></g><g
               transform="translate(513.3776,174.651)"
               id="g540"><path
                 d="m 0,0 c 2.068,0.917 4.469,0.857 6.628,0.427 1.107,-0.18 2.143,-0.56 3.184,-0.907 1.022,-0.395 2,-0.867 2.971,-1.34 0.937,-0.536 1.867,-1.07 2.759,-1.66 0.864,-0.631 1.752,-1.216 2.554,-1.923 1.641,-1.356 3.156,-2.845 4.488,-4.611 l -0.116,-0.177 c -3.506,2.262 -6.977,4.588 -10.675,6.497 -1.83,0.981 -3.716,1.87 -5.682,2.53 -1.96,0.653 -4.024,1.091 -6.093,0.953 z"
                 style="fill:#659feb;fill-opacity:1;fill-rule:nonzero;stroke:none"
                 id="path538" /></g><g
               transform="translate(545.8014,159.858)"
               id="g544"><path
                 d="m 0,0 c 2.729,-0.655 5.284,-1.623 7.777,-2.703 1.264,-0.509 2.462,-1.137 3.694,-1.704 1.208,-0.611 2.397,-1.254 3.593,-1.884 1.166,-0.687 2.346,-1.347 3.5,-2.055 1.135,-0.74 2.3,-1.428 3.403,-2.229 2.236,-1.543 4.412,-3.196 6.416,-5.159 l -0.104,-0.186 -14.242,7.774 -14.141,7.96 z"
                 style="fill:#659feb;fill-opacity:1;fill-rule:nonzero;stroke:none"
                 id="path542" /></g></g></g></g><g
         id="g550"
         transform="translate(244.6207,347.4039)"><path
           d="m 0,0 c -3.313,-45.44 68.094,-70.806 68.094,-70.806 l 16.036,-4.272 c 14.171,-8.773 21.383,-9.937 21.383,-9.937 l -9.339,5.611 14.365,-4.497 c 0.388,-0.115 -0.548,0.921 -0.903,1.111 l -10.977,5.89 14.756,-3.698 c 0.332,-0.083 0.503,0.38 0.199,0.534 l -13.827,6.982 c 0,0 14.192,-3.258 13.014,-2.005 -1.177,1.252 -15.151,6.764 -15.151,6.764 0,0 4.575,6.768 4.167,7.366 -0.669,0.98 -5.562,-1.898 -10.568,-2.688 -3.155,-0.497 -26.912,9.609 -26.912,9.609 -18.178,8.158 -41.719,28.585 -39.021,57.849 0,0 -1.117,9.706 -12.866,10.693 C 0.702,15.493 0,0 0,0"
           style="fill:#ffa47a;fill-opacity:1;fill-rule:nonzero;stroke:none"
           id="path552" /></g><g
         id="g554"
         transform="translate(244.6207,347.4039)"><path
           d="m 0,0 c -3.313,-45.44 68.094,-70.806 68.094,-70.806 l 16.036,-4.272 c 14.171,-8.773 21.383,-9.937 21.383,-9.937 l -9.339,5.611 14.365,-4.497 c 0.388,-0.115 -0.548,0.921 -0.903,1.111 l -10.977,5.89 14.756,-3.698 c 0.332,-0.083 0.503,0.38 0.199,0.534 l -13.827,6.982 c 0,0 14.192,-3.258 13.014,-2.005 -1.177,1.252 -15.151,6.764 -15.151,6.764 0,0 4.575,6.768 4.167,7.366 -0.669,0.98 -5.562,-1.898 -10.568,-2.688 -3.155,-0.497 -26.912,9.609 -26.912,9.609 -18.178,8.158 -41.719,28.585 -39.021,57.849 0,0 -1.117,9.706 -12.866,10.693 C 0.702,15.493 0,0 0,0 Z"
           style="fill:none;stroke:#ffa47a;stroke-width:1.476;stroke-linecap:round;stroke-linejoin:round;stroke-miterlimit:10;stroke-dasharray:none;stroke-opacity:1"
           id="path556" /></g><g
         id="g558"
         transform="translate(284.8502,311.5875)"><path
           d="m 0,0 c -9.173,10.188 -11.843,21.405 -14.914,39.63 0,0 -1.116,9.705 -12.865,10.692 C -39.528,51.31 -40.229,35.816 -40.229,35.816 -41.344,20.53 -40.65,11.39 -30.416,0.849 Z"
           style="fill:#ff7f4d;fill-opacity:1;fill-rule:nonzero;stroke:none"
           id="path560" /></g><g
         id="g562"
         transform="translate(284.8502,311.5875)"><path
           d="m 0,0 c -9.173,10.188 -11.843,21.405 -14.914,39.63 0,0 -1.116,9.705 -12.865,10.692 C -39.528,51.31 -40.229,35.816 -40.229,35.816 -41.344,20.53 -40.65,11.39 -30.416,0.849 Z"
           style="fill:none;stroke:#ff7f4d;stroke-width:0.595;stroke-linecap:butt;stroke-linejoin:miter;stroke-miterlimit:10;stroke-dasharray:none;stroke-opacity:1"
           id="path564" /></g><g
         id="g566"
         transform="translate(285.7799,310.9254)"><path
           d="m 0,0 -22.536,-5.378 c 0,0 -3.737,3.194 -5.726,6.04 z"
           style="fill:#cf5540;fill-opacity:1;fill-rule:nonzero;stroke:none"
           id="path568" /></g><g
         id="g570"
         transform="translate(409.2467,159.0475)"><path
           d="m 0,0 c -9.134,-25.551 -26.744,-41.664 -52.045,-39.894 -20.311,1.421 -39.136,10.669 -57.36,19.748 -6.244,3.111 -12.641,6.335 -17.332,11.498 -6.907,7.601 -9.124,18.231 -11.076,28.314 -1.945,10.05 -3.891,20.101 -5.837,30.15 -1.483,7.661 -3.072,15.577 -7.563,21.956 -4.493,6.379 -12.737,10.815 -20.169,8.439 -7.432,-2.376 -11.228,-13.376 -5.367,-18.526 12.36,7.424 11.534,25.565 7.346,39.362 -6.987,23.018 -19.015,44.491 -34.995,62.472 -10.97,12.343 -25.106,23.596 -41.603,24.337 -21.346,0.959 -39.307,-15.752 -51.588,-33.237 -12.731,-18.125 -22.563,-38.974 -23.936,-61.081 -0.69,-11.117 1.472,-23.611 10.355,-30.331 8.883,-6.72 25.24,-2.196 25.623,8.936"
           style="fill:none;stroke:#ff7f4d;stroke-width:2.121;stroke-linecap:round;stroke-linejoin:round;stroke-miterlimit:10;stroke-dasharray:9.092;stroke-dashoffset:0;stroke-opacity:1"
           id="path572" /></g><g
         id="g574"><g
           id="g576" /><g
           id="g588"><g
             clip-path="url(#clipPath580)"
             id="g586"><g
               transform="translate(624.3239,248.6705)"
               id="g584"><path
                 d="m 0,0 c 5.976,-2.484 13.048,-1.155 18.566,2.225 5.52,3.379 9.69,8.578 13.172,14.033 4.887,7.652 8.743,16.765 6.826,25.639 -1.005,4.654 -3.525,8.833 -6.29,12.708 -3.452,4.84 -7.411,9.415 -12.322,12.764 -9.727,6.634 -22.973,7.733 -33.66,2.792 -10.687,-4.94 -18.431,-15.743 -19.679,-27.45"
                 style="fill:none;stroke:#f8f1ee;stroke-width:2.121;stroke-linecap:round;stroke-linejoin:round;stroke-miterlimit:10;stroke-dasharray:7.332;stroke-dashoffset:0;stroke-opacity:1"
                 id="path582" /></g></g></g></g><g
         id="g590"
         transform="translate(705.7838,186.5299)"><path
           d="m 0,0 c -0.434,-2.296 -2.647,-3.807 -4.944,-3.372 -2.296,0.434 -3.807,2.647 -3.372,4.943 0.433,2.297 2.647,3.807 4.943,3.373 C -1.076,4.511 0.434,2.297 0,0"
           style="fill:#659feb;fill-opacity:1;fill-rule:nonzero;stroke:none"
           id="path592" /></g><g
         id="g594"
         transform="translate(663.4293,201.7105)"><path
           d="m 0,0 c -0.578,-3.063 -3.529,-5.076 -6.592,-4.497 -3.062,0.578 -5.075,3.529 -4.497,6.592 0.579,3.062 3.53,5.075 6.593,4.497 C -1.435,6.014 0.579,3.062 0,0 Z"
           style="fill:none;stroke:#659feb;stroke-width:1.061;stroke-linecap:butt;stroke-linejoin:miter;stroke-miterlimit:10;stroke-dasharray:none;stroke-opacity:1"
           id="path596" /></g><g
         id="g598"
         transform="translate(469.5485,383.6969)"><path
           d="m 0,0 c -0.542,-2.871 -3.31,-4.759 -6.181,-4.216 -2.87,0.542 -4.757,3.309 -4.215,6.18 0.542,2.871 3.309,4.759 6.18,4.216 C -1.346,5.638 0.542,2.87 0,0"
           style="fill:#ff7f4d;fill-opacity:1;fill-rule:nonzero;stroke:none"
           id="path600" /></g><g
         id="g602"
         transform="translate(435.3658,119.1812)"><path
           d="m 0,0 c -0.579,-3.063 -3.53,-5.076 -6.592,-4.497 -3.062,0.578 -5.076,3.529 -4.497,6.592 0.578,3.062 3.529,5.076 6.592,4.497 C -1.436,6.014 0.578,3.063 0,0 Z"
           style="fill:none;stroke:#ff7f4d;stroke-width:1.061;stroke-linecap:butt;stroke-linejoin:miter;stroke-miterlimit:10;stroke-dasharray:none;stroke-opacity:1"
           id="path604" /></g><g
         id="g606"
         transform="translate(292.67,249.1461)"><path
           d="m 0,0 c -0.687,-3.636 -4.192,-6.027 -7.828,-5.34 -3.637,0.687 -6.027,4.192 -5.34,7.828 0.687,3.636 4.191,6.028 7.828,5.34 C -1.704,7.142 0.687,3.637 0,0"
           style="fill:#659feb;fill-opacity:1;fill-rule:nonzero;stroke:none"
           id="path608" /></g><g
         id="g610"
         transform="translate(292.67,249.1461)"><path
           d="m 0,0 c -0.687,-3.636 -4.192,-6.027 -7.828,-5.34 -3.637,0.687 -6.027,4.192 -5.34,7.828 0.687,3.636 4.191,6.028 7.828,5.34 C -1.704,7.142 0.687,3.637 0,0 Z"
           style="fill:none;stroke:#659feb;stroke-width:1.061;stroke-linecap:round;stroke-linejoin:round;stroke-miterlimit:10;stroke-dasharray:9.092;stroke-dashoffset:0;stroke-opacity:1"
           id="path612" /></g><g
         id="g614"
         transform="translate(173.5568,168.5914)"><path
           d="m 0,0 c 0,-2.437 -1.976,-4.413 -4.413,-4.413 -2.437,0 -4.413,1.976 -4.413,4.413 0,2.438 1.976,4.413 4.413,4.413 C -1.976,4.413 0,2.438 0,0"
           style="fill:#ff7f4d;fill-opacity:1;fill-rule:nonzero;stroke:none"
           id="path616" /></g><g
         id="g618"
         transform="translate(75.3527,208.3092)"><path
           d="m 0,0 c 0,-2.864 -2.322,-5.187 -5.187,-5.187 -2.864,0 -5.186,2.323 -5.186,5.187 0,2.864 2.322,5.186 5.186,5.186 C -2.322,5.186 0,2.864 0,0 Z"
           style="fill:none;stroke:#659feb;stroke-width:0.948;stroke-linecap:butt;stroke-linejoin:miter;stroke-miterlimit:10;stroke-dasharray:none;stroke-opacity:1"
           id="path620" /></g></g></g></svg>
