<?xml version="1.0" encoding="UTF-8" standalone="no"?>
<svg
   xmlns:dc="http://purl.org/dc/elements/1.1/"
   xmlns:cc="http://creativecommons.org/ns#"
   xmlns:rdf="http://www.w3.org/1999/02/22-rdf-syntax-ns#"
   xmlns:svg="http://www.w3.org/2000/svg"
   xmlns="http://www.w3.org/2000/svg"
   xmlns:sodipodi="http://sodipodi.sourceforge.net/DTD/sodipodi-0.dtd"
   xmlns:inkscape="http://www.inkscape.org/namespaces/inkscape"
   version="1.1"
   id="svg2"
   xml:space="preserve"
   width="666.66669"
   height="555"
   viewBox="0 0 666.66669 555"
   sodipodi:docname="banner2.svg"
   inkscape:version="1.0.2 (1.0.2+r75+1)"><metadata
     id="metadata8"><rdf:RDF><cc:Work
         rdf:about=""><dc:format>image/svg+xml</dc:format><dc:type
           rdf:resource="http://purl.org/dc/dcmitype/StillImage" /><dc:title></dc:title></cc:Work></rdf:RDF></metadata><defs
     id="defs6"><clipPath
       clipPathUnits="userSpaceOnUse"
       id="clipPath20"><path
         d="M 0,500 H 500 V 0 H 0 Z"
         id="path18" /></clipPath><clipPath
       clipPathUnits="userSpaceOnUse"
       id="clipPath516"><path
         d="M 0,500 H 500 V 0 H 0 Z"
         id="path514" /></clipPath></defs><sodipodi:namedview
     pagecolor="#ffffff"
     bordercolor="#666666"
     borderopacity="1"
     objecttolerance="10"
     gridtolerance="10"
     guidetolerance="10"
     inkscape:pageopacity="0"
     inkscape:pageshadow="2"
     inkscape:window-width="1366"
     inkscape:window-height="716"
     id="namedview4"
     showgrid="false"
     inkscape:zoom="0.60033364"
     inkscape:cx="359.67908"
     inkscape:cy="380.6581"
     inkscape:window-x="0"
     inkscape:window-y="24"
     inkscape:window-maximized="1"
     inkscape:current-layer="g10"
     inkscape:document-rotation="0" /><g
     id="g10"
     inkscape:groupmode="layer"
     inkscape:label="4126703"
     transform="matrix(1.3333333,0,0,-1.3333333,0,666.66667)"><g
       id="g14"
       transform="matrix(1.0846923,0,0,1.0846923,-21.530311,-13.044176)"><g
         id="g16"
         clip-path="url(#clipPath20)"><g
           id="g22"
           transform="translate(448.0445,110.0078)"><path
             d="m 0,0 c 0,-9.663 -90.09,-17.497 -201.221,-17.497 -111.131,0 -201.221,7.834 -201.221,17.497 0,9.664 90.09,17.498 201.221,17.498 C -90.09,17.498 0,9.664 0,0"
             style="fill:#ccd6f4;fill-opacity:1;fill-rule:nonzero;stroke:none"
             id="path24" /></g><g
           id="g26"
           transform="translate(155.6451,333.9634)"><path
             d="M 0,0 C 1.663,-1.171 1.985,-3.656 5.092,-4.29 1.99,-5.044 1.561,-7.44 0.035,-8.83 c -0.056,0.293 -0.113,0.585 -0.17,0.877 l -0.344,0.673 c 0,0 0.064,0.023 0.064,0.022 -0.431,1.402 -1.306,2.312 -2.804,2.53 -0.058,0.263 -0.115,0.525 -0.174,0.788 2.193,0.413 3.225,1.821 3.397,3.965 z"
             style="fill:#ececf0;fill-opacity:1;fill-rule:nonzero;stroke:none"
             id="path28" /></g><g
           id="g30"
           transform="translate(250.7623,446.7847)"><path
             d="m 0,0 c -2.327,-0.762 -3.067,-2.508 -3.903,-4.378 -0.355,2.036 -1.248,3.481 -3.291,4.32 1.796,0.972 3.008,2.243 3.291,4.69 C -3.163,2.322 -2.143,0.812 0,0"
             style="fill:#ececf0;fill-opacity:1;fill-rule:nonzero;stroke:none"
             id="path32" /></g><g
           id="g34"
           transform="translate(191.4391,396.1445)"><path
             d="M 0,0 C 0.202,0.428 0.715,0.869 -0.054,1.253 1.073,2.078 1.637,3.25 2.044,5.196 2.773,2.948 3.674,1.421 5.962,0.68 3.779,-0.229 2.747,-1.583 2.185,-4.211 1.643,-2.141 1.081,-0.897 0,0"
             style="fill:#ececf0;fill-opacity:1;fill-rule:nonzero;stroke:none"
             id="path36" /></g><g
           id="g38"
           transform="translate(188.7706,220.8145)"><path
             d="m 0,0 c 0.571,-2.605 2.384,-4.012 5.241,-5.06 -3.632,-1.088 -5.053,-3.713 -6.008,-7.059 -0.284,1.504 -0.458,2.647 -1.117,3.633 -0.637,1.448 -1.991,1.906 -3.312,2.42 -0.552,0.213 -0.865,0.725 -0.86,1.239 0.009,1.047 0.745,0.24 1.125,0.368 2.79,0.944 3.613,3.325 4.169,6.195 C -0.42,0.957 -0.21,0.479 0,0"
             style="fill:#ececf0;fill-opacity:1;fill-rule:nonzero;stroke:none"
             id="path40" /></g><g
           id="g42"
           transform="translate(218.7916,358.707)"><path
             d="m 0,0 c -3.29,-0.754 -4.272,-3.414 -5.088,-6.286 -0.664,1.522 -0.636,3.263 -2.007,4.351 -0.272,0.298 -0.542,0.598 -0.813,0.896 -0.446,0.583 -1.03,0.908 -1.765,0.956 l -1.474,0.473 0.082,0.139 c 0,0 -0.132,0.095 -0.132,0.097 0.507,0.152 1.013,0.302 1.52,0.452 0.939,0.088 1.635,0.589 2.205,1.303 0.19,0.257 0.38,0.514 0.57,0.77 0,0 -0.026,-0.062 -0.027,-0.061 0.211,0.367 0.421,0.734 0.632,1.101 0,0 -0.056,-0.05 -0.057,-0.049 0.554,0.486 0.678,1.133 0.684,1.824 0.15,0.313 0.302,0.625 0.513,1.063 0.764,-1.364 0.681,-3.189 2.268,-4.001 L -2.85,2.989 C -2.731,1.2 -0.086,1.821 0,0"
             style="fill:#ececf0;fill-opacity:1;fill-rule:nonzero;stroke:none"
             id="path44" /></g><g
           id="g46"
           transform="translate(293.1246,399.4707)"><path
             d="m 0,0 c -0.278,-0.437 -0.605,-0.85 -0.821,-1.315 -0.215,-0.465 -0.318,-0.982 -0.595,-1.877 -0.985,2.123 -1.248,4.353 -3.332,5.326 -0.26,0.392 -0.646,0.489 -1.085,0.46 0,0 0.044,-0.029 0.043,-0.029 0.519,0.52 -2.179,0.36 -0.235,1.263 1.921,0.892 3.378,2.271 3.494,4.598 0.476,0.147 0.605,0.49 0.537,0.946 0.348,0.009 0.781,0.074 0.868,-0.371 C -0.54,5.979 1.675,4.453 4.168,3.172 2.391,2.625 1.207,1.298 0,0"
             style="fill:#ececf0;fill-opacity:1;fill-rule:nonzero;stroke:none"
             id="path48" /></g><g
           id="g50"
           transform="translate(173.5709,251.002)"><path
             d="M 0,0 C -0.451,0.138 -0.749,0.402 -0.75,0.91 2.565,1.295 3.586,3.831 4.547,7.107 5.57,3.77 7.002,1.371 10.72,0.606 7.305,-0.544 5.489,-2.361 5.028,-5.348 4.365,-5.855 4.365,-5.855 3.923,-4.59 3.544,-2.267 2.256,-0.72 0,0"
             style="fill:#ececf0;fill-opacity:1;fill-rule:nonzero;stroke:none"
             id="path52" /></g><g
           id="g54"
           transform="translate(291.0567,313.1196)"><path
             d="m 0,0 c -2.672,-0.838 -3.26,-3.231 -4.16,-5.73 -1.578,2.522 -1.826,6.106 -5.938,6.244 3.591,1.071 5.235,3.417 5.802,7.377 C -3.241,4.28 -2.017,1.611 1.46,1.05 0.973,0.7 0.487,0.35 0,0"
             style="fill:#ececf0;fill-opacity:1;fill-rule:nonzero;stroke:none"
             id="path56" /></g><g
           id="g58"
           transform="translate(212.5382,280.3442)"><path
             d="m 0,0 c -0.312,-0.726 -0.623,-1.453 -1.031,-2.406 -0.659,3.183 -1.92,5.686 -5.652,6.675 1.787,0.748 3.246,1.233 3.998,2.632 1.07,1.027 1.17,2.493 1.75,4.052 C -0.109,7.834 1.337,5.479 4.695,4.347 2.416,3.302 0.676,2.172 0,0"
             style="fill:#ececf0;fill-opacity:1;fill-rule:nonzero;stroke:none"
             id="path60" /></g><g
           id="g62"
           transform="translate(244.0377,298.8281)"><path
             d="m 0,0 c -2.466,-1.054 -3.594,-2.569 -4.348,-5.265 -0.705,2.62 -1.585,4.324 -4.372,5.168 2.738,0.962 3.837,2.537 4.345,4.737 C -3.693,2.49 -2.563,0.89 0,0"
             style="fill:#ececf0;fill-opacity:1;fill-rule:nonzero;stroke:none"
             id="path64" /></g><g
           id="g66"
           transform="translate(283.6432,359.5688)"><path
             d="m 0,0 c -0.155,-0.542 -0.585,-0.804 -1.047,-1.031 -1.718,-0.688 -2.131,-2.419 -2.984,-3.84 -0.277,0.402 -0.518,0.751 -0.76,1.1 -0.11,1.921 -1.637,2.554 -3.362,3.454 2.438,0.887 3.766,2.453 3.892,4.871 0.089,0.084 0.159,0.18 0.213,0.291 C -3.483,2.574 -2.604,0.567 0,0"
             style="fill:#ececf0;fill-opacity:1;fill-rule:nonzero;stroke:none"
             id="path68" /></g><g
           id="g70"
           transform="translate(333.9102,264.1807)"><path
             d="M 0,0 C 1.21,0.946 0.884,2.628 1.836,3.919 2.495,0.7 4.043,-1.609 7.516,-2.604 4.737,-3.723 2.789,-5.297 2.261,-8.127 1.845,-9.26 1.442,-9.252 1.215,-8.067 0.678,-5.268 -1.072,-3.616 -3.825,-2.725 -2.361,-1.944 -0.742,-1.562 0,0"
             style="fill:#ececf0;fill-opacity:1;fill-rule:nonzero;stroke:none"
             id="path72" /></g><g
           id="g74"
           transform="translate(314.3775,232.999)"><path
             d="m 0,0 c -2.743,-0.994 -3.772,-2.59 -4.617,-5.104 -0.731,2.425 -1.619,4.186 -4.347,4.983 2.609,0.913 3.815,2.475 4.267,5.507 C -3.878,2.569 -2.922,0.827 0,0"
             style="fill:#ececf0;fill-opacity:1;fill-rule:nonzero;stroke:none"
             id="path76" /></g><g
           id="g78"
           transform="translate(192.4132,316.6426)"><path
             d="m 0,0 c -2.522,-0.905 -3.583,-2.697 -4.386,-5.273 -0.525,2.72 -1.611,4.492 -4.418,5.27 2.813,0.777 3.947,2.453 4.392,5.128 C -3.572,2.696 -2.519,0.886 0,0"
             style="fill:#ececf0;fill-opacity:1;fill-rule:nonzero;stroke:none"
             id="path80" /></g><g
           id="g82"
           transform="translate(287.7848,278.021)"><path
             d="M 0,0 C 2.018,0.953 3.385,2.006 3.737,4.136 4.502,2.372 5.41,0.936 7.544,0.207 5.554,-0.79 4.435,-2.049 3.839,-4.634 3.149,-2.106 2.385,-0.476 0,0"
             style="fill:#ececf0;fill-opacity:1;fill-rule:nonzero;stroke:none"
             id="path84" /></g><g
           id="g86"
           transform="translate(229.235,215.4951)"><path
             d="m 0,0 c 0,0 0.004,-0.01 0.004,-0.008 -1.949,-0.48 -2.857,-1.946 -3.587,-4.638 -0.546,2.562 -1.305,4.078 -3.644,4.759 C -5.28,1.07 -4.109,2.246 -3.57,4.104 -2.959,2.117 -1.386,1.144 0,0"
             style="fill:#ececf0;fill-opacity:1;fill-rule:nonzero;stroke:none"
             id="path88" /></g><g
           id="g90"
           transform="translate(248.4381,340.4033)"><path
             d="M 0,0 C 0.818,-2.089 1.632,-3.54 4.262,-4.179 1.746,-4.911 0.79,-6.311 0.086,-8.426 -0.754,-6.569 -1.343,-4.858 -4.171,-4.358 -1.62,-3.578 -0.66,-2.207 0,0"
             style="fill:#ececf0;fill-opacity:1;fill-rule:nonzero;stroke:none"
             id="path92" /></g><g
           id="g94"
           transform="translate(251.7037,167.6367)"><path
             d="M 0,0 C -0.481,1.694 -2.588,1.845 -3.225,3.393 -0.713,3.872 0.172,5.682 0.555,8.172 1.514,6.048 2.295,3.947 5.264,3.153 2.596,2.214 1.552,0.534 0.792,-1.735 0.417,-0.912 0.208,-0.456 0,0"
             style="fill:#ececf0;fill-opacity:1;fill-rule:nonzero;stroke:none"
             id="path96" /></g><g
           id="g98"
           transform="translate(256.3043,242.7822)"><path
             d="m 0,0 c -0.15,-0.399 -0.301,-0.798 -0.665,-1.761 -0.782,3.582 -2.039,6.228 -6.204,6.997 3.988,0.829 5.482,3.144 6.235,6.329 C 0.229,8.564 1.854,6.333 4.777,5.26 4.731,5.186 4.694,5.102 4.637,5.037 4.578,4.972 4.5,4.925 4.431,4.87 1.983,4.132 0.628,2.396 0,0"
             style="fill:#ececf0;fill-opacity:1;fill-rule:nonzero;stroke:none"
             id="path100" /></g><g
           id="g102"
           transform="translate(342.4146,294.48)"><path
             d="M 0,0 C 0.032,2.433 -2.25,3.149 -3.459,4.662 -0.986,4.988 -0.332,6.928 0.343,9.175 1.177,7.074 2.024,5.224 4.712,4.4 1.957,3.538 2.016,0.904 0.328,-0.35 0.309,-0.364 0.198,-0.275 0.146,-0.219 0.087,-0.155 0.048,-0.074 0,0"
             style="fill:#ececf0;fill-opacity:1;fill-rule:nonzero;stroke:none"
             id="path104" /></g><g
           id="g106"
           transform="translate(304.1988,187.5898)"><path
             d="m 0,0 c -0.481,2.994 -1.594,4.66 -4.268,5.516 2.673,0.789 3.823,2.441 4.264,5.236 C 0.767,8.15 1.858,6.386 4.452,5.528 1.85,4.551 0.768,2.793 0,0"
             style="fill:#ececf0;fill-opacity:1;fill-rule:nonzero;stroke:none"
             id="path108" /></g><g
           id="g110"
           transform="translate(173.2511,347.4189)"><path
             d="M 0,0 C 1.651,0.57 1.173,2.699 2.543,3.475 3.309,4.662 4.441,5.281 5.785,5.574 5.722,6.512 4.725,6.418 4.283,6.937 1.769,7.966 1.266,10.415 0.34,13.144 -0.229,9.267 -1.772,6.781 -5.872,5.891 -2.093,5.032 -0.439,3.058 0,0"
             style="fill:#ccd6f4;fill-opacity:1;fill-rule:nonzero;stroke:none"
             id="path112" /></g><g
           id="g114"
           transform="translate(142.1075,289.2412)"><path
             d="m 0,0 c -0.261,-0.598 -0.432,-0.988 -0.602,-1.378 -0.481,-1.721 -1.872,-2.52 -3.498,-3.253 2.886,-0.38 3.117,-3.062 4.523,-4.645 0.279,1.481 0.727,2.857 2.227,3.577 0.172,0.14 0.345,0.28 0.517,0.42 0.378,0.154 0.757,0.309 1.135,0.463 -0.074,0.245 -0.15,0.489 -0.225,0.733 C 1.559,-4.01 1.285,-1.53 0,0"
             style="fill:#ccd6f4;fill-opacity:1;fill-rule:nonzero;stroke:none"
             id="path116" /></g><g
           id="g118"
           transform="translate(229.1656,425.3589)"><path
             d="M 0,0 C 0.94,2.292 1.962,4.101 4.686,5.076 1.814,5.823 0.813,7.636 0.045,10.094 -0.589,7.56 -1.466,5.687 -4.097,4.992 -1.482,4.375 -0.747,2.375 0,0"
             style="fill:#ccd6f4;fill-opacity:1;fill-rule:nonzero;stroke:none"
             id="path120" /></g><g
           id="g122"
           transform="translate(188.277,391.8159)"><path
             d="M 0,0 C 0.607,2.248 1.417,3.682 3.162,4.329 3.365,4.756 3.877,5.197 3.108,5.582 1.032,6.22 0.64,8.19 -0.274,10.042 -0.766,7.648 -1.701,5.783 -4.135,4.915 -1.716,4.172 -1.081,2.168 0,0"
             style="fill:#ccd6f4;fill-opacity:1;fill-rule:nonzero;stroke:none"
             id="path124" /></g><g
           id="g126"
           transform="translate(309.7603,227.8955)"><path
             d="m 0,0 c -0.73,2.425 -1.619,4.186 -4.347,4.982 2.608,0.914 3.815,2.476 4.267,5.507 C 0.738,7.673 1.695,5.931 4.617,5.104 1.874,4.109 0.845,2.514 0,0 m -18.136,45.492 c -0.69,2.527 -1.455,4.158 -3.84,4.633 2.018,0.954 3.386,2.006 3.738,4.137 0.764,-1.764 1.672,-3.2 3.806,-3.93 -1.99,-0.996 -3.109,-2.256 -3.704,-4.84 m -103.597,37.982 c -0.525,2.72 -1.61,4.493 -4.418,5.27 2.813,0.777 3.946,2.453 4.391,5.128 0.841,-2.429 1.894,-4.239 4.413,-5.125 -2.523,-0.905 -3.583,-2.697 -4.386,-5.273 m 60.411,29.034 c 0.819,-2.089 1.632,-3.54 4.261,-4.179 -2.515,-0.732 -3.472,-2.132 -4.175,-4.247 -0.84,1.857 -1.43,3.567 -4.258,4.067 2.552,0.781 3.512,2.152 4.172,4.359 m 86.687,-84.29 c -0.537,2.8 -2.287,4.451 -5.04,5.343 1.464,0.78 3.083,1.162 3.825,2.724 -2.862,5.662 -6.188,10.963 -11.173,15.069 -7.897,6.503 -16.985,9.79 -27.146,10.281 -0.62,0.03 -1.238,0.094 -1.856,0.143 -4.769,-0.297 -9.527,-0.507 -14.214,-1.701 -4.976,-1.267 -9.928,-2.593 -14.689,-4.5 -9.246,-3.702 -18.289,-8.04 -28.223,-9.643 -8.935,-1.441 -17.495,-0.998 -24.071,6.515 -0.311,-0.726 -0.623,-1.452 -1.031,-2.406 -0.66,3.183 -1.92,5.686 -5.652,6.674 1.786,0.749 3.246,1.234 3.998,2.633 -1.681,11.074 5.908,23.072 16.456,26.017 10.232,2.857 19.974,-6.001 18.083,-16.441 -0.79,-4.364 -3.99,-6.143 -8.103,-4.473 -1.492,0.607 -2.874,1.416 -4.126,2.447 -1.123,0.926 -2.28,1.81 -3.783,2.998 0.204,-2.29 0.978,-3.798 1.641,-5.331 3.364,-7.767 8.349,-10.967 16.787,-10.46 7.682,0.463 14.07,3.922 19.689,9.021 7.425,6.739 10.909,15.26 10.367,25.09 -0.376,6.82 -3.02,13.161 -6.788,18.937 -6.805,10.43 -16.017,17.836 -27.747,22.077 -7.739,2.112 -15.593,2.518 -23.538,1.58 -3.29,-0.755 -4.272,-3.414 -5.088,-6.287 -0.664,1.522 -0.636,3.263 -2.005,4.353 -0.5,-0.1 -1,-0.2 -1.5,-0.299 -2.104,-0.89 -4.209,-1.779 -6.314,-2.668 -0.571,-0.32 -1.142,-0.639 -1.713,-0.958 -1.369,-0.791 -2.74,-1.582 -4.109,-2.372 l -0.078,0.045 c -0.206,-0.447 -0.507,-0.735 -1.047,-0.626 l 0.007,-0.05 c -0.191,-0.832 -0.903,-1.093 -1.555,-1.419 -0.981,-0.858 -1.962,-1.716 -2.942,-2.573 -2.107,-2.354 -4.215,-4.707 -6.323,-7.06 -0.15,-0.173 -0.299,-0.345 -0.449,-0.518 -1.971,-3.602 -3.941,-7.204 -5.912,-10.805 0.012,-0.153 -0.035,-0.285 -0.139,-0.397 -0.504,-1.662 -1.006,-3.325 -1.915,-4.827 l -0.268,-1.064 c -0.168,-1.121 -0.409,-2.22 -1.01,-3.204 -0.067,-0.364 -0.134,-0.728 -0.202,-1.092 l -0.397,-1.596 c -0.114,-0.367 -0.228,-0.733 -0.342,-1.1 -0.583,-4.03 -1.387,-8.042 -1.7,-12.092 -0.583,-7.536 0.267,-14.946 2.786,-22.118 l 0.42,-1.105 0.14,-0.177 -0.146,-0.144 c -0.156,-0.108 -0.311,-0.215 -0.466,-0.322 0.178,-1.304 1.96,-1.237 2.157,-2.524 1.775,-2.508 3.551,-5.015 5.326,-7.523 1.091,-0.887 2.21,-1.743 3.271,-2.665 10.257,-8.92 21.981,-13.482 35.727,-12.061 1.547,0.581 3.308,0.047 4.801,0.916 l 1.131,0.245 c 0.358,0.048 0.716,0.095 1.074,0.143 1.772,0.579 3.543,1.157 5.315,1.736 0.369,0.147 0.738,0.294 1.106,0.441 0.147,0.1 0.308,0.157 0.485,0.173 7.658,3.138 15.293,6.335 23.805,6.254 12.41,-0.118 22.672,-9.59 23.758,-21.977 0.792,-9.039 -6.047,-16.781 -15.118,-17.256 -5.875,-0.308 -11.29,1.292 -16.487,3.756 -4.823,2.286 -9.55,4.774 -14.319,7.173 -0.19,0.14 -0.379,0.279 -0.569,0.419 l 0.016,-0.041 c -0.725,0.081 -1.291,0.394 -1.597,1.088 -1.364,-0.03 -2.587,0.403 -3.716,1.141 -0.539,0.178 -1.077,0.356 -1.617,0.534 -0.27,0.156 -0.54,0.312 -0.81,0.467 -0.448,0.046 -0.896,0.091 -1.344,0.137 l -0.248,-0.036 -0.246,0.048 c -1.184,-0.097 -2.164,0.554 -3.234,0.877 -0.978,0.059 -1.961,0.074 -2.933,0.187 -8.06,0.942 -15.344,-1.114 -22.071,-5.537 -5.16,-3.392 -8.527,-8.25 -11.417,-13.533 0.571,-2.606 2.384,-4.012 5.241,-5.06 -3.632,-1.088 -5.052,-3.713 -6.008,-7.059 -0.284,1.504 -0.457,2.647 -1.117,3.633 -0.888,-6.627 0.12,-12.949 3.172,-18.906 3.76,-7.334 9.521,-11.686 17.986,-12.15 4.859,-0.267 9.561,0.6 14.279,1.491 5.235,0.99 10.428,2.279 15.812,2.207 6.744,0.84 13.279,0.199 19.599,-2.481 10.669,-4.527 14.647,-14.654 9.903,-25.256 -1.83,-4.092 -4.679,-7.538 -6.906,-11.375 0.157,-0.152 0.315,-0.306 0.471,-0.459 16.897,8.848 20.231,27.423 12.625,41.691 -3.289,6.17 -9.109,8.624 -15.395,10.349 -6.593,1.81 -13.481,2.387 -19.938,4.778 -2.434,0.902 -4.777,1.933 -6.673,3.764 -2.746,2.652 -4.397,5.611 -2.581,9.507 -1.95,-0.482 -2.859,-1.947 -3.588,-4.64 -0.546,2.563 -1.305,4.078 -3.644,4.76 1.946,0.957 3.118,2.134 3.657,3.99 0.611,-1.986 2.183,-2.96 3.57,-4.103 4.109,4.89 9.338,5.62 15.39,4.79 7.562,-1.038 13.63,-4.833 19.741,-8.945 4.219,-2.839 8.197,-6.061 12.869,-8.257 3.59,-1.686 7.335,-2.638 11.168,-3.417 9.601,-0.247 18.778,1.649 27.581,5.448 9.48,4.092 15.867,11.024 18.927,20.891 3.066,9.887 3.796,19.909 1.26,30.048 -0.416,-1.133 -0.819,-1.125 -1.046,0.06"
             style="fill:#ccd6f4;fill-opacity:1;fill-rule:nonzero;stroke:none"
             id="path128" /></g><g
           id="g130"
           transform="translate(236.401,236.5371)"><path
             d="m 0,0 c 0.001,-0.003 0.004,-0.005 0.005,-0.008 0.003,0 0.005,-10e-4 0.008,-10e-4 z"
             style="fill:#ccd6f4;fill-opacity:1;fill-rule:nonzero;stroke:none"
             id="path132" /></g><g
           id="g134"
           transform="translate(283.0465,330.8511)"><path
             d="M 0,0 C -0.013,0.025 -0.025,0.05 -0.039,0.075 -0.036,0.041 -0.033,0.007 -0.03,-0.027 Z"
             style="fill:#ccd6f4;fill-opacity:1;fill-rule:nonzero;stroke:none"
             id="path136" /></g><g
           id="g138"
           transform="translate(259.7281,368.4507)"><path
             d="m 0,0 c 3.835,-6.122 11.434,-10.94 19.654,-4.327 0.089,0.083 0.159,0.18 0.213,0.289 2.237,2.638 3.964,5.501 4.019,9.1 0.07,4.516 -2.389,6.607 -6.812,5.682 -1.732,-0.362 -3.412,-0.973 -5.359,-1.541 0.267,2.585 1.522,4.361 3.742,5.343 4.809,2.129 11.344,-0.204 13.859,-4.845 3.052,-5.63 2.49,-10.197 -1.869,-14.93 -1.147,-1.246 -2.353,-2.437 -3.532,-3.653 -0.155,-0.542 -0.585,-0.804 -1.049,-1.033 -0.925,-1.745 -1.849,-3.49 -2.774,-5.235 -0.158,-0.599 -0.316,-1.198 -0.474,-1.797 l 0.045,-0.138 c 0,0 -0.13,-0.096 -0.13,-0.095 -1.614,-7.312 0.404,-13.951 3.747,-20.344 -0.142,1.738 -0.283,3.477 -0.426,5.215 -0.554,6.696 -0.517,13.267 4.437,18.632 2.684,2.906 6.053,4.955 9.314,7.128 6.823,4.545 10.914,10.587 9.679,19.097 -1.192,8.222 -5.055,14.784 -12.888,18.472 -0.277,-0.437 -0.604,-0.85 -0.82,-1.315 -0.215,-0.465 -0.319,-0.982 -0.595,-1.877 -0.985,2.123 -1.248,4.353 -3.333,5.327 -0.361,0.153 -0.723,0.305 -1.085,0.459 l 0.044,-0.029 c -3.609,0.454 -7.213,1.009 -10.87,0.618 C 11.976,33.695 7.564,32.273 3.928,29.029 -1.748,23.966 -3.521,17.363 -3.395,10.044 -2.672,6.558 -1.934,3.087 0,0"
             style="fill:#ccd6f4;fill-opacity:1;fill-rule:nonzero;stroke:none"
             id="path140" /></g><g
           id="g142"
           transform="translate(177.4938,246.4121)"><path
             d="m 0,0 c -1.745,1.156 -3.18,2.577 -3.923,4.59 -0.451,0.138 -0.749,0.402 -0.749,0.91 -0.571,1.61 -1.296,3.179 -1.321,4.936 -0.165,0.311 -0.27,0.821 -0.508,0.894 C -7.057,11.5 -6.848,10.922 -6.89,10.678 -7.199,8.924 -7.41,7.143 -8.603,5.695 -8.842,4.948 -8.908,4.071 -9.354,3.483 -10.276,2.271 -10.708,0.335 -12.882,0.654 -12.953,0.368 -13.024,0.082 -13.093,-0.205 -14.56,-1.698 -16.815,-1.594 -18.77,-2.776 -11.812,-3.729 -7.496,-8.875 -6.753,-16.672 -4.88,-9.93 -1.941,-4.133 5.996,-2.599 4.085,-1.88 2.595,-1.318 1.105,-0.758 0.442,-1.266 0.442,-1.266 0,0"
             style="fill:#ccd6f4;fill-opacity:1;fill-rule:nonzero;stroke:none"
             id="path144" /></g><g
           id="g146"
           transform="translate(226.0768,382.9795)"><path
             d="m 0,0 c 5.244,-1.475 7.968,-4.546 8.697,-9.338 -0.142,-0.237 -0.285,-0.474 -0.428,-0.711 1.089,-0.994 1.322,-0.516 1.566,0.71 0.631,3.161 2.252,5.759 4.967,7.584 1.091,0.734 2.677,0.581 3.514,1.961 -5.25,1.35 -7.77,5.021 -8.685,10.082 C 9.583,10.552 9.912,11.524 8.927,11.02 8.877,10.665 8.827,10.31 8.777,9.955 8.333,4.788 5.631,1.461 0,0"
             style="fill:#ccd6f4;fill-opacity:1;fill-rule:nonzero;stroke:none"
             id="path148" /></g><g
           id="g150"
           transform="translate(346.713,338.3154)"><path
             d="m 0,0 c -0.076,0.341 -0.152,0.683 -0.229,1.024 -0.167,0.53 -0.332,1.06 -0.497,1.59 -0.334,1.073 -0.669,2.145 -1.003,3.217 -0.148,0.375 -0.295,0.751 -0.442,1.126 -0.174,0.353 -0.348,0.706 -0.522,1.059 -1.079,1.72 -2.159,3.44 -3.238,5.161 -2.189,2.095 -4.329,4.223 -7.102,5.612 -10.14,5.079 -25.232,1.547 -32.906,-7.543 -4.953,-5.867 -6.133,-12.45 -4.697,-19.773 0.929,-4.74 1.743,-9.578 0.556,-14.331 -1.973,-7.902 -7.283,-13.48 -13.504,-18.426 9.518,2.478 18.922,5.227 26.612,11.89 0,-0.001 0.002,-0.018 0.002,-0.018 0.306,0.368 0.613,0.735 0.918,1.102 0.407,0.517 0.816,1.034 1.223,1.55 1.495,2.663 2.381,5.519 2.714,8.55 -10e-4,0.36 -0.002,0.72 -0.003,1.08 -0.013,0.712 -0.026,1.423 -0.038,2.135 -0.544,2.91 -0.385,5.773 0.556,8.586 0.299,0.717 0.599,1.434 0.897,2.151 0.874,2.061 2.127,3.74 4.419,4.367 -0.001,0.001 0.008,-0.041 0.008,-0.041 0.401,0.58 0.971,0.715 1.63,0.617 0,0.001 -0.041,-0.081 -0.041,-0.081 0.201,0.13 0.403,0.259 0.604,0.389 0.894,0.235 1.793,0.283 2.698,0.07 0.593,0.028 1.187,0.06 1.649,-0.423 0.376,-0.193 0.752,-0.387 1.128,-0.58 2.813,-1.959 3.3,-4.298 1.579,-7.574 -0.087,-0.718 -0.441,-1.258 -1.073,-1.614 -1.897,-3.04 -4.325,-2.689 -6.948,-1.088 0.005,-0.335 0.01,-0.67 0.015,-1.006 0.34,-0.506 0.334,-1.063 0.24,-1.633 0.251,-1.051 0.502,-2.103 0.753,-3.154 0.652,-0.911 1.304,-1.822 1.956,-2.733 0.129,-0.047 0.212,-0.137 0.247,-0.27 0.897,-0.558 1.794,-1.115 2.692,-1.673 2.204,-0.686 4.448,-1.113 6.768,-1.049 0.388,0.064 0.776,0.128 1.165,0.191 l 4.233,1.362 c 0.196,0.12 0.393,0.24 0.589,0.36 1.6,1.28 3.184,2.577 4.381,4.27 0.235,0.406 0.469,0.813 0.703,1.22 1.598,3.733 1.98,7.647 1.739,11.654 C 0.054,-1.822 -0.045,-0.922 0,0"
             style="fill:#ccd6f4;fill-opacity:1;fill-rule:nonzero;stroke:none"
             id="path152" /></g><g
           id="g154"
           transform="translate(320.4859,371.0703)"><path
             d="M 0,0 C 1.856,4.412 2.343,4.971 5.943,6.885 2.543,7.772 0.976,10.193 0.025,13.286 -0.457,9.813 -2.185,7.568 -6.173,6.708 -2.138,5.916 -0.712,3.412 0,0"
             style="fill:#ccd6f4;fill-opacity:1;fill-rule:nonzero;stroke:none"
             id="path156" /></g><g
           id="g158"
           transform="translate(283.046,330.8506)"><path
             d="m 0,0 c 0,0 -0.03,-0.026 -0.03,-0.026 l 0.271,-0.37 C 0.161,-0.264 0.081,-0.132 0,0"
             style="fill:#ccd6f4;fill-opacity:1;fill-rule:nonzero;stroke:none"
             id="path160" /></g><g
           id="g162"
           transform="translate(248.4786,171.0293)"><path
             d="m 0,0 c -0.571,1.192 -1.14,2.385 -1.711,3.583 -0.425,-3.124 -1.904,-5.552 -5.728,-6.763 3.981,-0.976 5.197,-3.524 5.874,-7.349 0.653,3.622 2.135,5.828 4.79,7.136 C 2.744,-1.698 0.638,-1.548 0,0"
             style="fill:#ccd6f4;fill-opacity:1;fill-rule:nonzero;stroke:none"
             id="path164" /></g><g
           id="g166"
           transform="translate(265.2921,243.959)"><path
             d="M 0,0 C -2.163,0.886 -3.665,1.946 -4.557,3.693 -7.004,2.955 -8.36,1.22 -8.987,-1.177 -6.796,-2.17 -6.556,-4.482 -5.497,-6.658 -4.749,-3.437 -3.037,-1.342 0,0"
             style="fill:#ccd6f4;fill-opacity:1;fill-rule:nonzero;stroke:none"
             id="path168" /></g><g
           id="g170"
           transform="translate(338.9552,299.1416)"><path
             d="m 0,0 c -1.84,2.31 -2.921,4.914 -3.067,7.883 0.001,0.001 0.049,0.071 0.049,0.071 -0.275,-0.074 -0.55,-0.148 -0.824,-0.225 0.057,-4.036 -1.125,-7.445 -4.836,-9.577 -0.725,-0.343 -1.45,-0.687 -2.176,-1.03 -0.567,-0.222 -1.135,-0.443 -1.994,-0.777 1.558,-0.536 2.866,-0.561 3.793,-1.509 4.06,-1.866 4.682,-5.857 5.795,-9.986 0.972,4.695 2.513,8.478 6.719,10.488 C 3.491,-2.229 1.209,-1.512 0,0"
             style="fill:#ccd6f4;fill-opacity:1;fill-rule:nonzero;stroke:none"
             id="path172" /></g><g
           id="g174"
           transform="translate(363.7647,280.1953)"><path
             d="m 0,0 c -0.305,-2.735 -1.701,-3.907 -3.771,-5.048 2.443,-0.774 3.201,-2.631 4.124,-4.693 0.85,2.176 1.641,3.96 4.281,4.675 C 2.211,-3.98 1.168,-2.345 0,0"
             style="fill:#ccd6f4;fill-opacity:1;fill-rule:nonzero;stroke:none"
             id="path176" /></g><g
           id="g178"
           transform="translate(354.4185,343.6099)"><path
             d="M 0,0 C 0.555,-3.252 1.892,-5.925 5.268,-7.133 5.158,-8.111 4.02,-7.917 3.574,-8.533 2.47,-9.099 1.619,-9.894 1.239,-11.115 0.501,-11.954 0.502,-13.08 0.01,-14.309 c -0.928,3.156 -1.798,6.19 -5.634,6.51 -0.02,0.212 -0.038,0.425 -0.056,0.638 0.649,0.117 1.376,0.044 1.783,0.744 0.18,0.167 0.36,0.334 0.541,0.501 1.096,0.006 1.593,0.622 1.68,1.653 0.999,0.837 1.211,1.954 1.132,3.175 0.507,0.2 0.473,0.67 0.544,1.088"
             style="fill:#ececf0;fill-opacity:1;fill-rule:nonzero;stroke:none"
             id="path180" /></g><g
           id="g182"
           transform="translate(37.4274,276.7881)"><path
             d="m 0,0 c 3.385,5.102 7.805,9.335 11.741,13.973 5.077,5.984 10.29,11.854 15.339,17.861 1.467,1.747 2.633,2.258 4.566,0.619 19.037,-16.148 38.113,-32.248 57.205,-48.332 1.134,-0.956 1.722,-1.92 1.151,-3.372 -1.371,-3.852 -4.569,-6.356 -7.101,-9.298 -6.266,-7.277 -12.475,-14.609 -18.88,-21.766 -0.793,-0.887 -1.452,-1.952 -2.803,-2.09 -1.322,0.334 -1.969,1.589 -3.065,2.234 C 40.378,-35.35 22.834,-20.255 5.058,-5.436 3.169,-3.862 0.98,-2.464 0,0"
             style="fill:#acc2f6;fill-opacity:1;fill-rule:nonzero;stroke:none"
             id="path184" /></g><g
           id="g186"
           transform="translate(37.4274,276.7881)"><path
             d="m 0,0 c 7.996,-6.692 16.019,-13.354 23.982,-20.084 11.625,-9.826 23.208,-19.702 34.809,-29.557 0.752,-1.203 -0.004,-2.116 -0.684,-2.932 -1.886,-2.263 -3.501,-4.771 -5.607,-6.826 -3.254,-3.174 -6.012,-6.592 -6.928,-11.184 -6.183,4.399 -11.732,9.553 -17.475,14.486 -4.445,3.818 -9.096,7.397 -13.506,11.274 -5.873,5.163 -11.926,10.122 -17.912,15.157 -2.575,2.166 -5.233,4.239 -7.75,6.471 -4.136,3.667 -4.395,6.248 -0.595,10.207 3.526,3.672 6.539,7.755 9.917,11.535 C -1.25,-0.894 -0.587,-0.48 0,0"
             style="fill:#32449f;fill-opacity:1;fill-rule:nonzero;stroke:none"
             id="path188" /></g><g
           id="g190"
           transform="translate(98.6437,224.7295)"><path
             d="m 0,0 c 8.895,10.267 17.785,20.537 26.693,30.793 0.633,0.728 1.392,1.346 2.093,2.015 2.206,-1.897 4.411,-3.794 6.617,-5.691 0.745,-1.719 -0.659,-2.616 -1.514,-3.601 C 25.308,13.625 16.72,3.741 8.151,-6.158 6.601,-7.474 5.636,-9.396 3.786,-10.404 c -0.542,-0.155 -1.124,-0.182 -1.588,0.111 -1.684,1.063 -2.914,0.756 -4.192,-0.825 -1.244,-1.54 -1.98,-2.827 -0.311,-4.495 0.464,-0.464 0.51,-1.187 0.268,-1.862 -0.448,-1.023 -1.206,-1.806 -2.003,-2.545 -2.581,-2.39 -4.934,-2.415 -7.48,-0.101 -2.576,2.341 -2.91,4.78 -0.783,7.442 3.188,3.989 6.677,7.724 10.062,11.545 C -1.653,-0.47 -0.966,0.056 0,0"
             style="fill:#f7f7df;fill-opacity:1;fill-rule:nonzero;stroke:none"
             id="path192" /></g><g
           id="g194"
           transform="translate(106.1085,219.0625)"><path
             d="m 0,0 c 7.742,8.991 15.494,17.975 23.219,26.98 1.622,1.893 3.148,3.867 4.719,5.804 0.885,0.348 1.901,1.072 2.584,-0.105 0.603,-1.039 -0.292,-1.81 -0.93,-2.543 C 20.395,19.584 11.196,9.033 1.998,-1.518 0.66,-1.896 0.129,-1.213 0,0"
             style="fill:#acc2f6;fill-opacity:1;fill-rule:nonzero;stroke:none"
             id="path196" /></g><g
           id="g198"
           transform="translate(98.6437,224.7295)"><path
             d="m 0,0 c -3.835,-4.443 -7.685,-8.875 -11.501,-13.335 -2.201,-2.571 -1.977,-3.746 0.767,-6.244 2.176,-1.982 4.122,-2.222 6.082,0.238 0.742,0.933 1.61,1.765 2.421,2.644 1.281,0.173 2.136,-0.166 2.01,-1.678 -0.905,-1.084 -1.74,-2.238 -2.729,-3.239 -3.08,-3.118 -5.835,-3.19 -9.133,-0.276 -1.223,1.081 -2.376,2.242 -3.561,3.366 -1.286,4.046 1.382,6.605 3.689,9.108 3.448,3.74 6.798,7.529 9.529,11.834 C -1.304,1.927 -0.53,1.085 0,0"
             style="fill:#7a86d2;fill-opacity:1;fill-rule:nonzero;stroke:none"
             id="path200" /></g><g
           id="g202"
           transform="translate(98.423,206.3545)"><path
             d="m 0,0 c -0.435,0.842 -1.192,1.295 -2.011,1.677 -0.457,0.457 -0.843,1.037 -1.385,1.346 -1.845,1.059 -1.812,2.177 -0.278,3.472 0.246,0.207 0.486,0.457 0.637,0.737 1.779,3.297 3.99,3.757 6.704,1.052 C 4.792,8.139 5.811,7.862 5.92,6.461 8.9,4.707 8.204,1.982 7.805,-0.667 7.598,-2.047 7.408,-3.43 7.149,-5.234 4.587,-3.359 2.293,-1.68 0,0"
             style="fill:#ff4c00;fill-opacity:1;fill-rule:nonzero;stroke:none"
             id="path204" /></g><g
           id="g206"
           transform="translate(104.3429,212.8154)"><path
             d="M 0,0 C -0.751,0.608 -1.501,1.216 -2.252,1.823 -0.913,3.298 0.427,4.772 1.767,6.247 2.432,5.742 3.099,5.236 3.765,4.73 2.509,3.153 1.254,1.577 0,0"
             style="fill:#7a86d2;fill-opacity:1;fill-rule:nonzero;stroke:none"
             id="path208" /></g><g
           id="g210"
           transform="translate(116.9371,380.5542)"><path
             d="m 0,0 c 0,0 0,0 0,0 v 0 c -2.192,-0.378 -3.475,-2.073 -3.935,-3.846 -1.016,-3.911 -1.806,-7.913 -1.811,-12.004 1.501,1.053 3.014,2.093 3.88,3.793 2.158,-1.134 4.389,-1.373 6.719,-0.476 0.721,4.098 1.441,8.196 2.163,12.295 C 4.684,0.06 2.383,1.226 0,0"
             style="fill:#32449f;fill-opacity:1;fill-rule:nonzero;stroke:none"
             id="path212" /></g><g
           id="g214"
           transform="translate(107.1129,318.749)"><path
             d="m 0,0 v 0 c -1.808,-0.39 -2.738,-1.789 -3.667,-3.188 -1.163,-3.879 -1.854,-7.834 -1.916,-11.891 0.861,1.932 2.533,2.92 4.349,3.742 2.134,0.488 4.181,-0.272 6.268,-0.442 0.605,3.894 1.21,7.789 1.815,11.684 C 4.572,0.362 2.298,1.054 0,0"
             style="fill:#32449f;fill-opacity:1;fill-rule:nonzero;stroke:none"
             id="path216" /></g><g
           id="g218"
           transform="translate(114.4684,364.4487)"><path
             d="m 0,0 v 0 c -1.718,-0.602 -2.979,-1.723 -3.809,-3.338 -1.07,-3.408 -1.662,-6.895 -1.727,-10.469 1.008,2.084 2.667,3.372 4.877,3.987 1.949,0.112 3.866,-0.097 5.753,-0.59 0.542,3.418 1.083,6.836 1.625,10.254 C 4.486,0.2 2.261,0.865 0,0"
             style="fill:#32449f;fill-opacity:1;fill-rule:nonzero;stroke:none"
             id="path220" /></g><g
           id="g222"
           transform="translate(123.9527,380.3159)"><path
             d="m 0,0 c 17.009,-2.678 34.018,-5.365 51.031,-8.018 1.724,-0.269 2.203,-1.122 1.936,-2.784 C 49.14,-34.648 45.345,-58.5 41.542,-82.35 c -0.885,-0.32 -1.764,-0.113 -2.644,0.027 -15.788,2.514 -31.58,5.004 -47.367,7.523 -1.239,0.197 -2.535,0.278 -3.503,1.254 -0.497,0.724 -0.523,1.548 -0.4,2.36 0.501,3.302 0.854,6.629 1.67,9.877 0.736,6.73 1.998,13.381 3.05,20.063 0.797,5.065 1.402,10.164 2.539,15.172 0.346,3.414 0.821,6.808 1.622,10.149 0.057,1.273 0.22,2.529 0.603,3.749 0.223,3.307 0.907,6.546 1.449,9.805 C -1.278,-1.401 -0.893,-0.539 0,0"
             style="fill:#646cce;fill-opacity:1;fill-rule:nonzero;stroke:none"
             id="path224" /></g><g
           id="g226"
           transform="translate(119.5626,354.0381)"><path
             d="m 0,0 c -8.41,-49.079 -1.155,-30.331 -16.318,-37.83 2.13,12.262 3.011,24.049 6.315,36.382 C -8.148,1.501 -2.255,2.677 0,0"
             style="fill:#ccd6f4;fill-opacity:1;fill-rule:nonzero;stroke:none"
             id="path228" /></g><g
           id="g230"
           transform="translate(112.1476,306.9697)"><path
             d="m 0,0 c 16.814,-2.675 33.63,-5.35 50.444,-8.029 1.019,-0.162 2.094,-0.178 2.903,-0.974 -0.077,-0.553 -0.154,-1.106 -0.231,-1.659 -0.685,-0.98 -1.641,-1.002 -2.673,-0.758 -17.7,2.794 -35.396,5.608 -53.092,8.422 -1.419,0.226 -2.813,0.512 -3.942,-0.721 -0.388,-0.624 -0.893,-1.177 -1.156,-1.887 -0.906,-2.454 0.43,-4.788 2.983,-5.227 0.871,-0.15 1.78,-0.161 2.577,-0.618 0.885,-1.008 1.953,-0.378 2.96,-0.32 1.135,-0.066 2.246,-0.256 3.339,-0.55 0.941,-0.189 1.4,-1.837 2.722,-0.893 12.224,-1.742 24.384,-3.845 36.577,-5.706 1.157,0.006 2.275,-0.35 3.423,-0.434 0.76,-0.057 1.598,-0.359 2.208,0.421 0.17,0.141 0.365,0.234 0.58,0.282 1.056,-0.472 1.277,-1.576 1.83,-2.429 -0.037,-1.512 -0.681,-2.012 -2.264,-1.757 -18.39,2.959 -36.795,5.825 -55.183,8.797 -4.725,0.764 -6.733,5.622 -4.624,10.741 0.224,2.863 2.521,3.569 4.642,4.466 C -3.851,1.464 -1.756,1.595 0,0"
             style="fill:#877af3;fill-opacity:1;fill-rule:nonzero;stroke:none"
             id="path232" /></g><g
           id="g234"
           transform="translate(111.1915,364.7041)"><path
             d="M 0,0 C 1.625,3.88 5.89,4.559 10.598,3.317 10.532,0.875 9.901,-0.002 9.271,-0.313 8.155,-0.864 7.033,0.351 5.207,0.25 3.47,0.155 2.084,-1.078 1.105,-2.27 0.529,-2.787 -0.173,-3.313 -0.507,-3.109 -0.977,-2.821 -0.502,-1.2 0,0"
             style="fill:#ccd6f4;fill-opacity:1;fill-rule:nonzero;stroke:none"
             id="path236" /></g><g
           id="g238"
           transform="translate(163.0729,296.0894)"><path
             d="M 0,0 C 0.73,0.073 1.46,0.145 2.19,0.218 1.636,-3.254 1.081,-6.726 0.527,-10.199 c -1.102,0.342 -2.059,0.797 -1.748,2.241 -0.529,0.274 -0.583,0.765 -0.588,1.279 0.021,0.484 0.044,0.97 0.17,1.442 0.062,0.466 0.105,0.935 0.224,1.393 0.048,0.465 0.115,0.928 0.221,1.385 0.05,0.353 0.068,0.711 0.182,1.053 C -0.878,-0.791 -0.654,-0.24 0,0"
             style="fill:#32449f;fill-opacity:1;fill-rule:nonzero;stroke:none"
             id="path240" /></g><g
           id="g242"
           transform="translate(128.2608,334.5015)"><path
             d="m 0,0 c 0.757,4.783 1.495,9.569 2.282,14.348 0.437,2.649 1.348,3.33 3.956,2.924 7.804,-1.214 15.605,-2.443 23.399,-3.715 3.232,-0.527 3.862,-1.436 3.345,-4.748 -1.376,-8.834 -2.787,-17.663 -4.204,-26.491 -0.141,-0.878 -0.416,-1.735 -0.632,-2.602 -0.351,-1.403 -1.276,-1.948 -2.666,-1.729 -8.61,1.361 -17.22,2.723 -25.827,4.102 -1.964,0.315 -2.231,1.676 -1.965,3.341 C -1.535,-9.714 -0.769,-4.857 0,0"
             style="fill:#ccd6f4;fill-opacity:1;fill-rule:nonzero;stroke:none"
             id="path244" /></g><g
           id="g246"
           transform="translate(148.1651,360.0615)"><path
             d="m 0,0 c -4.417,0.701 -8.832,1.416 -13.253,2.094 -1.304,0.2 -2.478,0.652 -2.25,2.171 0.216,1.447 1.371,1.735 2.741,1.514 C -3.931,4.357 4.904,2.959 13.741,1.576 15.083,1.365 16.072,0.912 15.788,-0.696 15.492,-2.37 14.283,-2.268 13.03,-2.068 8.687,-1.375 4.343,-0.689 0,0"
             style="fill:#ccd6f4;fill-opacity:1;fill-rule:nonzero;stroke:none"
             id="path248" /></g><g
           id="g250"
           transform="translate(111.2565,301.1719)"><path
             d="m 0,0 c 2.483,0.585 4.811,-0.423 7.202,-0.741 0.949,-0.126 0.66,-1.014 0.585,-1.64 -0.223,-1.837 -0.486,-3.67 -0.733,-5.504 -1.323,-1.618 -1.168,0.818 -1.942,0.708 -1.216,1 -2.508,1.525 -4.028,0.652 -0.692,0.309 -1.747,-2.402 -2.157,0.258 -0.225,0.429 -0.484,0.848 -0.415,1.365 0.022,0.477 0.055,0.952 0.177,1.417 0.056,0.465 0.109,0.933 0.226,1.39 0.054,0.472 0.135,0.938 0.325,1.38 C -0.599,-0.378 -0.372,-0.112 0,0"
             style="fill:#ff4c00;fill-opacity:1;fill-rule:nonzero;stroke:none"
             id="path252" /></g><g
           id="g254"
           transform="translate(112.3409,294.6465)"><path
             d="M 0,0 C 2.266,1.729 2.266,1.729 4.028,-0.651 2.685,-0.435 1.343,-0.217 0,0"
             style="fill:#e4eae6;fill-opacity:1;fill-rule:nonzero;stroke:none"
             id="path256" /></g><g
           id="g258"
           transform="translate(163.0729,296.0898)"><path
             d="m 0,0 c -18.231,2.908 -36.462,5.82 -54.695,8.716 -1.575,0.25 -2.969,-0.056 -3.776,-1.64 h 10e-4 c -2.622,-3.663 -1.211,-7.148 3.183,-7.864 0.8,-0.13 1.599,-0.264 2.398,-0.396 0.07,0.475 0.141,0.95 0.211,1.425 0.074,0.44 0.149,0.879 0.223,1.319 l 0.195,1.335 c 0.074,0.442 0.148,0.886 0.222,1.329 0.038,0.146 0.076,0.292 0.113,0.437 1.354,-0.267 2.734,-0.33 4.09,-0.565 2.915,-0.507 2.897,-0.521 2.59,-3.406 -0.125,-1.174 -0.801,-2.489 0.483,-3.493 0.885,-0.127 1.771,-0.244 2.653,-0.382 11.699,-1.832 23.398,-3.667 35.097,-5.502 1.318,-0.229 2.646,-0.415 3.952,-0.699 1.199,-0.261 1.668,0.227 1.643,1.37 v 0 c 0,0 0.196,0.058 0.196,0.058 0.03,0.458 0.059,0.914 0.09,1.371 0.063,0.454 0.127,0.909 0.19,1.364 0.076,0.431 0.151,0.86 0.227,1.29 0.066,0.455 0.132,0.909 0.198,1.363 0.038,0.295 0.075,0.589 0.113,0.883 C -0.269,-1.125 -0.134,-0.562 0,0"
             style="fill:#f7f7df;fill-opacity:1;fill-rule:nonzero;stroke:none"
             id="path260" /></g><g
           id="g262"
           transform="translate(426.0191,119.8467)"><path
             d="M 0,0 C -0.267,0.923 -0.534,1.846 -0.801,2.768 -2.03,2.216 -3.28,2.536 -4.518,2.669 c 0.426,-0.016 0.851,-0.03 1.278,-0.047 0.846,-0.033 1.632,-0.121 2.306,0.496 -0.891,1.955 -2.003,3.843 -2.624,5.88 -1.036,3.4 -4.215,5.317 -5.499,8.542 -0.784,1.969 -1.648,4.002 -3.456,5.364 -0.779,0.626 -1.676,0.894 -2.665,1.001 -11.155,1.218 -22.164,3.347 -33.201,5.302 -6.092,1.033 -12.117,2.409 -18.182,3.58 -12.222,2.361 -24.502,4.1 -36.979,4.127 -2.929,-0.05 -5.858,-0.018 -8.791,-0.027 -3.219,0.071 -6.373,-0.521 -9.535,-0.963 -14.175,-1.984 -27.343,-6.489 -38.42,-15.903 -2.797,-2.376 -5.831,-4.652 -7.368,-8.209 0.02,-0.806 0.614,-1.166 1.212,-1.46 4.933,-2.434 8.31,-6.38 10.879,-11.123 0.459,-0.849 0.882,-1.749 1.967,-1.973 1.537,-0.267 3.032,0.001 4.514,0.379 11.668,3.033 23.604,4.046 35.591,4.305 8.475,0.183 16.945,-0.585 25.381,-1.424 10.797,-1.076 21.602,-2.063 32.408,-3.026 1.866,-0.003 3.696,-0.453 5.566,-0.454 15.879,-0.007 31.758,-0.009 47.636,0.011 1.027,10e-4 2.115,-0.115 2.948,0.727 C 0.298,-1.483 0.149,-0.741 0,0"
             style="fill:#ceb297;fill-opacity:1;fill-rule:nonzero;stroke:none"
             id="path264" /></g><g
           id="g266"
           transform="translate(229.9342,154.6416)"><path
             d="M 0,0 C -9.287,4.423 -19.32,5.483 -29.376,6.062 -38.692,6.6 -47.979,5.778 -57.232,4.534 c -16.431,-2.21 -32.502,-6.212 -48.705,-9.56 -10.442,-2.16 -20.933,-4.04 -31.458,-5.735 -1.406,-0.226 -2.806,-0.329 -4.028,-1.141 -1.207,-0.981 -1.578,-2.482 -2.325,-3.747 -1.167,-1.982 -1.869,-4.57 -3.564,-5.817 -1.901,-1.398 -2.514,-3.07 -3.203,-4.977 -0.958,-2.649 -1.979,-5.274 -2.973,-7.91 0.615,-0.591 1.395,-0.412 2.121,-0.432 0.298,-0.009 0.597,-0.011 0.896,-0.017 -0.53,0 -1.06,-0.002 -1.59,0.002 -0.668,0.005 -1.35,0.034 -1.903,-0.455 l -0.447,-1.755 c 1.044,-0.998 2.37,-0.745 3.6,-0.733 12.328,0.115 24.664,-0.393 36.984,0.45 6.811,0.555 13.636,0.894 20.453,1.313 7.203,0.442 14.394,1.035 21.589,1.553 9.943,0.716 19.889,1.296 29.85,1.615 6.184,0.198 12.335,-0.432 18.497,-0.848 6.709,-0.453 13.32,-1.392 19.748,-3.439 0.751,-0.141 1.491,-0.383 2.271,-0.188 0.973,0.449 1.294,1.405 1.737,2.253 3.765,7.214 9.616,11.375 17.761,12.253 1.133,0.123 2.419,0.044 3.155,1.245 10e-4,1.088 -0.486,2.018 -0.992,2.931 C 15.558,-10.161 8.648,-4.118 0,0"
             style="fill:#ceb297;fill-opacity:1;fill-rule:nonzero;stroke:none"
             id="path268" /></g><g
           id="g270"
           transform="translate(329.7843,210.2734)"><path
             d="m 0,0 c 6.505,4.6 13.457,8.453 20.53,12.074 6.075,3.111 12.271,5.985 18.414,8.963 2.269,0.856 4.538,1.71 7.161,2.698 C 44.682,18.636 43.349,13.88 42.031,9.119 41.583,7.501 40.08,7.88 39.052,7.7 31.952,6.458 24.899,4.999 17.888,3.338 11.886,1.915 5.948,0.259 0.127,-1.799 -0.49,-2.018 -1.085,-2.414 -1.8,-2.226 -2.004,-0.833 -0.326,-0.964 0,0"
             style="fill:#bfa38c;fill-opacity:1;fill-rule:nonzero;stroke:none"
             id="path272" /></g><g
           id="g274"
           transform="translate(329.7843,210.2734)"><path
             d="M 0,0 C 0.119,-1.323 -1.67,-1.104 -1.8,-2.226 -2.781,-2.83 -3.777,-3.401 -4.934,-3.604 -3.646,-1.914 -1.708,-1.114 0,0"
             style="fill:#92806c;fill-opacity:1;fill-rule:nonzero;stroke:none"
             id="path276" /></g><g
           id="g278"
           transform="translate(272.0084,117.4932)"><path
             d="m 0,0 c 1.524,0.087 3.063,0.034 4.547,0.494 26.186,0.801 52.378,0.149 78.567,0.344 3.939,0.029 7.875,-0.135 11.804,-0.47 1.025,-0.088 2.08,-0.181 3.104,0.116 17.543,-0.853 35.098,-0.215 52.646,-0.408 1.263,-0.014 2.527,0.033 3.79,0.052 2.441,-0.343 3.64,-1.436 3.506,-3.196 -0.133,-1.773 -1.439,-2.69 -3.926,-2.691 C 105.284,-5.764 56.531,-5.761 7.777,-5.778 6.845,-5.779 5.825,-5.443 4.99,-6.193 3.288,-6.487 1.575,-6.459 -0.106,-6.144 c -1.364,0.257 -2.626,0.776 -2.483,2.564 0.138,0.465 0.375,0.818 0.925,0.535 1.806,-0.93 1.872,0.026 1.543,1.41 C -0.255,-1.072 -0.495,-0.512 0,0"
             style="fill:#646cce;fill-opacity:1;fill-rule:nonzero;stroke:none"
             id="path280" /></g><g
           id="g282"
           transform="translate(75.5231,117.6318)"><path
             d="m 0,0 c 12.331,0.059 24.666,-0.478 36.991,0.335 1.256,0.083 2.522,0.025 3.783,0.032 3.49,-0.464 6.977,0.075 10.46,0.143 3.196,0.061 6.399,0.177 9.596,0.181 28.241,0.037 56.482,0.006 84.722,0.053 1.934,0.004 3.81,-0.565 5.742,-0.348 0.565,-0.162 1.131,-0.324 1.696,-0.486 0.383,-0.466 0.154,-0.963 0.072,-1.452 -0.104,-0.626 -0.477,-1.423 0.299,-1.744 0.846,-0.351 1.007,0.564 1.332,1.083 0.401,0.638 0.53,1.606 1.665,1.328 1.126,-0.772 1.474,-1.853 1.049,-3.098 -0.498,-1.461 -1.595,-2.278 -3.139,-2.426 -2.2,-0.212 -4.438,0.125 -6.615,-0.446 -0.518,1.351 -1.691,0.932 -2.659,0.933 -36.845,0.012 -73.691,0.01 -110.536,0.01 -11.263,0 -22.525,0.002 -33.788,-10e-4 -1.198,0 -2.407,-0.078 -3.295,0.973 -0.737,0.872 -0.936,1.84 -0.55,2.916 C -2.64,-0.522 -1.421,-0.1 0,0"
             style="fill:#646cce;fill-opacity:1;fill-rule:nonzero;stroke:none"
             id="path284" /></g><g
           id="g286"
           transform="translate(257.7047,131.5537)"><path
             d="m 0,0 c 0.303,-0.059 0.605,-0.116 0.909,-0.175 6.346,-2.813 10.348,-7.888 13.395,-13.886 0.126,-0.489 0.197,-1.002 0.39,-1.463 0.393,-0.943 0.612,-1.908 -0.365,-2.546 -1.195,-0.781 -1.631,0.376 -2.21,1.07 -2.353,6.993 -6.425,12.644 -13.799,14.583 -10.263,2.698 -20.547,-1.876 -24.651,-12.405 -0.313,-0.741 -0.61,-1.488 -0.941,-2.219 -0.35,-0.772 -0.82,-1.523 -1.81,-1.107 -0.868,0.364 -1.044,1.175 -0.791,2.047 0.204,0.704 0.453,1.394 0.682,2.089 2.516,5.483 6.01,10.055 11.602,12.764 3.421,1.657 7.056,2.218 10.786,2.422 C -6.255,0.6 -5.58,0.883 -4.944,0.897 -4.023,0.823 -3.103,0.749 -2.181,0.674 -1.453,0.448 -0.727,0.225 0,0"
             style="fill:#ff4c00;fill-opacity:1;fill-rule:nonzero;stroke:none"
             id="path288" /></g><g
           id="g290"
           transform="translate(313.2179,156.1289)"><path
             d="M 0,0 C 3.135,0.693 6.271,0.687 9.406,0.002 6.271,0.001 3.135,0 0,0"
             style="fill:#cac8b3;fill-opacity:1;fill-rule:nonzero;stroke:none"
             id="path292" /></g><g
           id="g294"
           transform="translate(199.0314,128.332)"><path
             d="m 0,0 c -0.03,2.228 -0.061,4.456 -0.091,6.684 -0.419,2.226 0.221,4.485 -0.2,6.712 -0.026,0.335 -0.054,0.671 -0.081,1.007 -0.404,0.438 -0.426,0.893 -0.062,1.366 0.013,2.781 0.025,5.561 0.038,8.342 0.182,0.193 0.405,0.28 0.669,0.266 6.944,0.073 13.769,-0.812 20.481,-2.578 0.859,-0.227 1.751,-0.373 2.479,-0.948 0.2,-0.194 0.253,-0.422 0.163,-0.685 -0.17,-8.733 -0.339,-17.466 -0.518,-26.693 -1.617,1.188 -2.844,2.09 -4.071,2.991 -0.959,0.303 -1.818,0.789 -2.605,1.411 -0.248,0.16 -0.472,0.351 -0.703,0.531 C 10.489,2.31 12.379,2.107 7.01,-1.067 6.508,-1.445 5.891,-1.532 5.32,-1.735 3.495,-2.148 2.185,-3.555 0.357,-4.339 -0.2,-3.383 0.236,-2.32 -0.025,-1.386 -0.316,-0.919 -0.348,-0.456 0,0"
             style="fill:#ff4c00;fill-opacity:1;fill-rule:nonzero;stroke:none"
             id="path296" /></g><g
           id="g298"
           transform="translate(272.9068,111.791)"><path
             d="m 0,0 c -1.643,0.241 -3.443,0.294 -3.083,2.764 0.478,0.64 0.235,1.311 -0.031,1.903 -1.624,3.615 -3.571,7.011 -6.688,9.591 -3.974,3.289 -8.505,4.553 -13.661,4.28 -7.904,-0.419 -13.605,-4.168 -17.509,-10.88 -0.463,-0.797 -1.02,-1.68 -0.561,-2.718 0.978,-0.805 1.637,-1.793 1.03,-3.052 -0.609,-1.267 -1.626,-2.004 -3.171,-1.909 -1.464,0.091 -2.938,0.009 -4.408,0.022 -0.77,0.007 -1.502,-0.007 -1.648,-1.005 0.49,-2.2 2.062,-2.977 4.103,-2.979 15.189,-0.018 30.378,-0.023 45.567,0.005 2.274,0.005 3.813,1.081 4.151,3.487 C 2.824,0.474 1.359,-0.2 0,0"
             style="fill:#32449f;fill-opacity:1;fill-rule:nonzero;stroke:none"
             id="path300" /></g><g
           id="g302"
           transform="translate(348.0147,120.0625)"><path
             d="m 0,0 c -15.346,1.548 -30.692,3.11 -46.149,1.947 -8.544,-0.642 -17.036,-1.661 -25.31,-4.022 0.616,-0.632 1.406,-0.373 2.121,-0.373 29.59,-0.013 59.181,-0.015 88.772,0.002 0.862,0 1.798,-0.29 2.582,0.361 C 14.677,-1.393 7.334,-0.74 0,0"
             style="fill:#32449f;fill-opacity:1;fill-rule:nonzero;stroke:none"
             id="path304" /></g><g
           id="g306"
           transform="translate(226.8175,118.0273)"><path
             d="m 0,0 c -1.568,0.471 -3.115,1.03 -4.707,1.397 -11.776,2.71 -23.766,3.263 -35.769,2.98 -23.4,-0.553 -46.685,-3.097 -70.045,-4.405 0.691,-0.67 1.559,-0.385 2.346,-0.386 35.357,-0.012 70.715,-0.009 106.072,0.007 C -1.392,-0.406 -0.593,-0.681 0,0"
             style="fill:#32449f;fill-opacity:1;fill-rule:nonzero;stroke:none"
             id="path308" /></g><g
           id="g310"
           transform="translate(199.069,152.5195)"><path
             d="M 0,0 C 0.895,2.054 2.76,1.821 4.49,1.907 11.023,1.55 17.466,0.656 23.712,-1.382 24.284,-2.254 24.344,-3.022 23.272,-3.563 17.98,-2.27 12.64,-1.276 7.224,-0.643 5.292,-0.417 3.385,-0.452 1.471,-0.512 0.848,-0.532 0.304,-0.728 0,0"
             style="fill:#ce3a29;fill-opacity:1;fill-rule:nonzero;stroke:none"
             id="path312" /></g><g
           id="g314"
           transform="translate(375.5518,143.0615)"><path
             d="m 0,0 c -8.051,1.697 -16.144,3.205 -24.229,4.732 -9.271,1.752 -18.633,2.861 -28.045,3.33 -13.235,0.66 -26.049,-1.625 -38.455,-6.225 -3.811,-1.413 -7.567,-2.968 -11.002,-5.185 3.668,1.205 7.234,2.663 10.876,3.897 9.679,3.277 19.579,5.45 29.841,5.799 10.75,0.365 21.345,-0.903 31.933,-2.603 14.28,-2.292 28.465,-5.085 42.692,-7.655 2.72,-0.491 5.399,-1.371 8.246,-1.094 C 14.573,-3.326 7.312,-1.541 0,0"
             style="fill:#96806c;fill-opacity:1;fill-rule:nonzero;stroke:none"
             id="path316" /></g><g
           id="g318"
           transform="translate(273.7706,131.5)"><path
             d="M 0,0 C 24.967,10.534 50.84,10.632 77.083,6.463 50.731,11.889 24.781,12.686 0,0"
             style="fill:#96806c;fill-opacity:1;fill-rule:nonzero;stroke:none"
             id="path320" /></g><g
           id="g322"
           transform="translate(282.4259,126.5859)"><path
             d="M 0,0 C 20.019,6.288 40.357,5.513 60.782,2.848 40.31,6.578 19.939,8.042 0,0"
             style="fill:#96806c;fill-opacity:1;fill-rule:nonzero;stroke:none"
             id="path324" /></g><g
           id="g326"
           transform="translate(201.3893,154.7422)"><path
             d="m 0,0 c -7.439,0.02 -14.863,-0.008 -22.292,-0.783 -7.164,-0.748 -14.268,-1.782 -21.348,-3.052 -8.549,-1.533 -16.929,-3.823 -25.408,-5.668 -4.048,-0.881 -8.035,-2.045 -12.049,-3.081 0.513,-0.32 0.965,-0.357 1.385,-0.257 14.137,3.381 28.332,6.424 42.737,8.515 11.371,1.65 22.755,2.345 34.221,2.028 0.144,0.029 0.289,0.054 0.434,0.075 1.356,0.967 3.121,0.97 4.489,1.908 C 1.502,0.166 0.73,-0.002 0,0"
             style="fill:#96806c;fill-opacity:1;fill-rule:nonzero;stroke:none"
             id="path328" /></g><g
           id="g330"
           transform="translate(197.068,136.6475)"><path
             d="M 0,0 C -8.552,0.626 -17.115,0.211 -25.643,-0.388 -32.804,-0.89 -39.949,-1.744 -47.05,-2.9 c -4.688,-0.764 -9.414,-1.3 -14.019,-2.564 20.902,2.655 41.78,5.577 62.943,3.832 C 1.928,0.609 1.248,-0.092 0,0"
             style="fill:#96806c;fill-opacity:1;fill-rule:nonzero;stroke:none"
             id="path332" /></g><g
           id="g334"
           transform="translate(144.5963,124.8984)"><path
             d="m 0,0 c 18.09,1.953 36.217,2.854 54.41,2.048 l 0.025,1.386 C 36.194,3.813 18.002,3.414 0,0"
             style="fill:#96806c;fill-opacity:1;fill-rule:nonzero;stroke:none"
             id="path336" /></g><g
           id="g338"
           transform="translate(198.6598,142.7344)"><path
             d="M 0,0 C -0.021,0.455 -0.042,0.91 -0.062,1.366 -0.905,1.75 -1.802,1.707 -2.697,1.709 -11.622,1.738 -20.493,0.92 -29.341,-0.125 -34.505,-0.734 -39.638,-1.607 -44.785,-2.361 -29.882,-0.883 -15.03,1.109 0,0"
             style="fill:#96806c;fill-opacity:1;fill-rule:nonzero;stroke:none"
             id="path340" /></g><g
           id="g342"
           transform="translate(222.7809,151.1377)"><path
             d="m 0,0 c 0.09,-0.774 -0.017,-1.51 -0.44,-2.182 0.029,-0.152 0.057,-0.305 0.086,-0.459 8.042,-1.917 14.692,-6.3 20.778,-11.705 C 15.359,-7.079 8.217,-2.775 0,0"
             style="fill:#96806c;fill-opacity:1;fill-rule:nonzero;stroke:none"
             id="path344" /></g><g
           id="g346"
           transform="translate(214.4474,126.7939)"><path
             d="m 0,0 c -2.868,0.655 -5.726,1.515 -8.713,0.702 -0.64,-0.025 -1.058,-0.391 -1.382,-0.899 4.496,-0.6 8.991,-1.2 13.487,-1.801 -0.715,0.58 -1.43,1.16 -2.145,1.74 C 0.768,-0.465 0.415,-0.095 0,0"
             style="fill:#96806c;fill-opacity:1;fill-rule:nonzero;stroke:none"
             id="path348" /></g><g
           id="g350"
           transform="translate(363.1895,230.0791)"><path
             d="m 0,0 c -4.588,-1.354 -11.579,-3.513 -19.977,-6.512 -28.253,-10.092 -48.486,-17.55 -65.431,-34.955 -4.126,-4.238 -9.938,-10.998 -15.414,-20.809 -0.618,18.088 -2.953,32.808 -5.104,43.26 -1.857,9.018 -3.281,15.784 -6.643,24.826 -4.697,12.628 -11.323,24.266 -19.23,35.203 -4.205,5.817 -8.556,11.511 -12.968,17.166 -1.027,1.317 -2.008,1.907 -3.705,0.821 -7.366,-4.718 -14.799,-9.332 -22.22,-13.964 -5.709,-3.563 -11.436,-7.098 -17.155,-10.645 3.889,-3.582 7.77,-7.179 11.556,-10.864 5.445,-5.301 10.836,-10.663 15.977,-16.278 3.923,-4.285 7.937,-8.5 11.749,-12.878 8.226,-9.448 16.119,-19.182 23.288,-29.468 5.2,-7.463 10.305,-14.987 14.116,-23.307 2.95,-6.438 4.85,-13.13 5.607,-20.164 0.059,-0.546 -0.197,-1.459 0.601,-1.575 -0.006,-0.011 -0.009,-0.024 -0.015,-0.036 -10e-4,-4.671 -10e-4,-9.341 -10e-4,-14.361 4.174,5.742 8.091,11.13 12.006,16.518 0.973,-0.082 1.342,0.932 1.817,1.553 7.016,9.18 14.463,18.011 22.283,26.495 9.189,9.969 19.232,19.036 30.555,26.589 l -0.031,-0.025 c 1.676,1.252 3.586,2.132 5.297,3.325 11.699,7.597 24.027,14.023 36.741,19.733 0.223,0.1 0.814,0.432 1.637,0.852 2.95,1.505 5.482,2.636 7.364,3.43 C 9.914,3.086 5.461,1.726 0,0"
             style="fill:#f7f7df;fill-opacity:1;fill-rule:nonzero;stroke:none"
             id="path352" /></g><g
           id="g354"
           transform="translate(247.172,155.7031)"><path
             d="m 0,0 c -0.586,1.291 -1.314,2.509 -2.222,3.612 -0.333,0.29 -0.659,0.587 -0.983,0.886 -0.095,0.248 -0.198,0.49 -0.334,0.712 -5.92,9.672 -12.881,18.54 -20.613,26.775 -5.222,5.562 -10.624,10.949 -16.492,15.837 -8.302,6.918 -16.958,13.352 -25.841,19.48 -2.385,1.642 -4.77,3.286 -7.155,4.929 0.001,-0.188 -0.035,-0.345 -0.096,-0.483 -1.683,1.841 -3.607,3.307 -6.159,3.797 -0.235,-0.285 -0.419,-0.649 -0.714,-0.845 -3.433,-2.286 -6.708,-4.784 -10.022,-7.238 -7.421,-5.497 -14.169,-11.756 -20.915,-18.006 -6.777,-6.279 -13.054,-13.077 -19.414,-19.78 -0.415,-0.437 -0.853,-0.846 -0.844,-1.513 0.485,-0.678 1.22,-0.892 1.969,-0.86 2.179,0.09 4.293,-0.445 6.439,-0.596 8.603,-0.606 17.184,-1.423 25.769,-2.219 9.62,-0.891 19.223,-1.886 28.807,-3.115 12.856,-1.647 25.61,-3.775 38.113,-7.25 8.658,-2.406 17.054,-5.378 24.243,-11.026 1.71,-1.344 3.163,-2.939 4.707,-4.449 0.517,-0.505 1.198,-1.309 1.876,-0.86 C 0.983,-1.638 0.322,-0.71 0,0"
             style="fill:#f7f7df;fill-opacity:1;fill-rule:nonzero;stroke:none"
             id="path356" /></g><g
           id="g358"
           transform="translate(253.5856,134.2852)"><path
             d="m 0,0 c -0.237,1.654 -0.378,3.333 -1.184,4.849 -0.323,0.45 -0.542,0.961 -0.784,1.458 -1.637,7.487 -6.026,13.328 -11.845,18.161 -5.094,4.229 -11.194,6.655 -17.411,8.819 -12.752,4.439 -25.949,6.807 -39.26,8.655 -6.975,0.97 -13.966,1.816 -20.995,2.362 -7.24,0.562 -14.46,1.379 -21.688,2.085 -2.834,0.083 -5.633,0.75 -8.486,0.506 -0.013,-0.016 -0.025,-0.033 -0.038,-0.047 -0.038,0.092 -0.081,0.188 -0.144,0.29 -1.883,0.71 -3.89,0.656 -5.842,0.939 -0.995,0.145 -2.035,0.467 -2.936,-0.329 -0.015,-0.471 -0.219,-0.846 -0.547,-1.18 -6.228,-6.326 -12.022,-13.046 -17.923,-19.672 -5.412,-6.079 -10.894,-12.091 -15.992,-18.442 8.481,0.949 16.868,2.512 25.225,4.164 14.552,2.877 29.034,6.105 43.568,9.076 9.968,2.038 20.044,3.469 30.197,4.056 8.694,0.503 17.397,0.09 26.022,-1.272 8.618,-1.361 16.762,-3.952 23.856,-9.267 5.936,-4.448 10.787,-9.75 13.523,-16.769 0.402,-1.008 1.163,-0.81 1.934,-0.573 C 0.026,-1.604 0.119,-0.833 0,0"
             style="fill:#f7f7df;fill-opacity:1;fill-rule:nonzero;stroke:none"
             id="path360" /></g><g
           id="g362"
           transform="translate(257.3292,143.5664)"><path
             d="m 0,0 c -0.155,0.651 -0.35,1.291 -0.5,1.943 0.105,8.524 -1.674,16.698 -5.004,24.552 -4.956,11.687 -12.546,21.742 -20.037,31.834 -6.112,8.235 -12.497,16.267 -19.261,23.983 -5.931,6.764 -11.875,13.521 -18.363,19.77 -2.268,2.391 -4.503,4.814 -7.034,6.937 0.03,0.06 0.067,0.111 0.093,0.176 -1.652,2.758 -4.207,4.557 -6.756,6.361 -0.032,0.022 -0.132,-0.054 -0.2,-0.083 -0.283,-0.544 -0.699,-0.94 -1.243,-1.233 -8.88,-4.797 -17.045,-10.676 -25.164,-16.625 0.636,-0.976 1.654,-1.484 2.592,-2.08 15.402,-9.788 30.662,-19.778 45.178,-30.868 9.511,-7.265 18.139,-15.454 25.964,-24.475 7.824,-9.02 14.902,-18.611 20.554,-29.165 3.454,-6.449 6.515,-13.078 6.811,-20.601 0.031,-0.763 -0.057,-1.753 1.186,-1.756 0.841,0.465 0.803,1.334 0.947,2.11 C 0.33,-6.161 0.226,-3.082 0,0"
             style="fill:#f7f7df;fill-opacity:1;fill-rule:nonzero;stroke:none"
             id="path364" /></g><g
           id="g366"
           transform="translate(412.4249,144.9209)"><path
             d="m 0,0 c -6.851,10.107 -13.819,20.14 -20.445,30.394 -2.027,3.137 -4.538,4.671 -8.004,5.529 -8.838,2.188 -17.734,3.985 -26.734,5.39 -5.188,0.81 -10.386,1.788 -15.594,1.99 -7.4,0.287 -14.839,0.504 -22.236,-0.741 -7.883,-1.329 -15.458,-3.485 -22.541,-7.231 -0.57,-0.301 -3.819,-2.62 -3.945,-2.664 -0.535,-0.511 -1.123,-0.977 -1.599,-1.538 -4.083,-4.825 -8.242,-9.591 -12.19,-14.525 -4.871,-6.089 -9.65,-12.257 -13.917,-18.799 -10e-4,0 -10e-4,-0.001 -0.002,-0.002 -2.864,-3.481 -5.34,-7.224 -7.513,-11.17 0.255,-0.304 0.56,-0.353 0.908,-0.176 0.64,0.9 1.189,1.884 1.933,2.687 5.546,5.991 11.966,10.744 19.421,14.183 10.575,4.878 21.726,7.116 33.251,7.881 3.135,0.349 6.271,0.344 9.406,0.002 4.676,0.037 9.314,-0.543 13.968,-0.829 9.416,-0.578 18.561,-2.751 27.818,-4.261 4.446,-0.725 8.754,-2.189 13.275,-2.536 h 0.001 c 1.875,-0.753 3.896,-0.788 5.846,-1.157 C -18.956,0.549 -8.977,-1.075 1.082,-2.17 0.955,-1.33 0.462,-0.683 0,0"
             style="fill:#f6f7df;fill-opacity:1;fill-rule:nonzero;stroke:none"
             id="path368" /></g><g
           id="g370"
           transform="translate(215.694,126.5361)"><path
             d="M 0,0 C -2.583,-0.548 -5.006,0.684 -7.545,0.682 -8.35,0.681 -9.154,0.861 -9.959,0.96 -8.843,2.198 -7.218,2.683 -5.932,3.672 -5.111,4.305 -4.551,3.631 -3.99,3.194 -2.646,2.147 -1.328,1.066 0,0"
             style="fill:#ceb096;fill-opacity:1;fill-rule:nonzero;stroke:none"
             id="path372" /></g><g
           id="g374"
           transform="translate(153.8605,241.1816)"><path
             d="m 0,0 c 36.069,-19.882 105.898,-73.301 100.084,-109.33 -2.46,2.93 -1.891,11.257 -5.8,16.031 C 74.008,-58.752 -15.836,-64.24 -38.83,-58.228 5.749,-59.618 76.647,-65.845 93.359,-87.572 69.192,-42.562 30.375,-24.43 0,0"
             style="fill:#ae967f;fill-opacity:1;fill-rule:nonzero;stroke:none"
             id="path376" /></g><g
           id="g378"
           transform="translate(270.2452,152.0811)"><path
             d="M 0,0 C 15.608,19.896 32.587,40.927 54.637,54.613 11.534,24.92 -18.666,-37.849 -13.621,-16.414 c 4.573,49.427 -55.628,100.606 -77.661,124.581 -1.473,0.784 -5.923,6.314 -1.342,2.896 C -52.575,72.328 -7.671,25.416 -11.5,-13.218 -13.093,-20.678 -4.101,-1.715 0,0"
             style="fill:#92806c;fill-opacity:1;fill-rule:nonzero;stroke:none"
             id="path380" /></g><g
           id="g382"
           transform="translate(355.7608,382.5654)"><path
             d="m 0,0 c 0.583,1.843 1.608,3.276 3.359,4.258 12.146,6.812 24.28,13.647 36.375,20.549 1.254,0.716 1.933,0.608 2.541,-0.608 1.102,-0.816 1.804,-1.943 2.463,-3.114 9.539,-16.961 19.079,-33.921 28.688,-50.842 0.653,-1.149 1.516,-2.252 1.336,-3.715 -0.37,-1.206 -1.46,-1.639 -2.414,-2.185 -10.99,-6.285 -22.048,-12.449 -33.08,-18.661 -2.548,-1.435 -4.91,-2.85 -5.332,-6.077 -0.039,-0.295 -0.296,-0.506 -0.56,-0.664 -1.42,0.239 -1.72,1.539 -2.286,2.522 -6.379,11.081 -12.554,22.278 -18.908,33.372 C 8.671,-19.036 5.208,-12.88 1.767,-6.712 1.046,-5.42 0.274,-4.133 -0.072,-2.663 -0.438,-1.765 -0.445,-0.876 0,0"
             style="fill:#f6f7df;fill-opacity:1;fill-rule:nonzero;stroke:none"
             id="path384" /></g><g
           id="g386"
           transform="translate(346.1256,379.3345)"><path
             d="M 0,0 C 1.012,0.822 2.139,1.437 3.366,1.872 3.913,1.694 4.16,1.234 4.412,0.771 c 6.203,-11.393 12.727,-22.606 19.06,-33.926 3.966,-7.091 8.1,-14.087 11.97,-21.232 0.578,-1.066 1.128,-2.125 0.606,-3.384 -0.469,-0.92 -1.34,-1.37 -2.182,-1.848 -10.896,-6.182 -21.83,-12.293 -32.755,-18.423 -1.124,-0.63 -2.234,-1.632 -3.718,-0.876 -1.731,1.617 -2.557,3.827 -3.683,5.818 -9.094,16.086 -18.204,32.162 -27.246,48.276 -0.618,1.102 -1.318,2.178 -1.266,3.522 -0.161,0.683 -1.005,1.284 0.249,1.977 9.74,5.377 19.436,10.833 29.146,16.265 0.748,-0.132 1.092,-0.726 1.421,-1.299 2.134,-3.722 4.262,-7.446 6.368,-11.184 0.401,-0.71 0.753,-1.452 0.588,-2.314 -0.432,-1.065 -1.444,-1.456 -2.337,-1.97 -6.652,-3.827 -13.364,-7.546 -19.997,-11.405 6.531,3.558 12.988,7.249 19.463,10.908 1.083,0.612 2.097,1.466 3.465,1.423 1.285,-0.693 1.827,-1.79 1.762,-3.22 -1.251,-2.012 -3.459,-2.742 -5.368,-3.783 -5.673,-3.098 -11.202,-6.45 -16.869,-9.558 5.934,3.223 11.838,6.5 17.703,9.848 1.656,0.945 3.218,2.138 5.171,2.5 1.321,-0.657 1.85,-1.762 1.817,-3.188 -0.561,-1.368 -1.875,-1.873 -3.019,-2.525 -6.086,-3.473 -12.182,-6.93 -18.317,-10.317 -0.257,-0.142 -0.528,-0.266 -0.769,-0.658 6.49,3.625 12.807,7.293 19.211,10.806 1.153,0.633 2.205,1.59 3.683,1.399 1.159,-0.769 1.756,-1.832 1.699,-3.238 -0.859,-1.426 -2.395,-1.96 -3.733,-2.702 -5.651,-3.134 -11.217,-6.422 -16.92,-9.463 -0.502,-0.268 -1.039,-0.504 -1.698,-1.232 6.858,3.832 13.305,7.633 19.896,11.176 0.967,0.519 1.861,1.266 3.066,1.208 1.287,-0.681 1.84,-1.762 1.743,-3.196 -0.681,-1.376 -2.069,-1.871 -3.279,-2.56 -6.317,-3.601 -12.668,-7.14 -18.95,-10.802 6.802,3.665 13.477,7.557 20.217,11.331 0.835,0.467 1.603,1.12 2.664,0.995 1.201,-0.722 1.913,-1.725 1.834,-3.182 -0.354,-1.002 -1.247,-1.432 -2.079,-1.913 -6.755,-3.902 -13.632,-7.589 -20.342,-11.57 6.209,3.277 12.266,6.827 18.396,10.248 1.468,0.82 2.795,2.018 4.634,2.009 1.027,-0.835 2.372,-1.316 2.972,-2.637 -0.315,-0.844 -1.073,-1.195 -1.785,-1.592 -7.139,-3.986 -14.276,-7.976 -21.345,-12.087 8.59,4.725 17.076,9.641 25.728,14.259 0.654,0.241 1.317,0.16 1.982,0.054 -2.923,4.76 -5.571,9.677 -8.309,14.54 -4.666,8.29 -9.355,16.566 -14.032,24.849 C 0.393,-2.155 -0.368,-1.235 0,0"
             style="fill:#f6f7df;fill-opacity:1;fill-rule:nonzero;stroke:none"
             id="path388" /></g><g
           id="g390"
           transform="translate(311.3233,358.0327)"><path
             d="m 0,0 c 7,-12.342 14.006,-24.682 21,-37.027 3.811,-6.725 7.603,-13.46 11.402,-20.191 1.039,-1.455 2.211,-0.762 3.331,-0.167 3.815,2.029 7.54,4.219 11.304,6.339 7.009,3.947 14.007,7.914 21.009,11.874 2.245,1.269 4.499,1.788 7.06,1.105 2.182,-0.583 4.832,0.984 5.366,3.198 0.551,2.288 1.88,3.757 3.877,4.89 10.688,6.066 21.424,12.048 32.089,18.154 1.186,0.679 2.714,1.134 2.532,2.997 -8.64,15.353 -17.287,30.703 -25.916,46.063 -2.143,3.816 -4.229,7.664 -6.342,11.497 1.861,1.372 2.987,0.884 4.118,-1.14 10.424,-18.663 20.941,-37.275 31.423,-55.905 1.355,-2.408 1.278,-2.697 -1.224,-4.107 -11.027,-6.214 -22.048,-12.436 -33.112,-18.582 -1.658,-0.921 -2.614,-1.795 -2.24,-3.937 0.354,-2.027 -0.55,-3.789 -2.461,-4.868 -1.945,-1.099 -3.844,-2.284 -5.829,-3.305 -1.844,-0.949 -4.733,-0.496 -5.966,1.103 -0.847,1.098 -1.442,0.877 -2.384,0.34 -6.663,-3.8 -13.339,-7.579 -20.023,-11.342 -4.867,-2.74 -9.802,-5.364 -14.608,-8.206 -1.971,-1.165 -2.943,-0.782 -4.01,1.157 -3.985,7.244 -8.118,14.406 -12.187,21.603 C 11.833,-27.177 5.515,-15.864 -0.953,-4.638 -2.15,-2.56 -2.204,-1.163 0,0"
             style="fill:#646cce;fill-opacity:1;fill-rule:nonzero;stroke:none"
             id="path392" /></g><g
           id="g394"
           transform="translate(381.7716,321.6899)"><path
             d="m 0,0 c 0.209,0.936 -0.131,1.695 -0.589,2.519 -5.231,9.403 -10.698,18.671 -15.834,28.13 -4.499,8.286 -9.361,16.375 -14.057,24.554 -0.781,1.36 -1.437,2.776 -1.8,4.314 1.385,1.004 2.87,0.623 4.35,0.312 1.209,0.529 1.571,-0.618 2.25,-1.137 2.759,-5.502 5.911,-10.785 8.912,-16.151 3.256,-5.821 6.588,-11.602 9.81,-17.443 C -2.706,17.389 1.694,9.761 6.037,2.102 6.474,1.331 6.956,0.585 7.417,-0.173 7.7,-0.995 6.984,-0.827 6.741,-0.701 4.741,0.338 2.687,0.273 0.582,-0.251 0.38,-0.301 0.167,-0.148 0,0"
             style="fill:#e0e3cc;fill-opacity:1;fill-rule:nonzero;stroke:none"
             id="path396" /></g><g
           id="g398"
           transform="translate(356.0914,380.3818)"><path
             d="m 0,0 c -1.028,-0.171 -1.439,0.879 -2.25,1.137 0.408,0.774 1.264,0.726 1.919,1.046 C -0.221,1.456 -0.11,0.728 0,0"
             style="fill:#646cce;fill-opacity:1;fill-rule:nonzero;stroke:none"
             id="path400" /></g><g
           id="g402"
           transform="translate(381.7716,321.6899)"><path
             d="m 0,0 c 2.468,1.247 4.872,1.395 7.167,-0.409 0.033,-0.026 0.144,-0.004 0.179,0.034 0.045,0.048 0.049,0.134 0.071,0.203 -0.167,3.118 1.315,5.059 4.033,6.565 11.862,6.575 23.644,13.294 35.448,19.972 0.574,0.325 1.084,0.764 1.624,1.15 1.434,-1.524 0.431,-2.218 -0.907,-2.969 C 36.323,18.201 25.063,11.799 13.76,5.474 11.971,4.473 10.987,3.093 10.682,1.115 10.33,-1.165 6.612,-3.306 4.504,-2.474 c -1.926,0.76 -3.747,0.598 -5.566,-0.43 -11.213,-6.336 -22.472,-12.59 -33.637,-19.008 -1.836,-1.056 -2.742,-0.975 -3.347,1.037 0.72,-0.578 1.278,0.018 1.81,0.317 11.914,6.698 23.816,13.417 35.718,20.137 C -0.327,-0.313 -0.172,-0.142 0,0"
             style="fill:#e0e3cc;fill-opacity:1;fill-rule:nonzero;stroke:none"
             id="path404" /></g><g
           id="g406"
           transform="translate(342.7618,369.3569)"><path
             d="m 0,0 c 0.495,-0.751 1.329,-1.511 -0.22,-2.367 -6.841,-3.78 -13.652,-7.615 -20.458,-11.458 -0.868,-0.49 -1.424,-0.544 -1.989,0.444 -0.594,1.038 -0.082,1.515 0.699,1.957 6.737,3.814 13.474,7.627 20.22,11.425 C -1.245,0.284 -0.685,0.626 0,0"
             style="fill:#e0e3cc;fill-opacity:1;fill-rule:nonzero;stroke:none"
             id="path408" /></g><g
           id="g410"
           transform="translate(375.9942,330.9307)"><path
             d="m 0,0 c 0.666,-1.129 -0.228,-1.405 -0.93,-1.803 -4.013,-2.273 -8.016,-4.562 -12.033,-6.829 -5.505,-3.106 -11.012,-6.211 -16.54,-9.276 -0.535,-0.297 -1.233,-1.288 -1.847,-0.168 -0.588,1.074 0.596,1.232 1.121,1.531 9.371,5.337 18.765,10.634 28.166,15.919 C -1.446,-0.279 -0.827,0.218 0,0"
             style="fill:#e0e3cc;fill-opacity:1;fill-rule:nonzero;stroke:none"
             id="path412" /></g><g
           id="g414"
           transform="translate(342.3136,318.0581)"><path
             d="m 0,0 c 2.469,1.438 4.76,2.817 7.091,4.124 7.514,4.213 15.042,8.403 22.569,12.593 0.523,0.291 1.077,1.097 1.675,0.179 C 31.933,15.978 31.002,15.735 30.49,15.445 22.091,10.68 13.68,5.939 5.269,1.194 3.911,0.428 2.552,-0.338 1.18,-1.079 0.807,-1.281 0.361,-1.564 -0.002,-1.06 -0.301,-0.645 -0.277,-0.227 0,0"
             style="fill:#e0e3cc;fill-opacity:1;fill-rule:nonzero;stroke:none"
             id="path416" /></g><g
           id="g418"
           transform="translate(378.4913,326.5596)"><path
             d="m 0,0 c 0.703,-1.239 -0.389,-1.431 -1.02,-1.791 -3.751,-2.139 -7.522,-4.243 -11.287,-6.356 -5.649,-3.171 -11.295,-6.348 -16.954,-9.501 -0.592,-0.33 -1.377,-1.213 -1.916,-0.337 -0.633,1.027 0.581,1.338 1.222,1.701 9.396,5.317 18.803,10.616 28.229,15.881 C -1.239,-0.131 -0.716,0.627 0,0"
             style="fill:#e0e3cc;fill-opacity:1;fill-rule:nonzero;stroke:none"
             id="path420" /></g><g
           id="g422"
           transform="translate(364.7574,336.4648)"><path
             d="m 0,0 c 0.946,0.242 1.867,0.063 2.783,-0.17 -8.606,-4.878 -17.209,-9.762 -25.826,-14.621 -0.528,-0.297 -1.283,-0.977 -1.75,-0.158 -0.54,0.947 0.481,1.209 1.088,1.553 C -15.806,-8.926 -7.902,-4.464 0,0"
             style="fill:#e0e3cc;fill-opacity:1;fill-rule:nonzero;stroke:none"
             id="path424" /></g><g
           id="g426"
           transform="translate(360.919,340.0635)"><path
             d="m 0,0 c 0.311,-0.502 0.621,-1.004 0.93,-1.506 -7.081,-3.949 -14.161,-7.899 -21.242,-11.846 -0.585,-0.325 -1.18,-0.634 -1.774,-0.943 -0.49,-0.255 -0.992,-0.881 -1.496,-0.053 -0.486,0.801 0.207,1.029 0.711,1.314 3.04,1.725 6.09,3.435 9.126,5.166 C -9.159,-5.252 -4.581,-2.623 0,0"
             style="fill:#e0e3cc;fill-opacity:1;fill-rule:nonzero;stroke:none"
             id="path428" /></g><g
           id="g430"
           transform="translate(348.8546,361.459)"><path
             d="m 0,0 c 0.251,-0.435 0.502,-0.869 0.753,-1.304 -7.557,-4.294 -15.116,-8.585 -22.67,-12.883 -0.556,-0.316 -1.12,-1.006 -1.661,-0.073 -0.52,0.897 0.292,1.131 0.862,1.452 C -15.144,-8.539 -7.572,-4.269 0,0"
             style="fill:#e0e3cc;fill-opacity:1;fill-rule:nonzero;stroke:none"
             id="path432" /></g><g
           id="g434"
           transform="translate(356.1476,348.5337)"><path
             d="m 0,0 c 0.261,-0.431 0.521,-0.862 0.782,-1.294 -7.513,-4.241 -15.028,-8.481 -22.541,-12.722 -0.576,-0.325 -1.262,-0.882 -1.747,-0.089 -0.542,0.887 0.427,1.11 0.95,1.405 C -15.044,-8.455 -7.521,-4.229 0,0"
             style="fill:#e0e3cc;fill-opacity:1;fill-rule:nonzero;stroke:none"
             id="path436" /></g><g
           id="g438"
           transform="translate(351.2301,357.2358)"><path
             d="m 0,0 c 0.243,-0.438 0.485,-0.876 0.728,-1.314 -6.049,-3.476 -12.094,-6.956 -18.148,-10.42 -1.482,-0.848 -2.987,-1.655 -4.493,-2.458 -0.529,-0.283 -1.117,-1.064 -1.67,-0.11 -0.54,0.933 0.426,1.158 0.922,1.442 4.575,2.622 9.178,5.194 13.767,7.791 C -5.924,-3.388 -2.964,-1.69 0,0"
             style="fill:#e0e3cc;fill-opacity:1;fill-rule:nonzero;stroke:none"
             id="path440" /></g><g
           id="g442"
           transform="translate(353.6104,353.0049)"><path
             d="m 0,0 c 0.309,-0.509 0.618,-1.018 0.927,-1.526 -7.447,-4.165 -14.89,-8.334 -22.342,-12.49 -0.597,-0.333 -1.353,-1.165 -1.9,-0.265 -0.545,0.893 0.502,1.214 1.105,1.558 7.09,4.044 14.189,8.074 21.283,12.111 C -0.605,-0.43 -0.309,-0.205 0,0"
             style="fill:#e0e3cc;fill-opacity:1;fill-rule:nonzero;stroke:none"
             id="path444" /></g><g
           id="g446"
           transform="translate(358.5382,344.293)"><path
             d="m 0,0 c 0.251,-0.429 0.501,-0.857 0.752,-1.286 -7.611,-4.341 -15.224,-8.681 -22.835,-13.023 -0.502,-0.287 -1.047,-0.834 -1.481,-0.001 -0.574,1.098 0.564,1.262 1.083,1.56 6.315,3.617 12.665,7.176 19.002,10.753 C -2.314,-1.339 -1.159,-0.666 0,0"
             style="fill:#e0e3cc;fill-opacity:1;fill-rule:nonzero;stroke:none"
             id="path448" /></g><g
           id="g450"
           transform="translate(322.8648,352.418)"><path
             d="m 0,0 c 0.825,0.499 1.637,1.021 2.476,1.494 6.079,3.423 12.155,6.853 18.264,10.221 0.506,0.279 1.241,1.359 1.824,0.264 C 23.01,11.14 22.104,10.711 21.455,10.347 14.79,6.603 8.127,2.852 1.444,-0.86 1.016,-1.098 0.518,-1.845 -0.088,-1.12 -0.38,-0.77 -0.54,-0.324 0,0"
             style="fill:#e0e3cc;fill-opacity:1;fill-rule:nonzero;stroke:none"
             id="path452" /></g><g
           id="g454"
           transform="translate(346.1256,379.3345)"><path
             d="m 0,0 c 8.062,-14.261 16.123,-28.521 24.208,-42.823 -0.534,-0.264 -2.195,-1.003 -4.329,-0.609 -2.305,0.427 -3.644,1.894 -4.013,2.328 -2.539,3.956 -5.075,8.078 -7.591,12.369 C 3.096,-19.9 -1.435,-11.301 -5.407,-3.06 -3.716,-1.843 -1.896,-0.854 0,0"
             style="fill:#ff4c00;fill-opacity:1;fill-rule:nonzero;stroke:none"
             id="path456" /></g><g
           id="g458"
           transform="translate(446.0533,251.5605)"><path
             d="m 0,0 c -2.491,-3.101 -4.747,-6.388 -7.069,-9.621 -2.033,-2.831 -2.296,-2.877 -4.953,-0.764 -5.468,4.351 -10.873,8.779 -16.322,13.153 -1.274,1.022 -2.462,2.214 -4.111,2.657 -0.047,0.927 -0.944,1.376 -1.547,1.939 -1.804,1.686 -3.817,3.128 -5.72,4.701 -1.451,1.201 -1.657,2.286 -0.369,3.755 2.152,2.452 4.008,5.147 6.084,7.664 4.09,4.961 4.063,4.927 9.136,0.844 1.264,-1.017 2.28,-2.621 4.22,-2.468 0.125,-1.495 1.352,-2.204 2.366,-3.027 C -12.379,14.039 -6.537,9.167 -0.616,4.393 1.09,3.018 1.476,1.836 0,0 m 29.754,31.369 c -8.553,6.992 -17.086,14.007 -25.626,21.015 -4.262,3.691 -8.59,7.3 -13.142,10.631 -1.439,0.652 -1.81,-0.691 -2.376,-1.398 C -17.241,54.312 -23.046,46.97 -28.854,39.631 -37.236,29.039 -45.483,18.338 -54.009,7.859 c -0.823,-1.012 -1.784,-2.006 -1.65,-3.491 0.117,-0.431 0.299,-0.852 0.628,-1.141 3.562,-3.13 7.233,-6.127 11.017,-8.985 0.486,-0.366 1.039,-0.61 1.647,-0.442 0.25,-1.239 1.163,-2.008 2.078,-2.752 8.224,-6.682 16.459,-13.348 24.741,-19.956 0.68,-0.542 1.307,-1.235 2.324,-1.022 14.477,19.318 28.945,38.64 43.448,57.938 1.05,1.398 0.775,2.344 -0.47,3.361"
             style="fill:#646cce;fill-opacity:1;fill-rule:nonzero;stroke:none"
             id="path460" /></g><g
           id="g462"
           transform="translate(434.3473,316.77)"><path
             d="m 0,0 c -0.375,0.372 -0.723,0.775 -1.129,1.109 -4.842,3.988 -7.071,3.752 -10.944,-1.153 -5.251,-6.649 -10.503,-13.297 -15.743,-19.955 -9.115,-11.583 -18.221,-23.173 -27.331,-34.761 -0.022,-0.527 0.332,-0.884 0.749,-0.878 2.637,0.038 4.71,-1.475 6.975,-2.448 0.18,-0.014 0.34,0.002 0.503,0.013 0.984,-1.022 2.324,-1.638 3.284,-2.688 5.487,6.999 10.968,14.003 16.462,20.996 4.239,5.394 8.477,10.788 12.748,16.157 5.69,7.151 11.41,14.277 17.117,21.414 C 1.949,-1.273 1.06,-0.532 0,0"
             style="fill:#32449f;fill-opacity:1;fill-rule:nonzero;stroke:none"
             id="path464" /></g><g
           id="g466"
           transform="translate(383.3394,258.4907)"><path
             d="m 0,0 c -1.308,1.06 -2.642,1.009 -3.665,-0.161 -0.222,-0.03 -0.448,-0.072 -0.682,-0.138 -3.736,-2.464 -3.985,-5.22 -0.72,-8.091 2.59,-2.277 5.367,-4.325 8.039,-6.504 11.439,-9.327 22.877,-18.654 34.366,-27.919 1.118,-0.901 2.145,-2.206 3.906,-1.812 1.257,1.659 2.514,3.317 3.772,4.975 0.505,0.593 1.01,1.187 1.514,1.779 C 31.027,-25.238 15.538,-12.588 0,0"
             style="fill:#f6f7df;fill-opacity:1;fill-rule:nonzero;stroke:none"
             id="path468" /></g><g
           id="g470"
           transform="translate(413.5323,256.3975)"><path
             d="m 0,0 c -2.893,2.412 -5.75,4.867 -8.693,7.215 -1.279,1.02 -1.579,1.912 -0.474,3.269 3.329,4.088 6.646,8.189 9.848,12.377 1.29,1.688 2.298,1.683 3.839,0.322 2.434,-2.152 5.044,-4.102 7.581,-6.139 7.198,-5.951 14.345,-11.966 21.637,-17.801 1.541,-1.233 1.432,-2.025 0.419,-3.37 -3.184,-4.228 -6.383,-8.451 -9.402,-12.796 -1.174,-1.689 -1.926,-1.35 -3.268,-0.263 C 14.366,-11.405 7.17,-5.719 0,0"
             style="fill:#ff4c00;fill-opacity:1;fill-rule:nonzero;stroke:none"
             id="path472" /></g><g
           id="g474"
           transform="translate(391.0782,237.1855)"><path
             d="m 0,0 c -4.233,4.183 -17.364,12.104 -17,16.698 0.943,4.645 5.21,10.298 10.503,7.057 C 1.183,18.84 6.993,12.526 14.638,6.754 23.215,-1.608 35.031,-7.681 41.319,-16.219 37.281,-19.373 28.093,-7.566 24.942,-6.213 14.763,1.972 5.096,9.851 -5.052,18.08 -6.89,19.393 -8.465,21.81 -11.098,20.903 -19.193,16.071 -9.714,12.214 -5.836,8.435 7.531,-3.186 22.104,-12.749 34.202,-24.852 34.762,-31.029 -0.611,-0.694 0,0"
             style="fill:#646cce;fill-opacity:1;fill-rule:nonzero;stroke:none"
             id="path476" /></g><g
           id="g478"
           transform="translate(192.9718,401.8594)"><path
             d="m 0,0 c 1.712,-3.066 3.424,-6.132 5.136,-9.197 0.407,-0.621 0.515,-1.311 0.388,-2.022 -0.53,-2.959 0.881,-4.831 3.119,-6.625 3.063,-2.456 6.014,-2.996 9.324,-0.739 4.934,0.375 9.618,-1.164 14.372,-2.023 14.154,-2.558 28.311,-5.095 42.458,-7.692 7.869,-1.445 15.742,-2.87 23.618,-4.28 1.098,-0.197 2.204,-0.351 3.132,-1.049 1.287,-0.281 2.565,-0.622 3.864,-0.826 1.27,-0.199 2.28,-0.704 1.966,-2.118 -0.282,-1.271 -1.434,-1.222 -2.5,-1.031 -6.504,1.163 -13.01,2.32 -19.515,3.482 -20.909,3.736 -41.82,7.46 -62.722,11.234 -1.754,0.316 -3.297,0.39 -4.946,-0.566 -6.336,-3.672 -17.853,4.535 -16.466,11.756 0.354,1.844 0.098,3.408 -1.208,4.77 -2.875,2.119 -4.211,5.057 -4.55,8.529 -12.004,21.382 -24.009,42.764 -36.012,64.147 -0.557,0.992 -1.249,2.162 0.023,2.948 1.433,0.885 2.158,-0.273 2.783,-1.418 0.678,-1.24 1.438,-2.436 2.162,-3.651 1.15,-0.55 1.834,-1.53 2.43,-2.603 9.409,-16.91 19.016,-33.711 28.299,-50.691 C -3.958,7.936 -2.269,5.98 -1.157,3.704 -0.581,2.524 0.181,1.412 0,0"
             style="fill:#ff4c00;fill-opacity:1;fill-rule:nonzero;stroke:none"
             id="path480" /></g><g
           id="g482"
           transform="translate(188.442,403.4619)"><path
             d="m 0,0 c 1.517,-2.843 3.033,-5.686 4.549,-8.528 -3.216,-4.517 -6.431,-9.035 -9.799,-13.767 -1.262,1.793 -0.076,4.301 -1.597,4.947 -1.372,0.582 -3.306,-0.161 -5.782,-0.395 C -8.167,-11.474 -4.083,-5.737 0,0"
             style="fill:#646cce;fill-opacity:1;fill-rule:nonzero;stroke:none"
             id="path484" /></g><g
           id="g486"
           transform="translate(168.7482,461.9053)"><path
             d="m 0,0 c -0.496,0.652 -0.983,1.239 -1.875,1.431 -3.166,0.683 -6.318,1.43 -9.475,2.151 10.087,-18.05 20.172,-36.099 30.258,-54.148 4.065,-0.267 7.038,1.753 9.623,4.589 C 20.882,-29.497 10.98,-14.414 0,0"
             style="fill:#f7f7df;fill-opacity:1;fill-rule:nonzero;stroke:none"
             id="path488" /></g><g
           id="g490"
           transform="translate(293.4181,369.9829)"><path
             d="m 0,0 v 0 c -2.072,4.706 -5.078,7.916 -10.65,8.711 -5.201,0.742 -10.245,2.542 -15.384,3.767 -16.321,3.888 -32.635,7.825 -49.444,9.075 -0.663,0.049 -1.485,-0.303 -2.326,0.642 7.804,0.599 15.167,-0.157 22.509,-1.301 16.407,-2.559 32.476,-6.553 48.363,-11.334 0.834,-0.251 2.08,-1.209 2.564,0.328 0.363,1.152 -0.886,1.111 -1.602,1.32 -20.112,5.906 -40.332,11.301 -61.333,13.032 -0.553,0.046 -1.429,-0.384 -1.688,0.793 0.957,0.116 1.853,0.255 2.755,0.332 13.981,1.198 27.839,-0.184 41.653,-2.129 6.138,-0.864 12.229,-2.059 18.347,-3.07 0.711,-0.118 1.74,-0.666 1.936,0.644 0.154,1.028 -0.819,0.969 -1.448,1.182 -0.286,0.097 -0.599,0.112 -0.898,0.17 -16.5,3.174 -33.082,5.632 -49.941,5.543 -3.683,-0.02 -7.366,-0.219 -11.049,-0.336 0.702,0.581 1.446,0.815 2.206,0.961 11.745,2.256 23.63,2.774 35.544,2.606 7.42,-0.105 14.834,-0.591 22.253,-0.856 0.679,-0.025 1.771,-0.636 1.975,0.656 0.258,1.626 -1.101,1.099 -1.861,1.188 -1.715,0.201 -3.443,0.314 -5.169,0.403 -18.317,0.944 -36.613,1.256 -54.716,-2.437 -3.398,-0.693 -6.716,-1.777 -10.745,-2.862 5.833,4.737 11.429,8.566 17.25,12.09 13.424,8.129 27.522,14.908 41.928,21.083 0.826,0.354 2.403,0.462 1.77,1.898 -0.546,1.237 -1.606,0.211 -2.348,-0.091 -8.198,-3.341 -16.218,-7.081 -24.104,-11.093 -13.621,-6.93 -26.837,-14.515 -38.739,-25.009 1.243,3.989 2.518,7.413 3.371,10.939 4.669,19.29 4.808,38.88 3.667,58.542 -0.071,1.218 -0.177,2.435 -0.28,3.651 -0.043,0.502 -0.071,1.09 -0.762,1.083 -0.679,-0.008 -1.174,-0.339 -1.142,-1.117 0.026,-0.609 0.095,-1.217 0.134,-1.825 1.03,-16.073 1.023,-32.118 -1.236,-48.105 -0.256,-1.81 -0.586,-3.611 -0.915,-5.409 -0.305,-1.675 -0.655,-3.341 -0.986,-5.01 0.82,20.012 -1.219,39.705 -4.411,59.314 -0.162,0.996 0.398,3.014 -1.427,2.738 -1.609,-0.243 -0.503,-1.878 -0.389,-2.816 0.82,-6.764 1.92,-13.497 2.607,-20.273 1.529,-15.092 2.678,-30.206 0.245,-45.324 -0.336,-2.095 -0.554,-4.265 -1.918,-6.36 -0.998,4.377 -1.767,8.469 -2.867,12.469 -5.469,19.882 -13.637,38.732 -22.177,57.431 -0.387,0.848 -0.407,2.785 -1.931,2.091 -1.46,-0.663 -0.042,-1.938 0.257,-2.885 0.333,-1.059 0.906,-2.041 1.365,-3.061 7.05,-15.687 13.725,-31.523 18.865,-47.958 1.341,-4.288 2.638,-8.603 2.822,-13.216 -0.847,2.013 -1.694,4.027 -2.541,6.04 -3.582,-0.504 -6.743,-1.726 -8.646,-5.079 0.78,-3.759 2.638,-6.943 5.18,-9.763 4.124,-2.176 8.361,-4.182 11.668,-7.612 0.159,-0.093 0.323,-0.162 0.488,-0.231 0.016,-0.681 0.724,-0.992 1.337,-1.353 C -66.611,10.09 -51.211,7.36 -35.805,4.66 -23.507,2.505 -11.202,0.385 1.101,-1.75 0.734,-1.167 0.367,-0.583 0,0"
             style="fill:#f7f7df;fill-opacity:1;fill-rule:nonzero;stroke:none"
             id="path492" /></g><g
           id="g494"
           transform="translate(187.6564,411.3394)"><path
             d="m 0,0 c 3.375,1.18 6.44,3.007 9.624,4.589 1.95,-2.77 3.113,-5.894 4.097,-9.1 C 10.947,-6.215 7.83,-7.338 5.316,-9.481 3.497,-6.346 1.436,-3.348 0,0"
             style="fill:#646cce;fill-opacity:1;fill-rule:nonzero;stroke:none"
             id="path496" /></g><g
           id="g498"
           transform="translate(210.2799,384.9023)"><path
             d="M 0,0 C 0.374,-0.705 0.748,-1.409 1.123,-2.113 -2.02,-4.692 -4.531,-4.897 -7.602,-2.828 -13.044,0.84 -13.773,2.529 -12.172,7.761 -7.47,6.184 -3.331,3.726 0,0"
             style="fill:#646cce;fill-opacity:1;fill-rule:nonzero;stroke:none"
             id="path500" /></g></g></g></g></svg>
